<svg width="47" height="48" viewBox="0 0 47 48" fill="none" xmlns="http://www.w3.org/2000/svg">
<path opacity="0.4" d="M33.6102 47.3337H13.3881C5.47975 47.3337 0.166992 41.7871 0.166992 33.5303V14.4727C0.166992 6.21592 5.47975 0.666992 13.3881 0.666992H33.6126C41.5209 0.666992 46.8337 6.21592 46.8337 14.4727V33.5303C46.8337 41.7871 41.5209 47.3337 33.6102 47.3337Z" fill="#5570F1"/>
<path fill-rule="evenodd" clip-rule="evenodd" d="M21.7382 16.2421C21.7382 19.4387 19.1366 22.0404 15.9399 22.0404C12.7409 22.0404 10.1416 19.4387 10.1416 16.2421C10.1416 13.0454 12.7409 10.4414 15.9399 10.4414C19.1366 10.4414 21.7382 13.0454 21.7382 16.2421ZM40.7675 28.8715C41.3112 29.3988 41.7008 30.0008 41.9575 30.6425C42.7345 32.5838 42.3308 34.9171 41.5002 36.8398C40.5155 39.1288 38.6302 40.8578 36.2548 41.6138C35.2002 41.9521 34.0942 42.0968 32.9905 42.0968H13.4348C11.4888 42.0968 9.76683 41.6441 8.35517 40.7948C7.47083 40.2628 7.3145 39.0378 7.97017 38.2398C9.06683 36.9098 10.1495 35.5751 11.2415 34.2288C13.3228 31.6528 14.7252 30.9061 16.2838 31.5618C16.9162 31.8325 17.5508 32.2408 18.2042 32.6701C19.9448 33.8228 22.3645 35.4048 25.5518 33.6875C27.7305 32.4962 28.9952 30.4576 30.096 28.6832L30.1182 28.6475C30.1922 28.5287 30.2657 28.41 30.3389 28.2917C30.7132 27.6869 31.0819 27.0912 31.4995 26.5428C32.0175 25.8638 33.9402 23.7405 36.4252 25.2525C38.0095 26.2045 39.3418 27.4925 40.7675 28.8715Z" fill="#5570F1"/>
</svg>
