<svg width="21" height="20" viewBox="0 0 21 20" fill="none" xmlns="http://www.w3.org/2000/svg">
<g clip-path="url(#clip0_166_20058)">
<path d="M13.8337 13.3333L10.5003 10L7.16699 13.3333" stroke="#5570F1" stroke-width="2" stroke-linecap="round" stroke-linejoin="round"/>
<path d="M10.5 10V17.5" stroke="#5570F1" stroke-width="2" stroke-linecap="round" stroke-linejoin="round"/>
<path d="M17.4919 15.3249C18.3047 14.8818 18.9467 14.1806 19.3168 13.3321C19.6868 12.4835 19.7637 11.5359 19.5354 10.6388C19.307 9.7417 18.7865 8.94616 18.0558 8.37778C17.3251 7.80939 16.4259 7.50052 15.5002 7.4999H14.4502C14.198 6.52427 13.7278 5.61852 13.0752 4.85073C12.4225 4.08295 11.6042 3.47311 10.682 3.06708C9.75967 2.66104 8.75734 2.46937 7.75031 2.50647C6.74328 2.54358 5.75777 2.80849 4.86786 3.28129C3.97795 3.7541 3.2068 4.42249 2.6124 5.23622C2.01799 6.04996 1.61579 6.98785 1.43603 7.9794C1.25627 8.97095 1.30363 9.99035 1.57456 10.961C1.84548 11.9316 2.33291 12.8281 3.00021 13.5832" stroke="#5570F1" stroke-width="2" stroke-linecap="round" stroke-linejoin="round"/>
<path d="M13.8337 13.3333L10.5003 10L7.16699 13.3333" stroke="#5570F1" stroke-width="2" stroke-linecap="round" stroke-linejoin="round"/>
</g>
<defs>
<clipPath id="clip0_166_20058">
<rect width="20" height="20" fill="white" transform="translate(0.5)"/>
</clipPath>
</defs>
</svg>
