<svg width="64" height="65" viewBox="0 0 64 65" fill="none" xmlns="http://www.w3.org/2000/svg">
<rect y="0.799316" width="64" height="64" rx="16" fill="white"/>
<path opacity="0.4" d="M48.0834 29.5165C47.4334 28.5832 46.2834 28.0498 44.9667 28.0498H38.1334C37.6834 28.0498 37.2667 27.8665 36.9834 27.5332C36.6834 27.1998 36.5667 26.7332 36.6334 26.2498L37.4834 20.7832C37.85 19.1498 36.7667 17.3165 35.1334 16.7665C33.6167 16.1998 31.8334 16.9665 31.1167 18.0498L24.0834 28.4998L23.8834 28.8332V43.5665L24.1334 43.8165L29.4167 47.8998C30.1167 48.5998 31.7 48.9832 32.8167 48.9832H39.3167C41.55 48.9832 43.8 47.2998 44.3 45.2498L48.4 32.7665C48.8334 31.5832 48.7167 30.4332 48.0834 29.5165Z" fill="#6FC1D6"/>
<path d="M20.6833 23.4326H18.9666C16.3833 23.4326 15.3333 24.4326 15.3333 26.8993V43.666C15.3333 46.1326 16.3833 47.1326 18.9666 47.1326H20.6833C23.2666 47.1326 24.3166 46.1326 24.3166 43.666V26.8993C24.3166 24.4326 23.2666 23.4326 20.6833 23.4326Z" fill="#6FC1D6"/>
</svg>
