<svg width="64" height="65" viewBox="0 0 64 65" fill="none" xmlns="http://www.w3.org/2000/svg">
<rect y="0.799316" width="64" height="64" rx="16" fill="white"/>
<path opacity="0.4" d="M42 44.2332H40.7333C39.4 44.2332 38.1333 44.7499 37.2 45.6832L34.35 48.4999C33.05 49.7832 30.9333 49.7832 29.6333 48.4999L26.7833 45.6832C25.85 44.7499 24.5667 44.2332 23.25 44.2332H22C19.2333 44.2332 17 42.0166 17 39.2832V21.0999C17 18.3665 19.2333 16.1499 22 16.1499H42C44.7667 16.1499 47 18.3665 47 21.0999V39.2832C47 41.9999 44.7667 44.2332 42 44.2332Z" fill="#6FC1D6"/>
<path d="M29.3 36.9824H24.8333C24.0999 36.9824 23.4166 36.6324 22.9833 36.0324C22.5666 35.4657 22.4666 34.7658 22.6666 34.0991C23.2499 32.3158 24.6833 31.349 25.9499 30.4824C27.2833 29.5824 28.0333 29.0158 28.0333 28.0491C28.0333 27.1824 27.3333 26.4824 26.4666 26.4824C25.5999 26.4824 24.9 27.1824 24.9 28.0491C24.9 28.7324 24.3333 29.2991 23.65 29.2991C22.9666 29.2991 22.4 28.7324 22.4 28.0491C22.4 25.8158 24.2166 23.9824 26.4666 23.9824C28.7166 23.9824 30.5333 25.7991 30.5333 28.0491C30.5333 30.3991 28.7666 31.599 27.35 32.5657C26.4666 33.1657 25.6333 33.7324 25.2166 34.4824H29.2833C29.9666 34.4824 30.5333 35.0491 30.5333 35.7324C30.5333 36.4157 29.9833 36.9824 29.3 36.9824Z" fill="#6FC1D6"/>
<path d="M38.7333 36.9827C38.0499 36.9827 37.4833 36.4161 37.4833 35.7327V34.5827H34.2166C34.2166 34.5827 34.2166 34.5827 34.2 34.5827C33.3833 34.5827 32.6333 34.1494 32.2166 33.4494C31.7999 32.7327 31.7999 31.8494 32.2166 31.1494C33.3499 29.1994 34.6666 26.9827 35.8666 25.0493C36.4 24.1993 37.4166 23.8161 38.3666 24.0827C39.3166 24.3661 39.9833 25.2327 39.9666 26.2327V32.0994H40.3333C41.0166 32.0994 41.5833 32.6661 41.5833 33.3494C41.5833 34.0327 41.0166 34.5994 40.3333 34.5994H39.9833V35.7494C39.9833 36.4327 39.4333 36.9827 38.7333 36.9827ZM37.4833 27.1994C36.4999 28.7994 35.4833 30.5161 34.5666 32.0827H37.4833V27.1994Z" fill="#6FC1D6"/>
</svg>
