<svg width="64" height="65" viewBox="0 0 64 65" fill="none" xmlns="http://www.w3.org/2000/svg">
<rect y="0.799316" width="64" height="64" rx="16" fill="white"/>
<path opacity="0.4" d="M47.6167 31.7826V41.7659C47.6167 46.3659 43.8834 50.0993 39.2834 50.0993H24.7167C20.1167 50.0993 16.3834 46.3659 16.3834 41.7659V31.8993C17.65 33.2659 19.45 34.0493 21.4 34.0493C23.5 34.0493 25.5167 32.9993 26.7834 31.3159C27.9167 32.9993 29.85 34.0493 32 34.0493C34.1334 34.0493 36.0334 33.0493 37.1834 31.3826C38.4667 33.0326 40.45 34.0493 42.5167 34.0493C44.5334 34.0493 46.3667 33.2326 47.6167 31.7826Z" fill="#6FC1D6"/>
<path d="M36.9833 14.8828H26.9833L25.75 27.1495C25.65 28.2828 25.8166 29.3495 26.2333 30.3161C27.2 32.5828 29.4666 34.0495 32 34.0495C34.5666 34.0495 36.7833 32.6161 37.7833 30.3328C38.0833 29.6161 38.2666 28.7828 38.2833 27.9328V27.6161L36.9833 14.8828Z" fill="#6FC1D6"/>
<path opacity="0.6" d="M49.2667 26.5828L48.7833 21.9661C48.0833 16.9328 45.8 14.8828 40.9167 14.8828H34.5167L35.75 27.3828C35.7667 27.5495 35.7833 27.7328 35.7833 28.0495C35.8833 28.9161 36.15 29.7161 36.55 30.4328C37.75 32.6328 40.0833 34.0495 42.5167 34.0495C44.7333 34.0495 46.7333 33.0661 47.9833 31.3328C48.9833 29.9995 49.4333 28.3161 49.2667 26.5828Z" fill="#6FC1D6"/>
<path opacity="0.6" d="M22.9834 14.8828C18.0834 14.8828 15.8167 16.9328 15.1 22.0161L14.65 26.5995C14.4834 28.3828 14.9667 30.1161 16.0167 31.4661C17.2834 33.1161 19.2334 34.0495 21.4 34.0495C23.8334 34.0495 26.1667 32.6328 27.35 30.4661C27.7834 29.7161 28.0667 28.8495 28.15 27.9495L29.45 14.8995H22.9834V14.8828Z" fill="#6FC1D6"/>
<path d="M30.9167 40.5656C28.8 40.7822 27.2 42.5822 27.2 44.7156V50.0989H36.7833V45.2989C36.8 41.8156 34.75 40.1656 30.9167 40.5656Z" fill="#6FC1D6"/>
</svg>
