<svg width="166" height="53" viewBox="0 0 166 53" fill="none" xmlns="http://www.w3.org/2000/svg">
<path fill-rule="evenodd" clip-rule="evenodd" d="M9.36716 0.0925293H156.079C159.339 0.0925293 160.519 0.457745 161.711 1.136C162.888 1.8033 163.85 2.83502 164.473 4.09686C165.105 5.37511 165.446 6.64033 165.446 10.1229V42.2358C165.446 45.7184 165.105 46.9836 164.473 48.2619C163.85 49.5237 162.888 50.5554 161.711 51.2227C160.519 51.901 159.339 52.2662 156.091 52.2662H9.355C6.1069 52.2662 4.92689 51.901 3.7347 51.2227C2.55783 50.5554 1.59558 49.5237 0.973212 48.2619C0.340624 46.9836 0 45.7184 0 42.2358V10.1229C0 6.64033 0.340624 5.37511 0.973212 4.09686C1.59558 2.83502 2.55783 1.8033 3.7347 1.136C4.92689 0.457745 6.1069 0.0925293 9.355 0.0925293H9.36716Z" fill="black"/>
<path d="M36.9211 26.2186C36.9455 23.7795 38.1377 21.536 40.0719 20.2578C39.4659 19.3311 38.6664 18.569 37.7371 18.0323C36.8078 17.4956 35.7744 17.1991 34.7193 17.1665C32.4809 16.9056 30.3033 18.6013 29.1598 18.6013C27.9919 18.6013 26.228 17.1926 24.3302 17.2317C23.1024 17.2746 21.9059 17.6576 20.8571 18.3433C19.8082 19.029 18.9428 19.9941 18.345 21.1447C15.7538 25.9578 17.688 33.0143 20.1697 36.9012C21.4106 38.7925 22.8461 40.9186 24.756 40.8403C26.6051 40.762 27.3107 39.5751 29.5369 39.5751C31.7631 39.5751 32.4079 40.8403 34.3421 40.8012C36.3372 40.762 37.5902 38.8838 38.7946 36.9664C39.6826 35.6099 40.376 34.1099 40.8262 32.5316C39.6691 32.0066 38.6818 31.128 37.9874 30.0054C37.2929 28.8827 36.9221 27.5657 36.9211 26.2186ZM33.2594 14.61C34.3472 13.2129 34.884 11.4161 34.7557 9.60132C33.0891 9.79697 31.5563 10.6448 30.4615 11.9883C29.9225 12.6451 29.5097 13.4095 29.2467 14.2376C28.9837 15.0657 28.8756 15.9413 28.9286 16.8143C29.7592 16.8232 30.5807 16.6294 31.3311 16.2475C32.0814 15.8656 32.7408 15.3056 33.2594 14.61Z" fill="white"/>
<path d="M62.4073 34.8403H56.6532L55.2664 39.2229H52.8334L58.2834 23.0229H60.8259L66.2759 39.2229H63.7942L62.4073 34.8403ZM57.2493 32.8185H61.8113L59.5607 25.7099H59.4999L57.2493 32.8185ZM78.0517 33.3142C78.0517 36.9794 76.227 39.3403 73.4533 39.3403C72.7532 39.3803 72.0568 39.2082 71.4437 38.8437C70.8306 38.4793 70.3255 37.9372 69.9862 37.2794H69.9376V43.1228H67.6749V27.4055H69.8646V29.362H69.9011C70.2557 28.7052 70.7701 28.1641 71.3894 27.7965C72.0086 27.4289 72.7094 27.2487 73.4168 27.2751C76.2148 27.2751 78.0517 29.649 78.0517 33.3142ZM75.7282 33.3142C75.7282 30.9272 74.5725 29.349 72.8085 29.349C71.0933 29.349 69.9254 30.9533 69.9254 33.3142C69.9254 35.6881 71.0933 37.2924 72.8207 37.2924C74.5725 37.2924 75.7282 35.7272 75.7282 33.3142ZM90.1682 33.3142C90.1682 36.9794 88.3434 39.3403 85.582 39.3403C84.8819 39.3803 84.1855 39.2082 83.5724 38.8437C82.9592 38.4793 82.4541 37.9372 82.1149 37.2794H82.0541V43.1228H79.8035V27.4055H81.9932V29.362H82.0297C82.3833 28.7072 82.8958 28.1673 83.5127 27.7999C84.1297 27.4324 84.8279 27.251 85.5333 27.2751C88.3313 27.2751 90.1682 29.649 90.1682 33.3142ZM87.8568 33.3142C87.8568 30.9272 86.7011 29.349 84.9372 29.349C83.2097 29.349 82.0541 30.9533 82.0541 33.3142C82.0541 35.6881 83.2097 37.2924 84.9372 37.2924C86.7011 37.2924 87.8568 35.7272 87.8568 33.3142ZM98.185 34.7098C98.3554 36.3142 99.803 37.3707 101.798 37.3707C103.708 37.3707 105.083 36.3142 105.083 34.8664C105.083 33.6011 104.243 32.8577 102.285 32.3359L100.338 31.8272C97.5525 31.1099 96.2751 29.7273 96.2751 27.4707C96.2751 24.6664 98.5378 22.749 101.762 22.749C104.961 22.749 107.151 24.6664 107.224 27.4707H104.937C104.803 25.8534 103.55 24.8621 101.737 24.8621C99.9125 24.8621 98.6717 25.8534 98.6717 27.3012C98.6717 28.436 99.4624 29.1273 101.409 29.6359L103.075 30.0664C106.178 30.849 107.455 32.1925 107.455 34.5533C107.455 37.5924 105.204 39.4837 101.628 39.4837C98.2824 39.4837 96.0196 37.6316 95.8737 34.7098H98.185ZM112.345 24.6142V27.4055H114.438V29.3229H112.345V35.8446C112.345 36.849 112.759 37.3185 113.683 37.3185C113.927 37.3185 114.17 37.2924 114.413 37.2663V39.1707C114.012 39.262 113.586 39.3011 113.173 39.2881C110.934 39.2881 110.07 38.375 110.07 36.0924V29.3229H108.465V27.4055H110.07V24.6142H112.345ZM115.642 33.3142C115.642 29.5968 117.686 27.262 120.873 27.262C124.06 27.262 126.104 29.6099 126.104 33.3142C126.104 37.0446 124.072 39.3663 120.873 39.3663C117.674 39.3663 115.642 37.0446 115.642 33.3142ZM123.793 33.3142C123.793 30.7707 122.698 29.2707 120.873 29.2707C119.048 29.2707 117.953 30.7707 117.953 33.3142C117.953 35.8707 119.048 37.3576 120.873 37.3576C122.698 37.3576 123.793 35.8707 123.793 33.3142ZM127.965 27.4055H130.119V29.4142H130.167C130.471 28.1229 131.578 27.236 132.819 27.2881C133.075 27.2881 133.342 27.3142 133.598 27.3794V29.649C133.267 29.5372 132.922 29.4843 132.576 29.4925C132.246 29.4767 131.917 29.5381 131.612 29.6723C131.306 29.8066 131.032 30.0104 130.807 30.2698C130.583 30.5292 130.414 30.8378 130.311 31.1743C130.209 31.5108 130.177 31.8672 130.216 32.2185V39.2229H127.965V27.4055ZM144.011 35.7533C143.707 37.8924 141.761 39.3663 139.267 39.3663C136.067 39.3663 134.084 37.0577 134.084 33.3664C134.084 29.662 136.079 27.262 139.182 27.262C142.223 27.262 144.145 29.5055 144.145 33.0925V33.9142H136.359V34.0707C136.325 34.5053 136.376 34.9428 136.511 35.3543C136.646 35.7658 136.861 36.1418 137.142 36.4575C137.422 36.7733 137.762 37.0214 138.139 37.1856C138.516 37.3498 138.921 37.4262 139.328 37.4098C140.422 37.5142 141.456 36.849 141.87 35.7533H144.011ZM136.371 32.2316H141.882C141.902 31.8408 141.847 31.4497 141.72 31.0829C141.593 30.7161 141.396 30.3814 141.142 30.0998C140.889 29.8182 140.584 29.5957 140.247 29.4463C139.909 29.2969 139.547 29.2238 139.182 29.2316C138.44 29.2316 137.728 29.5477 137.203 30.1103C136.678 30.6729 136.384 31.4359 136.384 32.2316H136.371Z" fill="white"/>
<path d="M56.9692 10.8272C57.443 10.7922 57.9182 10.8703 58.3604 11.0559C58.8027 11.2415 59.2011 11.5299 59.5269 11.9004C59.8527 12.2709 60.0977 12.7143 60.2445 13.1986C60.3912 13.6829 60.436 14.1961 60.3755 14.7011C60.3755 17.1794 59.1225 18.6142 56.9692 18.6142H54.3416V10.8272H56.9692ZM55.4729 17.5055H56.8354C57.1734 17.5264 57.5115 17.4667 57.8253 17.3305C58.1391 17.1944 58.4208 16.9852 58.65 16.7182C58.8793 16.4511 59.0505 16.1329 59.1511 15.7863C59.2517 15.4398 59.2793 15.0736 59.2319 14.7142C59.2793 14.3548 59.2517 13.9886 59.1511 13.642C59.0505 13.2955 58.8793 12.9772 58.65 12.7102C58.4208 12.4431 58.1391 12.234 57.8253 12.0978C57.5115 11.9617 57.1734 11.9019 56.8354 11.9229H55.4729V17.5055ZM61.6528 15.6663C61.6285 15.2864 61.6773 14.9051 61.7962 14.5462C61.9151 14.1873 62.1015 13.8584 62.344 13.58C62.5864 13.3016 62.8796 13.0797 63.2054 12.9279C63.5312 12.7762 63.8827 12.6978 64.2379 12.6978C64.5931 12.6978 64.9446 12.7762 65.2704 12.9279C65.5962 13.0797 65.8894 13.3016 66.1318 13.58C66.3743 13.8584 66.5607 14.1873 66.6796 14.5462C66.7985 14.9051 66.8473 15.2864 66.823 15.6663C66.8473 16.0463 66.7985 16.4276 66.6796 16.7865C66.5607 17.1454 66.3743 17.4743 66.1318 17.7527C65.8894 18.031 65.5962 18.253 65.2704 18.4048C64.9446 18.5565 64.5931 18.6348 64.2379 18.6348C63.8827 18.6348 63.5312 18.5565 63.2054 18.4048C62.8796 18.253 62.5864 18.031 62.344 17.7527C62.1015 17.4743 61.9151 17.1454 61.7962 16.7865C61.6773 16.4276 61.6285 16.0463 61.6528 15.6663ZM65.7038 15.6663C65.7038 14.4011 65.1807 13.6577 64.244 13.6577C63.2951 13.6577 62.772 14.4011 62.772 15.6663C62.772 16.9576 63.2951 17.6881 64.2318 17.6881C65.1807 17.6881 65.7038 16.9446 65.7038 15.6663ZM73.6841 18.6142H72.5649L71.4336 14.2837H71.3484L70.2171 18.6142H69.1222L67.6016 12.7446H68.6964L69.6696 17.2185H69.7548L70.8862 12.7316H71.9202L73.0515 17.2185H73.1367L74.1099 12.7316H75.1926L73.6841 18.6142ZM76.4578 12.7446H77.504V13.6707H77.5891C77.8689 12.9794 78.5259 12.562 79.2193 12.6272C79.4856 12.6045 79.7534 12.6465 80.0025 12.7501C80.2516 12.8537 80.4757 13.0162 80.6581 13.2256C80.8405 13.435 80.9765 13.6858 81.056 13.9593C81.1355 14.2328 81.1563 14.5221 81.117 14.8055V18.6142H80.0222V15.0924C80.0222 14.1533 79.6572 13.6837 78.8543 13.6837C78.6728 13.6731 78.4914 13.705 78.3225 13.7771C78.1537 13.8492 78.0015 13.9598 77.8765 14.1013C77.7515 14.2427 77.6567 14.4116 77.5987 14.5963C77.5407 14.781 77.5208 14.977 77.5405 15.1707V18.6142H76.4578V12.7446ZM82.8445 10.449H83.915V18.6142H82.8323L82.8445 10.449ZM85.4235 15.6663C85.3992 15.2864 85.448 14.9051 85.5669 14.5462C85.6858 14.1873 85.8722 13.8584 86.1147 13.58C86.3571 13.3016 86.6503 13.0797 86.9761 12.9279C87.3019 12.7762 87.6534 12.6978 88.0086 12.6978C88.3638 12.6978 88.7153 12.7762 89.0411 12.9279C89.3669 13.0797 89.6601 13.3016 89.9025 13.58C90.145 13.8584 90.3314 14.1873 90.4503 14.5462C90.5692 14.9051 90.618 15.2864 90.5937 15.6663C90.618 16.0463 90.5692 16.4276 90.4503 16.7865C90.3314 17.1454 90.145 17.4743 89.9025 17.7527C89.6601 18.031 89.3669 18.253 89.0411 18.4048C88.7153 18.5565 88.3638 18.6348 88.0086 18.6348C87.6534 18.6348 87.3019 18.5565 86.9761 18.4048C86.6503 18.253 86.3571 18.031 86.1147 17.7527C85.8722 17.4743 85.6858 17.1454 85.5669 16.7865C85.448 16.4276 85.3992 16.0463 85.4235 15.6663ZM89.4745 15.6663C89.4745 14.4011 88.9392 13.6577 88.0147 13.6577C87.0658 13.6577 86.5427 14.4011 86.5427 15.6663C86.5427 16.9576 87.0658 17.6881 88.0025 17.6881C88.9392 17.6881 89.4745 16.9446 89.4745 15.6663ZM91.7251 16.9446C91.7251 15.9011 92.455 15.2881 93.7688 15.1968L95.2529 15.1055V14.5968C95.2529 13.9837 94.8637 13.6316 94.1216 13.6316C93.5133 13.6316 93.0997 13.8664 92.9902 14.2837H91.9319C92.0535 13.2664 92.9294 12.6272 94.1702 12.6272C95.5449 12.6272 96.3235 13.3577 96.3235 14.5968V18.6142H95.2773V17.7794H95.1921C94.8393 18.3924 94.2189 18.7446 93.5498 18.7055C93.3197 18.731 93.0871 18.7045 92.8672 18.6277C92.6472 18.5509 92.4447 18.4254 92.2727 18.2595C92.1008 18.0936 91.9632 17.8908 91.8688 17.6643C91.7745 17.4378 91.7255 17.1926 91.7251 16.9446ZM95.2529 16.4489V15.9533L93.9148 16.0446C93.1605 16.0968 92.8199 16.3837 92.8199 16.8924C92.8199 17.4142 93.2457 17.7272 93.8296 17.7272C94.0019 17.7469 94.1762 17.7292 94.342 17.6751C94.5078 17.621 94.6617 17.5317 94.7946 17.4123C94.9274 17.293 95.0365 17.1462 95.1153 16.9807C95.194 16.8152 95.2408 16.6343 95.2529 16.4489ZM97.7468 15.6663C97.7468 13.8142 98.6349 12.6403 100.022 12.6403C100.715 12.6011 101.372 13.0055 101.7 13.6707H101.773V10.449H102.868V18.6142H101.822V17.6881H101.737C101.384 18.3402 100.727 18.7315 100.022 18.7055C98.6227 18.7055 97.7468 17.5316 97.7468 15.6663ZM98.866 15.6663C98.866 16.9185 99.4134 17.662 100.326 17.662C101.238 17.662 101.798 16.9055 101.798 15.6794C101.798 14.4533 101.226 13.6837 100.326 13.6837C99.4134 13.6837 98.866 14.4403 98.866 15.6663ZM107.333 15.6663C107.309 15.2864 107.357 14.9051 107.476 14.5462C107.595 14.1873 107.782 13.8584 108.024 13.58C108.267 13.3016 108.56 13.0797 108.886 12.9279C109.211 12.7762 109.563 12.6978 109.918 12.6978C110.273 12.6978 110.625 12.7762 110.95 12.9279C111.276 13.0797 111.57 13.3016 111.812 13.58C112.054 13.8584 112.241 14.1873 112.36 14.5462C112.479 14.9051 112.527 15.2864 112.503 15.6663C112.527 16.0463 112.479 16.4276 112.36 16.7865C112.241 17.1454 112.054 17.4743 111.812 17.7527C111.57 18.031 111.276 18.253 110.95 18.4048C110.625 18.5565 110.273 18.6348 109.918 18.6348C109.563 18.6348 109.211 18.5565 108.886 18.4048C108.56 18.253 108.267 18.031 108.024 17.7527C107.782 17.4743 107.595 17.1454 107.476 16.7865C107.357 16.4276 107.309 16.0463 107.333 15.6663ZM111.384 15.6663C111.384 14.4011 110.849 13.6577 109.924 13.6577C108.975 13.6577 108.452 14.4011 108.452 15.6663C108.452 16.9576 108.975 17.6881 109.912 17.6881C110.849 17.6881 111.384 16.9446 111.384 15.6663ZM113.951 12.7446H114.985V13.6707H115.07C115.35 12.9794 116.007 12.562 116.712 12.6272C116.978 12.6066 117.244 12.6501 117.492 12.7546C117.739 12.8591 117.962 13.022 118.143 13.2311C118.324 13.4402 118.459 13.6902 118.537 13.9627C118.616 14.2352 118.637 14.5233 118.598 14.8055V18.6142H117.527V15.0924C117.527 14.1533 117.138 13.6837 116.335 13.6837C116.155 13.6751 115.975 13.7084 115.807 13.7813C115.64 13.8543 115.489 13.9652 115.366 14.1064C115.242 14.2477 115.148 14.4159 115.091 14.5996C115.034 14.7833 115.014 14.9781 115.033 15.1707V18.6142H113.939V12.7446H113.951ZM124.717 11.2707V12.7707H125.897V13.7359H124.717V16.762C124.717 17.375 124.948 17.6489 125.483 17.6489L125.897 17.6229V18.5881C125.702 18.6272 125.508 18.6402 125.313 18.6402C124.097 18.6402 123.634 18.1837 123.634 17.062V13.7359H122.758V12.7707H123.634V11.2707H124.717ZM127.369 10.449H128.452V13.6837H128.537C128.829 12.9924 129.498 12.562 130.203 12.6403C130.468 12.6244 130.732 12.6713 130.977 12.7774C131.223 12.8836 131.443 13.0465 131.623 13.2545C131.804 13.4624 131.939 13.7104 132.019 13.9808C132.1 14.2511 132.123 14.5372 132.089 14.8185V18.6011H131.006V15.1055C131.006 14.1663 130.593 13.6968 129.838 13.6968C129.652 13.6788 129.464 13.7049 129.288 13.7732C129.113 13.8416 128.953 13.9506 128.821 14.0924C128.688 14.2342 128.587 14.4055 128.523 14.5941C128.459 14.7827 128.435 14.984 128.452 15.1837V18.6142H127.369V10.449ZM138.391 17.0229C138.243 17.5584 137.924 18.0214 137.491 18.3312C137.057 18.6411 136.536 18.7781 136.018 18.7185C135.658 18.7275 135.301 18.6528 134.97 18.4995C134.639 18.3462 134.344 18.1178 134.103 17.8303C133.863 17.5427 133.683 17.2027 133.577 16.8337C133.471 16.4646 133.44 16.0753 133.488 15.6924C133.441 15.3077 133.472 14.9167 133.577 14.5458C133.683 14.1748 133.862 13.8325 134.102 13.542C134.342 13.2515 134.637 13.0195 134.968 12.8617C135.298 12.7039 135.657 12.6239 136.018 12.6272C137.539 12.6272 138.451 13.7359 138.451 15.5881V15.9794H134.595V16.0576C134.578 16.2733 134.603 16.4903 134.669 16.6949C134.735 16.8994 134.84 17.0869 134.978 17.2454C135.115 17.4038 135.282 17.5297 135.467 17.6149C135.653 17.7001 135.853 17.7428 136.055 17.7402C136.578 17.8055 137.089 17.5185 137.357 17.0229H138.391ZM134.595 15.1316H137.357C137.37 14.9352 137.345 14.7379 137.284 14.5523C137.223 14.3667 137.126 14.1967 137 14.0533C136.874 13.9098 136.722 13.7959 136.553 13.7188C136.384 13.6417 136.202 13.6031 136.018 13.6055C135.831 13.6019 135.644 13.639 135.47 13.7144C135.296 13.7899 135.137 13.9022 135.005 14.0446C134.872 14.187 134.767 14.3567 134.697 14.5434C134.626 14.7302 134.592 14.9302 134.595 15.1316Z" fill="white"/>
</svg>
