<svg width="1394" height="411" viewBox="0 0 1394 411" fill="none" xmlns="http://www.w3.org/2000/svg">
<g filter="url(#filter0_dd_130_20998)">
<rect x="82" y="55.5986" width="1230" height="246" rx="46" fill="white"/>
<g clip-path="url(#clip0_130_20998)">
<path d="M268.601 184.864L216.79 128.747C213.885 125.601 209.551 124.21 205.359 125.065L199.21 126.326L176.552 130.965L176.112 131.054C175.889 131.099 175.67 131.15 175.454 131.208C175.341 131.238 175.225 131.273 175.109 131.308C172.7 132.016 170.6 133.44 169.061 135.351C168.066 136.582 167.302 138.017 166.84 139.591L158.387 168.444C157.182 172.562 158.221 177.015 161.135 180.169L212.926 236.266C215.571 239.128 219.13 240.638 222.735 240.765C225.676 240.872 228.649 240.056 231.187 238.302C231.727 237.928 232.249 237.513 232.749 237.055L237.37 232.786L267.808 204.685C273.501 199.429 273.855 190.554 268.601 184.864ZM189.471 161.521C189.353 161.714 189.237 161.9 189.113 162.081C189.061 162.161 189.002 162.243 188.944 162.317C188.757 162.566 188.556 162.804 188.346 163.026C188.275 163.104 188.207 163.178 188.133 163.245C188.062 163.323 187.985 163.396 187.91 163.46C185.362 165.792 181.502 166.321 178.349 164.501C174.45 162.247 173.117 157.273 175.368 153.379C177.417 149.826 181.733 148.404 185.437 149.889C185.685 149.989 185.936 150.102 186.184 150.231C186.284 150.288 186.386 150.338 186.491 150.399C190.384 152.647 191.717 157.621 189.471 161.521Z" fill="#E8E8E8"/>
<path d="M212.926 236.266C215.571 239.129 219.13 240.638 222.735 240.765C225.676 240.872 228.649 240.057 231.187 238.302C231.727 237.929 232.249 237.513 232.749 237.055L237.37 232.787L267.808 204.685C273.501 199.43 273.855 190.555 268.601 184.864L244.397 158.649L214.405 141.333C213.305 140.553 212.071 139.947 210.738 139.56L204.706 137.814L182.061 131.26C180.204 130.723 178.285 130.647 176.45 130.986L176.143 131.047C176.049 131.067 175.955 131.091 175.861 131.113C175.741 131.14 175.621 131.166 175.504 131.197C175.293 131.253 175.084 131.318 174.876 131.386C174.792 131.413 174.708 131.442 174.625 131.471C172.86 132.089 171.229 133.11 169.882 134.503L169.058 135.356C168.064 136.586 167.301 138.019 166.84 139.591L158.387 168.444C157.182 172.562 158.22 177.014 161.135 180.169L212.926 236.266ZM175.368 153.379C177.417 149.826 181.733 148.404 185.437 149.889C185.685 149.989 185.936 150.102 186.184 150.23C186.284 150.288 186.386 150.338 186.491 150.399C190.384 152.647 191.717 157.62 189.471 161.521C189.353 161.714 189.237 161.9 189.113 162.081C189.061 162.161 189.002 162.243 188.944 162.317C188.757 162.566 188.556 162.804 188.346 163.026C188.275 163.104 188.207 163.178 188.133 163.246C188.062 163.323 187.985 163.396 187.91 163.46C185.362 165.792 181.502 166.322 178.349 164.501C174.45 162.247 173.117 157.273 175.368 153.379Z" fill="url(#paint0_linear_130_20998)"/>
<path d="M217.048 145.118L211.673 141.87L191.497 129.679C187.624 127.34 182.774 127.332 178.893 129.659L153.11 145.126C149.429 147.332 147.175 151.309 147.175 155.602V231.953C147.175 239.698 153.454 245.978 161.204 245.978H208.922C216.668 245.978 222.947 239.698 222.947 231.953V155.574C222.947 151.293 220.708 147.332 217.048 145.118ZM179.306 160.825C176.126 157.641 176.126 152.491 179.306 149.311C182.205 146.411 186.743 146.155 189.935 148.546C190.151 148.706 190.363 148.882 190.567 149.07C190.651 149.15 190.736 149.227 190.82 149.311C194 152.491 194 157.641 190.82 160.825C190.66 160.981 190.499 161.133 190.331 161.273C190.259 161.337 190.183 161.402 190.107 161.458C189.863 161.65 189.607 161.83 189.346 161.99C189.258 162.046 189.17 162.099 189.082 162.147C188.994 162.203 188.901 162.251 188.814 162.295C185.746 163.889 181.881 163.4 179.306 160.825Z" fill="#FDC347"/>
<path d="M222.947 231.953C222.947 231.953 222.947 231.615 222.947 230.992L175.9 183.956C174.074 182.497 171.658 181.766 168.649 181.766C162.039 181.766 158.734 184.811 158.734 190.9V201.891C158.734 205.188 159.711 207.585 161.649 209.097L198.53 245.978H208.922C216.668 245.978 222.947 239.698 222.947 231.953Z" fill="url(#paint1_linear_130_20998)"/>
<path d="M200.649 179.686C200 179.142 199.278 178.869 198.48 178.869C197.393 178.869 196.653 179.315 196.258 180.206L169.094 234.773C168.897 235.12 168.799 235.491 168.799 235.887C168.799 236.579 169.072 237.21 169.621 237.78L177.819 245.978H208.922C216.668 245.978 222.947 239.699 222.947 231.953C222.947 231.953 222.947 221.993 222.947 209.586V202.094L200.649 179.686Z" fill="url(#paint2_linear_130_20998)"/>
<path d="M208.65 208.984C206.825 207.524 204.408 206.793 201.399 206.793C194.79 206.793 191.485 209.838 191.485 215.928V226.919C191.485 230.215 192.462 232.612 194.399 234.124L206.254 245.978H208.922C216.667 245.978 222.947 239.699 222.947 231.953C222.947 231.953 222.947 228.562 222.947 223.277L208.65 208.984Z" fill="url(#paint3_linear_130_20998)"/>
<path d="M158.734 201.891V190.9C158.734 184.811 162.039 181.766 168.649 181.766C171.657 181.766 174.075 182.497 175.9 183.956C177.724 185.417 178.637 187.732 178.637 190.9V201.891C178.637 205.06 177.724 207.375 175.9 208.835C174.074 210.296 171.657 211.025 168.649 211.025C162.039 211.026 158.734 207.981 158.734 201.891ZM164.007 201.767C164.007 204.623 165.554 206.05 168.648 206.05C171.792 206.05 173.364 204.623 173.364 201.767V191.024C173.364 188.17 171.792 186.742 168.648 186.742C165.554 186.742 164.007 188.17 164.007 191.024C164.007 191.024 164.007 201.767 164.007 201.767ZM168.799 235.887C168.799 235.491 168.897 235.12 169.094 234.773L196.259 180.206C196.653 179.315 197.394 178.869 198.48 178.869C199.278 178.869 200.001 179.142 200.65 179.686C201.298 180.232 201.623 180.9 201.623 181.691C201.623 182.088 201.549 182.484 201.401 182.88L174.235 237.223C173.79 238.164 172.951 238.635 171.718 238.635C170.869 238.635 170.17 238.349 169.621 237.781C169.072 237.211 168.799 236.58 168.799 235.887ZM191.485 227.072V215.997C191.485 209.861 194.79 206.793 201.399 206.793C204.408 206.793 206.825 207.53 208.651 209.001C210.475 210.472 211.388 212.805 211.388 215.997V227.072C211.388 230.265 210.475 232.597 208.651 234.069C206.825 235.54 204.408 236.275 201.399 236.275C194.79 236.275 191.485 233.207 191.485 227.072ZM196.758 226.968C196.758 229.856 198.305 231.3 201.399 231.3C204.542 231.3 206.115 229.857 206.115 226.968V216.1C206.115 213.213 204.542 211.768 201.399 211.768C198.304 211.768 196.758 213.213 196.758 216.1V226.968Z" fill="url(#paint4_linear_130_20998)"/>
<path d="M222.947 155.574V181.536L191.483 150.073C191.28 149.809 191.06 149.553 190.822 149.311C190.736 149.226 190.651 149.152 190.569 149.07C190.512 149.016 190.455 148.966 190.395 148.92C190.246 148.785 190.089 148.661 189.936 148.547C186.892 146.267 182.628 146.392 179.727 148.924V129.202C183.08 127.531 187.017 127.492 190.395 129.088C190.768 129.262 191.138 129.461 191.497 129.679L211.675 141.869L217.048 145.119C220.707 147.331 222.947 151.292 222.947 155.574Z" fill="url(#paint5_linear_130_20998)"/>
<path d="M185.061 158.618C182.115 158.618 179.727 156.229 179.727 153.284V115.933C179.727 112.987 182.115 110.599 185.061 110.599C188.007 110.599 190.395 112.987 190.395 115.933V153.283C190.395 156.229 188.007 158.618 185.061 158.618Z" fill="url(#paint6_linear_130_20998)"/>
</g>
<path d="M305.695 169.599V146.779H312.135C314.468 146.779 316.487 147.175 318.19 147.969C319.893 148.762 321.212 149.999 322.145 151.679C323.102 153.335 323.58 155.47 323.58 158.084C323.58 160.697 323.113 162.855 322.18 164.559C321.247 166.262 319.94 167.534 318.26 168.374C316.603 169.19 314.655 169.599 312.415 169.599H305.695ZM310.84 165.434H311.82C313.127 165.434 314.258 165.2 315.215 164.734C316.195 164.267 316.953 163.497 317.49 162.424C318.027 161.35 318.295 159.904 318.295 158.084C318.295 156.264 318.027 154.84 317.49 153.814C316.953 152.764 316.195 152.029 315.215 151.609C314.258 151.165 313.127 150.944 311.82 150.944H310.84V165.434ZM331.867 170.019C330.28 170.019 329.02 169.517 328.087 168.514C327.153 167.487 326.687 166.239 326.687 164.769C326.687 162.949 327.457 161.525 328.997 160.499C330.537 159.472 333.022 158.784 336.452 158.434C336.405 157.664 336.172 157.057 335.752 156.614C335.355 156.147 334.678 155.914 333.722 155.914C332.998 155.914 332.263 156.054 331.517 156.334C330.77 156.614 329.977 156.999 329.137 157.489L327.282 154.094C328.378 153.417 329.545 152.869 330.782 152.449C332.042 152.029 333.348 151.819 334.702 151.819C336.918 151.819 338.622 152.46 339.812 153.744C341.002 155.027 341.597 156.999 341.597 159.659V169.599H337.397L337.047 167.814H336.907C336.183 168.467 335.402 169.004 334.562 169.424C333.745 169.82 332.847 170.019 331.867 170.019ZM333.617 166.029C334.2 166.029 334.702 165.9 335.122 165.644C335.565 165.364 336.008 165.002 336.452 164.559V161.514C334.632 161.747 333.372 162.12 332.672 162.634C331.972 163.124 331.622 163.707 331.622 164.384C331.622 164.944 331.797 165.364 332.147 165.644C332.52 165.9 333.01 166.029 333.617 166.029ZM345.949 169.599V152.239H351.094V169.599H345.949ZM348.504 149.684C347.64 149.684 346.94 149.439 346.404 148.949C345.867 148.459 345.599 147.805 345.599 146.989C345.599 146.172 345.867 145.519 346.404 145.029C346.94 144.539 347.64 144.294 348.504 144.294C349.367 144.294 350.067 144.539 350.604 145.029C351.14 145.519 351.409 146.172 351.409 146.989C351.409 147.805 351.14 148.459 350.604 148.949C350.067 149.439 349.367 149.684 348.504 149.684ZM360.347 170.019C358.573 170.019 357.337 169.494 356.637 168.444C355.96 167.37 355.622 165.959 355.622 164.209V145.064H360.767V164.419C360.767 164.955 360.86 165.329 361.047 165.539C361.257 165.749 361.467 165.854 361.677 165.854C361.793 165.854 361.887 165.854 361.957 165.854C362.05 165.83 362.167 165.807 362.307 165.784L362.937 169.599C362.657 169.715 362.295 169.809 361.852 169.879C361.432 169.972 360.93 170.019 360.347 170.019ZM367.561 176.389C367.048 176.389 366.593 176.354 366.196 176.284C365.823 176.214 365.461 176.132 365.111 176.039L366.021 172.119C366.185 172.142 366.371 172.177 366.581 172.224C366.791 172.294 366.99 172.329 367.176 172.329C368.04 172.329 368.705 172.119 369.171 171.699C369.638 171.279 369.988 170.73 370.221 170.054L370.466 169.144L363.781 152.239H368.961L371.446 159.694C371.703 160.487 371.936 161.292 372.146 162.109C372.356 162.925 372.578 163.765 372.811 164.629H372.951C373.138 163.812 373.325 162.995 373.511 162.179C373.721 161.339 373.931 160.51 374.141 159.694L376.241 152.239H381.176L375.156 169.774C374.62 171.22 374.025 172.434 373.371 173.414C372.718 174.417 371.925 175.164 370.991 175.654C370.081 176.144 368.938 176.389 367.561 176.389ZM305.695 211.599V188.779H312.135C314.468 188.779 316.487 189.175 318.19 189.969C319.893 190.762 321.212 191.999 322.145 193.679C323.102 195.335 323.58 197.47 323.58 200.084C323.58 202.697 323.113 204.855 322.18 206.559C321.247 208.262 319.94 209.534 318.26 210.374C316.603 211.19 314.655 211.599 312.415 211.599H305.695ZM310.84 207.434H311.82C313.127 207.434 314.258 207.2 315.215 206.734C316.195 206.267 316.953 205.497 317.49 204.424C318.027 203.35 318.295 201.904 318.295 200.084C318.295 198.264 318.027 196.84 317.49 195.814C316.953 194.764 316.195 194.029 315.215 193.609C314.258 193.165 313.127 192.944 311.82 192.944H310.84V207.434ZM327.492 211.599V194.239H332.637V211.599H327.492ZM330.047 191.684C329.183 191.684 328.483 191.439 327.947 190.949C327.41 190.459 327.142 189.805 327.142 188.989C327.142 188.172 327.41 187.519 327.947 187.029C328.483 186.539 329.183 186.294 330.047 186.294C330.91 186.294 331.61 186.539 332.147 187.029C332.683 187.519 332.952 188.172 332.952 188.989C332.952 189.805 332.683 190.459 332.147 190.949C331.61 191.439 330.91 191.684 330.047 191.684ZM342.275 212.019C341.131 212.019 339.953 211.797 338.74 211.354C337.55 210.91 336.511 210.327 335.625 209.604L337.935 206.384C338.728 206.967 339.486 207.422 340.21 207.749C340.956 208.052 341.691 208.204 342.415 208.204C343.185 208.204 343.745 208.075 344.095 207.819C344.445 207.539 344.62 207.177 344.62 206.734C344.62 206.337 344.445 206.01 344.095 205.754C343.768 205.497 343.336 205.264 342.8 205.054C342.263 204.82 341.691 204.587 341.085 204.354C340.385 204.074 339.685 203.724 338.985 203.304C338.308 202.884 337.736 202.347 337.27 201.694C336.803 201.017 336.57 200.2 336.57 199.244C336.57 197.634 337.176 196.327 338.39 195.324C339.626 194.32 341.236 193.819 343.22 193.819C344.55 193.819 345.716 194.052 346.72 194.519C347.746 194.962 348.621 195.464 349.345 196.024L347.035 199.104C346.428 198.637 345.821 198.275 345.215 198.019C344.608 197.762 344.001 197.634 343.395 197.634C342.065 197.634 341.4 198.089 341.4 198.999C341.4 199.559 341.726 199.99 342.38 200.294C343.056 200.574 343.838 200.877 344.725 201.204C345.471 201.46 346.195 201.799 346.895 202.219C347.618 202.615 348.213 203.152 348.68 203.829C349.17 204.482 349.415 205.345 349.415 206.419C349.415 207.982 348.808 209.312 347.595 210.409C346.381 211.482 344.608 212.019 342.275 212.019ZM360.242 212.019C358.632 212.019 357.174 211.669 355.867 210.969C354.584 210.245 353.557 209.207 352.787 207.854C352.041 206.477 351.667 204.832 351.667 202.919C351.667 200.982 352.087 199.337 352.927 197.984C353.767 196.63 354.876 195.604 356.252 194.904C357.629 194.18 359.111 193.819 360.697 193.819C361.771 193.819 362.716 193.994 363.532 194.344C364.372 194.694 365.119 195.137 365.772 195.674L363.357 198.999C362.541 198.322 361.759 197.984 361.012 197.984C359.776 197.984 358.784 198.427 358.037 199.314C357.314 200.2 356.952 201.402 356.952 202.919C356.952 204.412 357.314 205.614 358.037 206.524C358.784 207.41 359.717 207.854 360.837 207.854C361.397 207.854 361.946 207.737 362.482 207.504C363.019 207.247 363.509 206.944 363.952 206.594L365.982 209.954C365.119 210.7 364.186 211.237 363.182 211.564C362.179 211.867 361.199 212.019 360.242 212.019ZM375.484 212.019C374.014 212.019 372.626 211.669 371.319 210.969C370.036 210.245 368.997 209.207 368.204 207.854C367.411 206.477 367.014 204.832 367.014 202.919C367.014 200.982 367.411 199.337 368.204 197.984C368.997 196.63 370.036 195.604 371.319 194.904C372.626 194.18 374.014 193.819 375.484 193.819C376.954 193.819 378.331 194.18 379.614 194.904C380.897 195.604 381.936 196.63 382.729 197.984C383.522 199.337 383.919 200.982 383.919 202.919C383.919 204.832 383.522 206.477 382.729 207.854C381.936 209.207 380.897 210.245 379.614 210.969C378.331 211.669 376.954 212.019 375.484 212.019ZM375.484 207.854C376.534 207.854 377.327 207.41 377.864 206.524C378.401 205.614 378.669 204.412 378.669 202.919C378.669 201.402 378.401 200.2 377.864 199.314C377.327 198.427 376.534 197.984 375.484 197.984C374.411 197.984 373.606 198.427 373.069 199.314C372.556 200.2 372.299 201.402 372.299 202.919C372.299 204.412 372.556 205.614 373.069 206.524C373.606 207.41 374.411 207.854 375.484 207.854ZM392.658 212.019C390.768 212.019 389.391 211.4 388.528 210.164C387.688 208.904 387.268 207.189 387.268 205.019V194.239H392.413V204.354C392.413 205.59 392.588 206.454 392.938 206.944C393.288 207.41 393.836 207.644 394.583 207.644C395.236 207.644 395.785 207.492 396.228 207.189C396.671 206.885 397.15 206.395 397.663 205.719V194.239H402.808V211.599H398.608L398.223 209.184H398.118C397.395 210.047 396.601 210.735 395.738 211.249C394.875 211.762 393.848 212.019 392.658 212.019ZM407.336 211.599V194.239H411.536L411.886 196.444H412.026C412.772 195.744 413.589 195.137 414.476 194.624C415.386 194.087 416.424 193.819 417.591 193.819C419.481 193.819 420.846 194.449 421.686 195.709C422.549 196.945 422.981 198.649 422.981 200.819V211.599H417.836V201.484C417.836 200.224 417.661 199.36 417.311 198.894C416.984 198.427 416.447 198.194 415.701 198.194C415.047 198.194 414.487 198.345 414.021 198.649C413.554 198.929 413.041 199.337 412.481 199.874V211.599H407.336ZM434.05 212.019C431.903 212.019 430.363 211.4 429.43 210.164C428.52 208.927 428.065 207.305 428.065 205.299V198.264H425.685V194.449L428.345 194.239L428.94 189.619H433.21V194.239H437.375V198.264H433.21V205.229C433.21 206.209 433.408 206.92 433.805 207.364C434.225 207.784 434.773 207.994 435.45 207.994C435.73 207.994 436.01 207.959 436.29 207.889C436.593 207.819 436.862 207.737 437.095 207.644L437.9 211.389C437.457 211.529 436.908 211.669 436.255 211.809C435.625 211.949 434.89 212.019 434.05 212.019ZM445.531 212.019C444.388 212.019 443.21 211.797 441.996 211.354C440.806 210.91 439.768 210.327 438.881 209.604L441.191 206.384C441.985 206.967 442.743 207.422 443.466 207.749C444.213 208.052 444.948 208.204 445.671 208.204C446.441 208.204 447.001 208.075 447.351 207.819C447.701 207.539 447.876 207.177 447.876 206.734C447.876 206.337 447.701 206.01 447.351 205.754C447.025 205.497 446.593 205.264 446.056 205.054C445.52 204.82 444.948 204.587 444.341 204.354C443.641 204.074 442.941 203.724 442.241 203.304C441.565 202.884 440.993 202.347 440.526 201.694C440.06 201.017 439.826 200.2 439.826 199.244C439.826 197.634 440.433 196.327 441.646 195.324C442.883 194.32 444.493 193.819 446.476 193.819C447.806 193.819 448.973 194.052 449.976 194.519C451.003 194.962 451.878 195.464 452.601 196.024L450.291 199.104C449.685 198.637 449.078 198.275 448.471 198.019C447.865 197.762 447.258 197.634 446.651 197.634C445.321 197.634 444.656 198.089 444.656 198.999C444.656 199.559 444.983 199.99 445.636 200.294C446.313 200.574 447.095 200.877 447.981 201.204C448.728 201.46 449.451 201.799 450.151 202.219C450.875 202.615 451.47 203.152 451.936 203.829C452.426 204.482 452.671 205.345 452.671 206.419C452.671 207.982 452.065 209.312 450.851 210.409C449.638 211.482 447.865 212.019 445.531 212.019Z" fill="url(#paint7_linear_130_20998)"/>
<path fill-rule="evenodd" clip-rule="evenodd" d="M509.25 226.599V130.599H511.25V226.599H509.25Z" fill="#CFCFCF"/>
<g clip-path="url(#clip1_130_20998)">
<path d="M581.364 198.776L567.51 232.395C565.385 237.553 566.836 246.599 569.788 246.599H699.212C702.172 246.599 703.619 237.513 701.478 232.368L687.483 198.726C686.381 196.076 684.915 194.599 683.391 194.599H585.476C583.943 194.599 582.468 196.096 581.364 198.776Z" fill="url(#paint8_linear_130_20998)"/>
<path d="M646.25 204.176L646.239 204.167H622.797C625.23 206.891 627.456 209.282 629.298 211.217L646.25 227.141H670.229L646.25 204.176Z" fill="url(#paint9_linear_130_20998)"/>
<path d="M634.518 110.599C611.351 110.599 592.57 129.398 592.57 152.586C592.57 170.663 618.06 199.416 629.298 211.216C632.141 214.201 636.896 214.201 639.738 211.216C650.979 199.416 676.47 170.663 676.47 152.586C676.469 129.398 657.688 110.599 634.518 110.599ZM634.518 168.558C625.705 168.558 618.561 161.407 618.561 152.586C618.561 143.765 625.706 136.614 634.518 136.614C643.331 136.614 650.475 143.765 650.475 152.586C650.475 161.407 643.331 168.558 634.518 168.558Z" fill="url(#paint10_linear_130_20998)"/>
<circle cx="634.5" cy="152.994" r="25" fill="white"/>
<path d="M634.518 127.599C620.512 127.599 609.158 138.963 609.158 152.982C609.158 167.001 620.512 178.365 634.518 178.365C648.524 178.365 659.878 167.001 659.878 152.982C659.878 138.963 648.523 127.599 634.518 127.599ZM634.518 168.954C625.705 168.954 618.561 161.803 618.561 152.982C618.561 144.161 625.705 137.01 634.518 137.01C643.33 137.01 650.475 144.161 650.475 152.982C650.475 161.803 643.33 168.954 634.518 168.954Z" fill="url(#paint11_linear_130_20998)"/>
</g>
<path d="M735.125 168.599H749.44V164.049H740.585V145.814H735.125V168.599ZM752.991 168.599H758.381V151.204H752.991V168.599ZM755.686 148.754C757.471 148.754 758.731 147.669 758.731 145.954C758.731 144.274 757.471 143.189 755.686 143.189C753.901 143.189 752.641 144.274 752.641 145.954C752.641 147.669 753.901 148.754 755.686 148.754ZM766.826 168.599H773.091L778.691 151.204H773.511L771.376 159.219C770.956 160.934 770.501 162.754 770.046 164.574H769.906C769.486 162.754 769.031 160.934 768.611 159.219L766.441 151.204H761.016L766.826 168.599ZM788.858 169.019C790.923 169.019 793.303 168.354 795.123 167.059L793.373 163.804C792.148 164.504 790.888 164.889 789.628 164.889C787.423 164.889 785.778 163.874 785.288 161.529H795.543C795.648 161.039 795.753 160.129 795.753 159.149C795.753 154.424 793.303 150.784 788.263 150.784C784.098 150.784 780.038 154.249 780.038 159.884C780.038 165.694 783.888 169.019 788.858 169.019ZM785.218 157.889C785.568 155.859 786.863 154.879 788.403 154.879C790.363 154.879 791.133 156.174 791.133 157.889H785.218ZM739.57 210.599H744.995V192.364H751.19V187.814H733.375V192.364H739.57V210.599ZM752.82 210.599H758.21V200.659C759.12 198.349 760.695 197.509 761.99 197.509C762.76 197.509 763.145 197.579 763.775 197.719L764.79 193.134C764.3 192.889 763.705 192.784 762.69 192.784C760.94 192.784 759.015 193.869 757.755 196.214H757.615L757.23 193.204H752.82V210.599ZM770.389 211.019C772.349 211.019 773.924 210.144 775.359 208.849H775.499L775.884 210.599H780.294V200.729C780.294 195.269 777.774 192.784 773.294 192.784C770.564 192.784 768.079 193.659 765.804 195.059L767.694 198.559C769.444 197.579 770.844 197.089 772.244 197.089C774.029 197.089 774.764 197.929 774.904 199.364C768.044 200.064 765.209 202.059 765.209 205.734C765.209 208.639 767.204 211.019 770.389 211.019ZM772.244 206.819C771.054 206.819 770.389 206.329 770.389 205.314C770.389 204.089 771.439 203.144 774.904 202.689V205.454C774.064 206.294 773.329 206.819 772.244 206.819ZM792.204 211.019C794.059 211.019 796.264 210.494 797.944 208.954L795.844 205.559C794.969 206.224 793.989 206.644 792.834 206.644C790.699 206.644 789.089 204.789 789.089 201.884C789.089 199.014 790.594 197.124 793.009 197.124C793.779 197.124 794.444 197.369 795.249 197.964L797.769 194.639C796.474 193.519 794.829 192.784 792.694 192.784C787.864 192.784 783.559 196.109 783.559 201.884C783.559 207.659 787.304 211.019 792.204 211.019ZM800.945 210.599H806.335V193.204H800.945V210.599ZM803.64 190.754C805.425 190.754 806.685 189.669 806.685 187.954C806.685 186.274 805.425 185.189 803.64 185.189C801.855 185.189 800.595 186.274 800.595 187.954C800.595 189.669 801.855 190.754 803.64 190.754ZM810.755 210.599H816.145V198.944C817.23 197.964 817.965 197.369 819.19 197.369C820.59 197.369 821.22 198.104 821.22 200.519V210.599H826.645V199.819C826.645 195.479 825.035 192.784 821.255 192.784C818.875 192.784 817.125 193.974 815.69 195.374H815.55L815.165 193.204H810.755V210.599ZM837.117 217.914C843.172 217.914 846.987 215.324 846.987 211.649C846.987 208.499 844.572 207.204 840.267 207.204H837.502C835.647 207.204 834.947 206.819 834.947 205.979C834.947 205.419 835.122 205.139 835.507 204.789C836.277 204.999 836.977 205.104 837.572 205.104C841.422 205.104 844.502 203.319 844.502 199.259C844.502 198.419 844.257 197.614 843.977 197.124H846.707V193.204H840.302C839.497 192.924 838.552 192.784 837.572 192.784C833.792 192.784 830.292 194.849 830.292 199.084C830.292 201.114 831.412 202.724 832.637 203.564V203.704C831.517 204.509 830.712 205.769 830.712 206.994C830.712 208.429 831.377 209.339 832.287 209.969V210.109C830.677 210.949 829.837 212.104 829.837 213.539C829.837 216.654 833.092 217.914 837.117 217.914ZM837.572 201.849C836.312 201.849 835.367 200.904 835.367 199.084C835.367 197.299 836.277 196.389 837.572 196.389C838.867 196.389 839.777 197.299 839.777 199.084C839.777 200.904 838.867 201.849 837.572 201.849ZM837.992 214.554C835.752 214.554 834.282 213.924 834.282 212.664C834.282 212.104 834.562 211.614 835.122 211.124C835.647 211.264 836.312 211.334 837.572 211.334H839.252C840.897 211.334 841.807 211.544 841.807 212.594C841.807 213.714 840.197 214.554 837.992 214.554Z" fill="url(#paint12_linear_130_20998)"/>
<path fill-rule="evenodd" clip-rule="evenodd" d="M903.75 226.599V130.599H905.75V226.599H903.75Z" fill="#CFCFCF"/>
<path d="M1076 179.099C1076 184.551 1075.17 189.813 1073.62 194.757C1073.45 195.309 1073.27 195.854 1073.08 196.396C1072.47 198.163 1071.76 199.884 1070.96 201.56C1070.3 202.972 1069.57 204.348 1068.78 205.685C1067.2 208.369 1065.39 210.898 1063.38 213.247C1061.27 215.707 1058.94 217.97 1056.41 220.007C1047.41 227.256 1035.96 231.599 1023.5 231.599C994.506 231.599 971 208.093 971 179.099C971 150.104 994.505 126.599 1023.5 126.599C1052.49 126.599 1076 150.104 1076 179.099Z" fill="url(#paint13_linear_130_20998)"/>
<path d="M1023.72 143.599C1021.67 143.599 1020 173.622 1020 175.699C1020 177.022 1020.68 178.184 1021.7 178.854L1060.06 217.599C1066.53 211.307 1071.4 203.351 1074 194.413C1065.44 185.824 1023.72 143.599 1023.72 143.599Z" fill="url(#paint14_linear_130_20998)"/>
<path d="M1024 182.599C1025.66 182.599 1027 181.255 1027 179.599C1027 177.942 1025.66 176.599 1024 176.599C1022.34 176.599 1021 177.942 1021 179.599C1021 181.255 1022.34 182.599 1024 182.599Z" fill="url(#paint15_linear_130_20998)"/>
<path d="M1023.5 137.599C1023.09 137.599 1022.71 137.743 1022.44 137.975C1022.17 138.208 1022 138.529 1022 138.885V148.313C1022 148.579 1022.09 148.826 1022.26 149.032C1022.36 149.168 1022.5 149.287 1022.66 149.379C1022.74 149.425 1022.83 149.465 1022.92 149.497C1023.1 149.562 1023.29 149.599 1023.5 149.599C1023.91 149.599 1024.29 149.455 1024.56 149.222C1024.83 148.989 1025 148.668 1025 148.313V138.884C1025 138.174 1024.33 137.599 1023.5 137.599Z" fill="url(#paint16_linear_130_20998)"/>
<path d="M1023.5 208.599C1022.67 208.599 1022 209.222 1022 209.992V220.206C1022 220.338 1022.03 220.464 1022.06 220.586C1022.24 221.169 1022.81 221.599 1023.5 221.599C1023.71 221.599 1023.9 221.559 1024.08 221.489C1024.62 221.278 1025 220.782 1025 220.205V209.991C1025 209.222 1024.33 208.599 1023.5 208.599Z" fill="url(#paint17_linear_130_20998)"/>
<path d="M1064.61 177.599H1054.39C1053.62 177.599 1053 178.27 1053 179.099C1053 179.927 1053.62 180.599 1054.39 180.599H1064.61C1065.38 180.599 1066 179.927 1066 179.099C1066 178.27 1065.38 177.599 1064.61 177.599Z" fill="url(#paint18_linear_130_20998)"/>
<path d="M994 179.098C994 178.788 993.919 178.499 993.781 178.26C993.688 178.1 993.57 177.962 993.433 177.855C993.228 177.693 992.981 177.599 992.714 177.599H983.286C982.931 177.599 982.609 177.766 982.377 178.038C982.144 178.31 982 178.684 982 179.099C982 179.927 982.576 180.599 983.286 180.599H992.714C993.069 180.599 993.39 180.431 993.623 180.159C993.856 179.888 994 179.513 994 179.098Z" fill="url(#paint19_linear_130_20998)"/>
<path d="M1046.38 158.232L1053.59 151.737C1054.14 151.248 1054.14 150.455 1053.59 149.966C1053.05 149.476 1052.17 149.476 1051.62 149.966L1044.41 156.46C1043.86 156.95 1043.86 157.743 1044.41 158.232C1044.95 158.721 1045.83 158.721 1046.38 158.232Z" fill="url(#paint20_linear_130_20998)"/>
<path d="M1002.63 200.006C1002.14 199.463 1001.35 199.463 1000.86 200.006L994.366 207.222C993.944 207.691 993.888 208.41 994.194 208.948C994.232 209.017 994.279 209.08 994.329 209.142C994.342 209.158 994.352 209.175 994.366 209.191C994.604 209.456 994.915 209.59 995.228 209.596C995.236 209.596 995.244 209.599 995.251 209.599C995.572 209.599 995.892 209.463 996.137 209.191L1002.63 201.975C1002.82 201.771 1002.93 201.52 1002.98 201.257C1002.99 201.169 1003 201.08 1003 200.991C1003 200.634 1002.88 200.278 1002.63 200.006Z" fill="url(#paint21_linear_130_20998)"/>
<path d="M1053.6 207.224L1046.38 200.003C1046.21 199.833 1046 199.723 1045.79 199.659C1045.58 199.598 1045.36 199.581 1045.15 199.618C1044.88 199.666 1044.62 199.792 1044.41 200.003C1043.86 200.547 1043.86 201.428 1044.41 201.972L1051.63 209.193C1051.71 209.275 1051.8 209.34 1051.89 209.397C1052.43 209.721 1053.13 209.656 1053.6 209.193C1053.82 208.972 1053.95 208.693 1053.99 208.405C1054.04 207.987 1053.92 207.547 1053.6 207.224Z" fill="url(#paint22_linear_130_20998)"/>
<path d="M996.138 149.966C995.894 149.721 995.573 149.599 995.253 149.599C995.173 149.599 995.092 149.606 995.013 149.621C994.776 149.667 994.55 149.782 994.367 149.965C994.122 150.21 994 150.531 994 150.851C994 150.931 994.008 151.011 994.023 151.09C994.069 151.327 994.183 151.553 994.367 151.737L1000.86 158.232C1000.87 158.243 1000.89 158.25 1000.9 158.261C1001.01 158.367 1001.14 158.451 1001.28 158.507C1001.43 158.568 1001.59 158.599 1001.75 158.599C1002.07 158.599 1002.39 158.476 1002.63 158.232C1002.82 158.048 1002.93 157.822 1002.98 157.585C1002.99 157.506 1003 157.426 1003 157.346C1003 157.026 1002.88 156.705 1002.63 156.46L996.138 149.966Z" fill="url(#paint23_linear_130_20998)"/>
<path d="M1071 201.992C1070.34 203.417 1069.61 204.805 1068.82 206.153C1067.25 208.86 1065.45 211.411 1063.43 213.78C1061.33 216.262 1059.01 218.545 1056.49 220.599L1019.66 183.392C1017.45 181.153 1017.45 177.521 1019.66 175.282C1019.76 175.182 1019.86 175.089 1019.96 175C1022.09 173.132 1025.26 173.132 1027.38 175C1027.48 175.089 1027.58 175.182 1027.68 175.282C1027.78 175.381 1027.88 175.487 1027.96 175.593H1027.97C1028.03 175.596 1028.1 175.6 1028.17 175.603C1028.29 175.613 1028.43 175.62 1028.58 175.63C1029.35 175.679 1030.41 175.762 1031.64 175.875C1032 175.908 1032.39 175.944 1032.78 175.984C1033.07 176.014 1033.36 176.04 1033.66 176.073C1033.91 176.1 1034.17 176.126 1034.43 176.153C1034.62 176.173 1034.81 176.196 1035 176.216C1035.31 176.249 1035.62 176.285 1035.93 176.322C1037.41 176.494 1038.94 176.69 1040.41 176.909C1040.61 176.938 1040.81 176.968 1041 177.001C1041.03 177.004 1041.07 177.008 1041.1 177.015C1041.32 177.051 1041.55 177.087 1041.77 177.121C1042 177.16 1042.22 177.197 1042.43 177.233C1042.58 177.26 1042.72 177.283 1042.86 177.31C1043.08 177.349 1043.3 177.389 1043.52 177.432C1043.63 177.452 1043.74 177.472 1043.84 177.492C1044.06 177.538 1044.28 177.581 1044.49 177.625C1044.55 177.638 1044.61 177.651 1044.68 177.664C1044.76 177.684 1044.85 177.704 1044.93 177.721C1044.97 177.727 1045.01 177.737 1045.05 177.747C1045.17 177.777 1045.29 177.803 1045.4 177.83C1045.48 177.85 1045.56 177.87 1045.64 177.886C1045.94 177.966 1046.23 178.042 1046.5 178.118C1046.56 178.138 1046.62 178.158 1046.68 178.174C1046.73 178.188 1046.78 178.204 1046.82 178.217C1046.89 178.241 1046.96 178.264 1047.02 178.284C1047.04 178.29 1047.07 178.297 1047.09 178.307C1047.22 178.353 1047.34 178.396 1047.46 178.443C1047.47 178.446 1047.48 178.453 1047.49 178.456C1047.55 178.482 1047.61 178.509 1047.67 178.532C1047.81 178.595 1047.94 178.655 1048.05 178.718C1048.1 178.747 1048.14 178.774 1048.18 178.801C1048.32 178.89 1048.43 178.98 1048.5 179.069C1048.52 179.092 1048.53 179.119 1048.55 179.142C1048.55 179.148 1048.55 179.152 1048.55 179.155C1048.57 179.185 1048.58 179.215 1048.59 179.248C1048.6 179.277 1048.6 179.307 1048.6 179.337L1071 201.992Z" fill="url(#paint24_linear_130_20998)"/>
<path d="M1027.73 183.599C1025.67 183.599 1024 181.808 1024 179.599C1024 177.39 1025.67 175.599 1027.73 175.599C1029.79 175.599 1049 177.39 1049 179.599C1049 181.808 1029.79 183.599 1027.73 183.599Z" fill="url(#paint25_linear_130_20998)"/>
<path d="M1028 175.823C1028 177.908 1026.21 179.599 1024 179.599C1021.79 179.599 1020 177.908 1020 175.823C1020 173.738 1021.79 143.599 1024 143.599C1026.21 143.599 1028 173.738 1028 175.823Z" fill="url(#paint26_linear_130_20998)"/>
<path d="M1023.5 184.599C1026.54 184.599 1029 182.136 1029 179.099C1029 176.061 1026.54 173.599 1023.5 173.599C1020.46 173.599 1018 176.061 1018 179.099C1018 182.136 1020.46 184.599 1023.5 184.599Z" fill="white"/>
<path d="M1092.57 170.338H1086.52H1086.24C1081.85 139.992 1055.59 116.599 1023.95 116.599C989.237 116.599 961 144.741 961 179.334C961 193.608 965.94 207.579 974.909 218.672C983.744 229.598 996.125 237.34 1009.77 240.472C1010.14 240.558 1010.52 240.599 1010.89 240.599C1013.14 240.599 1015.18 239.054 1015.7 236.772C1016.32 234.118 1014.65 231.471 1011.99 230.86C1000.5 228.222 990.065 221.696 982.615 212.483C974.949 203.002 970.897 191.539 970.897 179.335C970.897 150.181 994.694 126.463 1023.95 126.463C1050.12 126.463 1071.93 145.455 1076.22 170.338H1071C1067.06 170.338 1065.09 175.088 1067.87 177.866L1078.66 188.612C1080.38 190.334 1083.19 190.334 1084.91 188.612L1095.7 177.866C1098.48 175.088 1096.51 170.338 1092.57 170.338Z" fill="url(#paint27_linear_130_20998)"/>
<path d="M1139.01 164.574C1136.03 164.574 1134.14 161.844 1134.14 157.119C1134.14 152.674 1136.03 150.084 1139.01 150.084C1142.02 150.084 1143.87 152.674 1143.87 157.119C1143.87 161.844 1142.02 164.574 1139.01 164.574ZM1146.6 175.039C1148.42 175.039 1149.86 174.689 1150.73 174.234L1149.79 170.349C1149.09 170.559 1148.21 170.699 1147.23 170.699C1145.34 170.699 1143.31 170.139 1142.26 168.564C1146.64 167.234 1149.44 163.174 1149.44 157.119C1149.44 149.664 1145.2 145.394 1139.01 145.394C1132.81 145.394 1128.58 149.629 1128.58 157.119C1128.58 163.524 1131.73 167.724 1136.52 168.774C1138.2 172.414 1141.63 175.039 1146.6 175.039ZM1158.48 169.019C1160.83 169.019 1162.47 167.934 1163.91 166.219H1164.05L1164.43 168.599H1168.84V151.204H1163.42V162.614C1162.47 163.909 1161.74 164.399 1160.51 164.399C1159.11 164.399 1158.48 163.699 1158.48 161.284V151.204H1153.06V161.984C1153.06 166.324 1154.67 169.019 1158.48 169.019ZM1173.26 168.599H1178.65V151.204H1173.26V168.599ZM1175.96 148.754C1177.74 148.754 1179 147.669 1179 145.954C1179 144.274 1177.74 143.189 1175.96 143.189C1174.17 143.189 1172.91 144.274 1172.91 145.954C1172.91 147.669 1174.17 148.754 1175.96 148.754ZM1190.74 169.019C1192.59 169.019 1194.8 168.494 1196.48 166.954L1194.38 163.559C1193.5 164.224 1192.52 164.644 1191.37 164.644C1189.23 164.644 1187.62 162.789 1187.62 159.884C1187.62 157.014 1189.13 155.124 1191.54 155.124C1192.31 155.124 1192.98 155.369 1193.78 155.964L1196.3 152.639C1195.01 151.519 1193.36 150.784 1191.23 150.784C1186.4 150.784 1182.09 154.109 1182.09 159.884C1182.09 165.659 1185.84 169.019 1190.74 169.019ZM1199.48 168.599H1204.83V164.294L1206.83 161.984L1210.61 168.599H1216.49L1210.01 158.449L1216.07 151.204H1210.12L1204.94 157.784H1204.83V144.134H1199.48V168.599ZM1129.63 210.599H1136.49C1143.14 210.599 1147.72 206.994 1147.72 199.119C1147.72 191.209 1143.14 187.814 1136.17 187.814H1129.63V210.599ZM1135.09 206.224V192.189H1135.86C1139.53 192.189 1142.16 193.694 1142.16 199.119C1142.16 204.509 1139.53 206.224 1135.86 206.224H1135.09ZM1159.33 211.019C1161.4 211.019 1163.78 210.354 1165.6 209.059L1163.85 205.804C1162.62 206.504 1161.36 206.889 1160.1 206.889C1157.9 206.889 1156.25 205.874 1155.76 203.529H1166.02C1166.12 203.039 1166.23 202.129 1166.23 201.149C1166.23 196.424 1163.78 192.784 1158.74 192.784C1154.57 192.784 1150.51 196.249 1150.51 201.884C1150.51 207.694 1154.36 211.019 1159.33 211.019ZM1155.69 199.889C1156.04 197.859 1157.34 196.879 1158.88 196.879C1160.84 196.879 1161.61 198.174 1161.61 199.889H1155.69ZM1174.61 211.019C1175.8 211.019 1176.71 210.809 1177.3 210.564L1176.67 206.574C1176.39 206.644 1176.25 206.644 1176.04 206.644C1175.62 206.644 1175.06 206.294 1175.06 205.174V186.134H1169.67V204.964C1169.67 208.604 1170.9 211.019 1174.61 211.019ZM1179.83 210.599H1185.22V193.204H1179.83V210.599ZM1182.52 190.754C1184.31 190.754 1185.57 189.669 1185.57 187.954C1185.57 186.274 1184.31 185.189 1182.52 185.189C1180.74 185.189 1179.48 186.274 1179.48 187.954C1179.48 189.669 1180.74 190.754 1182.52 190.754ZM1193.66 210.599H1199.92L1205.52 193.204H1200.34L1198.21 201.219C1197.79 202.934 1197.33 204.754 1196.88 206.574H1196.74C1196.32 204.754 1195.86 202.934 1195.44 201.219L1193.27 193.204H1187.85L1193.66 210.599ZM1215.69 211.019C1217.76 211.019 1220.14 210.354 1221.96 209.059L1220.21 205.804C1218.98 206.504 1217.72 206.889 1216.46 206.889C1214.26 206.889 1212.61 205.874 1212.12 203.529H1222.38C1222.48 203.039 1222.59 202.129 1222.59 201.149C1222.59 196.424 1220.14 192.784 1215.1 192.784C1210.93 192.784 1206.87 196.249 1206.87 201.884C1206.87 207.694 1210.72 211.019 1215.69 211.019ZM1212.05 199.889C1212.4 197.859 1213.7 196.879 1215.24 196.879C1217.2 196.879 1217.97 198.174 1217.97 199.889H1212.05ZM1226.04 210.599H1231.43V200.659C1232.34 198.349 1233.91 197.509 1235.21 197.509C1235.98 197.509 1236.36 197.579 1236.99 197.719L1238.01 193.134C1237.52 192.889 1236.92 192.784 1235.91 192.784C1234.16 192.784 1232.23 193.869 1230.97 196.214H1230.83L1230.45 193.204H1226.04V210.599ZM1242.53 217.319C1246.69 217.319 1248.55 215.114 1250.26 210.634L1256.25 193.204H1251.07L1249.07 200.414C1248.62 202.059 1248.27 203.704 1247.88 205.349H1247.74C1247.29 203.634 1246.9 202.024 1246.41 200.414L1244.03 193.204H1238.61L1245.29 210.109L1245.05 210.949C1244.63 212.209 1243.79 213.084 1242.11 213.084C1241.76 213.084 1241.51 213.049 1240.95 212.909L1240.01 216.899C1240.71 217.179 1241.41 217.319 1242.53 217.319Z" fill="url(#paint28_linear_130_20998)"/>
</g>
<defs>
<filter id="filter0_dd_130_20998" x="0" y="0.598633" width="1394" height="410" filterUnits="userSpaceOnUse" color-interpolation-filters="sRGB">
<feFlood flood-opacity="0" result="BackgroundImageFix"/>
<feColorMatrix in="SourceAlpha" type="matrix" values="0 0 0 0 0 0 0 0 0 0 0 0 0 0 0 0 0 0 127 0" result="hardAlpha"/>
<feOffset dy="27"/>
<feGaussianBlur stdDeviation="41"/>
<feColorMatrix type="matrix" values="0 0 0 0 1 0 0 0 0 0.680498 0 0 0 0 0 0 0 0 0.28 0"/>
<feBlend mode="normal" in2="BackgroundImageFix" result="effect1_dropShadow_130_20998"/>
<feColorMatrix in="SourceAlpha" type="matrix" values="0 0 0 0 0 0 0 0 0 0 0 0 0 0 0 0 0 0 127 0" result="hardAlpha"/>
<feOffset dy="14"/>
<feGaussianBlur stdDeviation="7.5"/>
<feColorMatrix type="matrix" values="0 0 0 0 1 0 0 0 0 0.680498 0 0 0 0 0 0 0 0 0.01 0"/>
<feBlend mode="normal" in2="effect1_dropShadow_130_20998" result="effect2_dropShadow_130_20998"/>
<feBlend mode="normal" in="SourceGraphic" in2="effect2_dropShadow_130_20998" result="shape"/>
</filter>
<linearGradient id="paint0_linear_130_20998" x1="199.502" y1="124.766" x2="259.935" y2="214.134" gradientUnits="userSpaceOnUse">
<stop stop-color="white"/>
<stop offset="1" stop-color="white" stop-opacity="0"/>
</linearGradient>
<linearGradient id="paint1_linear_130_20998" x1="187.295" y1="215.08" x2="165.05" y2="192.835" gradientUnits="userSpaceOnUse">
<stop stop-color="#FDC347" stop-opacity="0"/>
<stop offset="1" stop-color="#F59500"/>
</linearGradient>
<linearGradient id="paint2_linear_130_20998" x1="210.913" y1="234.514" x2="176.666" y2="200.266" gradientUnits="userSpaceOnUse">
<stop stop-color="#FDC347" stop-opacity="0"/>
<stop offset="1" stop-color="#F59500"/>
</linearGradient>
<linearGradient id="paint3_linear_130_20998" x1="226.497" y1="246.564" x2="192.599" y2="212.664" gradientUnits="userSpaceOnUse">
<stop stop-color="#FDC347" stop-opacity="0"/>
<stop offset="1" stop-color="#F59500"/>
</linearGradient>
<linearGradient id="paint4_linear_130_20998" x1="185.06" y1="192.813" x2="185.06" y2="259.534" gradientUnits="userSpaceOnUse">
<stop stop-color="white"/>
<stop offset="1" stop-color="#E2EDF2"/>
</linearGradient>
<linearGradient id="paint5_linear_130_20998" x1="219.626" y1="162.511" x2="165.275" y2="132.251" gradientUnits="userSpaceOnUse">
<stop stop-color="#FDC347"/>
<stop offset="1" stop-color="#F59500"/>
</linearGradient>
<linearGradient id="paint6_linear_130_20998" x1="176" y1="132.099" x2="192" y2="154.599" gradientUnits="userSpaceOnUse">
<stop stop-color="#FF7A7A"/>
<stop offset="1" stop-color="#F75900"/>
</linearGradient>
<linearGradient id="paint7_linear_130_20998" x1="236.671" y1="32.2985" x2="526.845" y2="58.1987" gradientUnits="userSpaceOnUse">
<stop stop-color="#FB3C00"/>
<stop offset="1" stop-color="#FFB800"/>
</linearGradient>
<linearGradient id="paint8_linear_130_20998" x1="634.5" y1="194.599" x2="634.5" y2="246.599" gradientUnits="userSpaceOnUse">
<stop stop-color="white"/>
<stop offset="0.71875" stop-color="#F0F0F0"/>
<stop offset="1" stop-color="#E0E0E0"/>
</linearGradient>
<linearGradient id="paint9_linear_130_20998" x1="657.915" y1="226.82" x2="638.977" y2="211.426" gradientUnits="userSpaceOnUse">
<stop stop-color="#FEFEFE" stop-opacity="0"/>
<stop offset="1" stop-color="#D7D7D7"/>
</linearGradient>
<linearGradient id="paint10_linear_130_20998" x1="619.978" y1="140.273" x2="661.991" y2="182.247" gradientUnits="userSpaceOnUse">
<stop stop-color="#FFC851"/>
<stop offset="1" stop-color="#FFAE00"/>
</linearGradient>
<linearGradient id="paint11_linear_130_20998" x1="643.972" y1="143.519" x2="616.545" y2="170.922" gradientUnits="userSpaceOnUse">
<stop stop-color="#FFCB5B"/>
<stop offset="1" stop-color="#FAAE0B"/>
</linearGradient>
<linearGradient id="paint12_linear_130_20998" x1="681.545" y1="32.2985" x2="905.185" y2="47.6332" gradientUnits="userSpaceOnUse">
<stop stop-color="#FB3C00"/>
<stop offset="1" stop-color="#FFB800"/>
</linearGradient>
<linearGradient id="paint13_linear_130_20998" x1="1025.82" y1="181.424" x2="1094.41" y2="250.016" gradientUnits="userSpaceOnUse">
<stop stop-color="white"/>
<stop offset="1" stop-color="#C3C3C3"/>
</linearGradient>
<linearGradient id="paint14_linear_130_20998" x1="1044.94" y1="180.946" x2="988.697" y2="174.696" gradientUnits="userSpaceOnUse">
<stop stop-color="#C3C3C3" stop-opacity="0"/>
<stop offset="0.267" stop-color="#A4A4A4" stop-opacity="0.267"/>
<stop offset="0.542" stop-color="#8B8B8B" stop-opacity="0.542"/>
<stop offset="0.794" stop-color="#7C7C7C" stop-opacity="0.794"/>
<stop offset="1" stop-color="#777777"/>
</linearGradient>
<linearGradient id="paint15_linear_130_20998" x1="1024" y1="178.132" x2="1024" y2="187.085" gradientUnits="userSpaceOnUse">
<stop stop-color="#F18D00"/>
<stop offset="1" stop-color="#ED7103"/>
</linearGradient>
<linearGradient id="paint16_linear_130_20998" x1="1020.95" y1="142.972" x2="1024.78" y2="149.022" gradientUnits="userSpaceOnUse">
<stop stop-color="#FF7A7A"/>
<stop offset="1" stop-color="#F75900"/>
</linearGradient>
<linearGradient id="paint17_linear_130_20998" x1="1020.95" y1="214.419" x2="1025.23" y2="220.664" gradientUnits="userSpaceOnUse">
<stop stop-color="#FF7A7A"/>
<stop offset="1" stop-color="#F75900"/>
</linearGradient>
<linearGradient id="paint18_linear_130_20998" x1="1048.46" y1="178.942" x2="1048.54" y2="181.056" gradientUnits="userSpaceOnUse">
<stop stop-color="#FF7A7A"/>
<stop offset="1" stop-color="#F75900"/>
</linearGradient>
<linearGradient id="paint19_linear_130_20998" x1="977.808" y1="178.942" x2="977.891" y2="181.055" gradientUnits="userSpaceOnUse">
<stop stop-color="#FF7A7A"/>
<stop offset="1" stop-color="#F75900"/>
</linearGradient>
<linearGradient id="paint20_linear_130_20998" x1="1040.51" y1="153.628" x2="1041.39" y2="159.852" gradientUnits="userSpaceOnUse">
<stop stop-color="#FF7A7A"/>
<stop offset="1" stop-color="#F75900"/>
</linearGradient>
<linearGradient id="paint21_linear_130_20998" x1="990.856" y1="204.076" x2="992.057" y2="210.92" gradientUnits="userSpaceOnUse">
<stop stop-color="#FF7A7A"/>
<stop offset="1" stop-color="#F75900"/>
</linearGradient>
<linearGradient id="paint22_linear_130_20998" x1="1040.51" y1="204.076" x2="1041.59" y2="210.959" gradientUnits="userSpaceOnUse">
<stop stop-color="#FF7A7A"/>
<stop offset="1" stop-color="#F75900"/>
</linearGradient>
<linearGradient id="paint23_linear_130_20998" x1="990.856" y1="153.628" x2="991.835" y2="159.823" gradientUnits="userSpaceOnUse">
<stop stop-color="#FF7A7A"/>
<stop offset="1" stop-color="#F75900"/>
</linearGradient>
<linearGradient id="paint24_linear_130_20998" x1="1044.34" y1="191.593" x2="1021.18" y2="166.449" gradientUnits="userSpaceOnUse">
<stop stop-color="#C3C3C3" stop-opacity="0"/>
<stop offset="0.267" stop-color="#A4A4A4" stop-opacity="0.267"/>
<stop offset="0.542" stop-color="#8B8B8B" stop-opacity="0.542"/>
<stop offset="0.794" stop-color="#7C7C7C" stop-opacity="0.794"/>
<stop offset="1" stop-color="#777777"/>
</linearGradient>
<linearGradient id="paint25_linear_130_20998" x1="1041.98" y1="178.147" x2="961.36" y2="185.585" gradientUnits="userSpaceOnUse">
<stop stop-color="#FFB92D"/>
<stop offset="1" stop-color="#F59500"/>
</linearGradient>
<linearGradient id="paint26_linear_130_20998" x1="1032.05" y1="194.956" x2="1039.72" y2="225.601" gradientUnits="userSpaceOnUse">
<stop stop-color="#FFB92D"/>
<stop offset="1" stop-color="#F59500"/>
</linearGradient>
<linearGradient id="paint27_linear_130_20998" x1="972.769" y1="130.781" x2="1071.74" y2="227.647" gradientUnits="userSpaceOnUse">
<stop stop-color="#FFCD61"/>
<stop offset="1" stop-color="#FFAE00"/>
</linearGradient>
<linearGradient id="paint28_linear_130_20998" x1="1069.9" y1="32.2985" x2="1320.23" y2="51.535" gradientUnits="userSpaceOnUse">
<stop stop-color="#FB3C00"/>
<stop offset="1" stop-color="#FFB800"/>
</linearGradient>
<clipPath id="clip0_130_20998">
<rect width="136" height="136" fill="white" transform="translate(137 110.599)"/>
</clipPath>
<clipPath id="clip1_130_20998">
<rect width="136" height="136" fill="white" transform="translate(566.5 110.599)"/>
</clipPath>
</defs>
</svg>
