<svg width="160" height="53" viewBox="0 0 160 53" fill="none" xmlns="http://www.w3.org/2000/svg">
<rect x="0.668091" y="0.173828" width="159" height="52" rx="9.06977" fill="white"/>
<path d="M89.9011 17.4726C89.7533 17.4736 89.7437 17.4369 89.8724 17.3625C92.2419 15.9966 94.6465 14.6914 96.8565 13.1006C98.1234 12.1895 99.3025 10.9641 98.9675 9.27116C98.9648 9.25845 98.9592 9.24652 98.9511 9.23638C98.9431 9.22624 98.9327 9.21817 98.921 9.21286C98.9093 9.20755 98.8965 9.20515 98.8838 9.20585C98.8711 9.20656 98.8587 9.21035 98.8478 9.21691L84.8701 17.4343C84.8473 17.4473 84.8291 17.4672 84.8179 17.4912C84.8068 17.5151 84.8033 17.5421 84.8079 17.5683L85.419 21.0451C85.4216 21.0602 85.4296 21.0739 85.4416 21.0839C85.4535 21.0938 85.4687 21.0993 85.4844 21.0993C90.0256 21.1089 94.9087 21.1073 100.134 21.0946C101.595 21.0898 102.708 21.3116 103.842 22.1732C107.108 24.6528 106.604 29.5624 102.947 31.3942C102.263 31.7356 101.541 31.9074 100.78 31.9095C95.6975 31.9202 90.6511 31.9202 85.6408 31.9095C85.606 31.9092 85.5725 31.8966 85.5459 31.8739C85.5194 31.8511 85.5016 31.8197 85.4956 31.7851L81.5241 9.29829C81.5184 9.26344 81.5003 9.23176 81.4731 9.20895C81.4459 9.18614 81.4114 9.17369 81.3757 9.17383H77.9371C77.9258 9.17391 77.9147 9.17644 77.9045 9.18124C77.8942 9.18604 77.8852 9.19301 77.8779 9.20165C77.8706 9.2103 77.8653 9.22041 77.8623 9.23131C77.8593 9.24221 77.8587 9.25363 77.8605 9.26478L82.4879 35.4326C82.5006 35.5071 82.5448 35.5443 82.6203 35.5443L86.0285 35.5427C86.0466 35.5426 86.0645 35.5385 86.0808 35.5307C86.0971 35.5229 86.1115 35.5115 86.1229 35.4975C86.1344 35.4835 86.1426 35.4671 86.1469 35.4495C86.1513 35.432 86.1517 35.4137 86.1482 35.3959L86.0238 34.7784C86.0208 34.7654 86.0225 34.7517 86.0286 34.7397C86.0347 34.7278 86.0448 34.7183 86.0571 34.713C86.0694 34.7077 86.0832 34.7069 86.096 34.7107C86.1089 34.7145 86.12 34.7226 86.1275 34.7338L86.5743 35.3768C86.6106 35.4299 86.6594 35.4732 86.7165 35.503C86.7735 35.5328 86.837 35.548 86.9014 35.5475C90.9372 35.5326 95.1635 35.5347 99.5802 35.5539C100.784 35.5592 101.711 35.5018 102.361 35.3816C107.491 34.429 110.711 29.0853 109.283 24.0815C108.179 20.2154 104.776 17.4885 100.657 17.4789C97.0086 17.4694 93.4232 17.4672 89.9011 17.4726Z" stroke="#FACDAB" stroke-width="0.319122"/>
<path d="M60.1461 17.4601C59.9961 17.4601 59.9865 17.4229 60.1173 17.3485C61.4257 16.606 62.7905 15.8161 64.2117 14.979C65.8329 14.0248 67.3854 13.0786 68.5454 11.7335C69.1209 11.0655 69.3464 10.2746 69.222 9.36088C69.2028 9.2194 69.1315 9.18483 69.0081 9.25717L55.1613 17.3963C55.1201 17.4207 55.0873 17.457 55.0673 17.5003C55.0474 17.5437 55.0412 17.592 55.0496 17.6389L55.6336 20.98C55.6393 21.0149 55.6574 21.0466 55.6846 21.0694C55.7118 21.0922 55.7463 21.1046 55.782 21.1045C61.1316 21.1013 66.1754 21.1024 70.9133 21.1077C74.9694 21.1109 77.5527 25.6121 75.555 29.1543C74.8348 30.4308 73.7716 31.2812 72.3653 31.7057C71.8867 31.8503 71.2995 31.9221 70.6038 31.9211C65.5499 31.9158 60.6189 31.9131 55.8107 31.9131C55.7565 31.9131 55.7246 31.8865 55.715 31.8333L53.1875 17.5766C53.1823 17.547 53.1666 17.5202 53.1432 17.5009C53.1199 17.4817 53.0904 17.4712 53.0599 17.4713H49.658C49.6476 17.4714 49.6372 17.4738 49.6277 17.4782C49.6183 17.4826 49.6099 17.489 49.6032 17.4969C49.5965 17.5048 49.5917 17.514 49.589 17.5239C49.5864 17.5339 49.586 17.5442 49.5878 17.5543L52.1153 31.7934C52.1181 31.8084 52.1176 31.8239 52.1137 31.8386C52.1099 31.8534 52.1029 31.8671 52.0931 31.8789C52.0834 31.8906 52.0711 31.9 52.0573 31.9065C52.0435 31.913 52.0284 31.9163 52.0132 31.9163L48.948 31.9147C48.935 31.9146 48.9222 31.9117 48.9104 31.9063C48.8987 31.901 48.8882 31.8932 48.8798 31.8835C48.8713 31.8738 48.865 31.8625 48.8614 31.8503C48.8577 31.838 48.8568 31.8252 48.8586 31.8126C49.0804 30.201 49.0038 28.757 48.7022 27.0784C48.0863 23.65 47.5321 20.4828 47.0396 17.5766C47.0347 17.5472 47.0195 17.5204 46.9967 17.5011C46.9739 17.4819 46.945 17.4713 46.9151 17.4713L43.5213 17.4697C43.4149 17.4697 43.3707 17.5224 43.3888 17.6277C43.9164 20.7083 44.4744 23.8574 45.0626 27.0752C45.3083 28.4198 45.4195 29.4585 45.3961 30.1915C45.2621 34.4772 42.0134 37.9876 37.7658 38.4902C34.8762 38.8316 32.0024 37.6014 30.1994 35.358C26.6204 30.9047 28.1905 24.2686 33.4417 21.9693C35.0054 21.2853 36.6085 21.1018 38.2509 21.4188C38.2587 21.4206 38.2667 21.4203 38.2744 21.4182C38.282 21.416 38.289 21.412 38.2947 21.4064C38.3004 21.4009 38.3047 21.394 38.307 21.3864C38.3094 21.3789 38.3099 21.3708 38.3084 21.363C38.103 20.245 37.8993 19.0887 37.6972 17.8942C37.6674 17.7208 37.5627 17.6325 37.3829 17.6293C33.9151 17.574 30.9765 18.6675 28.5671 20.9098C27.7778 21.6438 27.1113 22.4459 26.5678 23.316C22.909 29.1751 24.6881 36.8228 30.5935 40.4368C33.3938 42.1505 36.9345 42.6355 40.1337 41.7181C43.7462 40.6809 46.6949 38.0306 48.1055 34.5251C48.1092 34.5159 48.1153 34.5079 48.1232 34.5019C48.1312 34.496 48.1406 34.4923 48.1504 34.4913C48.1603 34.4903 48.1703 34.492 48.1792 34.4963C48.1882 34.5006 48.1958 34.5072 48.2012 34.5155L48.7358 35.3564C48.7677 35.4064 48.8129 35.4394 48.8714 35.4553C49.0767 35.5085 49.2745 35.5351 49.4649 35.5351C51.7786 35.5468 54.0327 35.5479 56.2272 35.5383C56.25 35.5384 56.2725 35.5329 56.2927 35.5225C56.313 35.512 56.3304 35.4968 56.3436 35.4782C56.3567 35.4596 56.3652 35.4381 56.3682 35.4155C56.3713 35.3929 56.3689 35.3699 56.3612 35.3484C56.2846 35.1346 56.2458 34.9357 56.2448 34.7517C56.2437 34.6389 56.2756 34.6283 56.3405 34.7198L56.8463 35.425C56.8739 35.464 56.9105 35.4956 56.9531 35.5173C56.9956 35.539 57.0427 35.55 57.0904 35.5495C61.0338 35.5325 65.1164 35.5346 69.3384 35.5559C70.8351 35.5633 71.8989 35.5059 72.5297 35.3835C78.3298 34.2523 81.5067 28.0039 78.9553 22.6028C77.7601 20.0706 75.4401 18.2404 72.7196 17.6644C72.0239 17.5176 70.9931 17.449 69.6272 17.4585C66.5881 17.4798 63.4277 17.4804 60.1461 17.4601Z" stroke="#FACDAB" stroke-width="0.319122"/>
<path d="M43.5276 12.6349C43.5276 12.0767 43.3059 11.5414 42.9112 11.1467C42.5165 10.752 41.9812 10.5303 41.423 10.5303C40.8648 10.5303 40.3295 10.752 39.9348 11.1467C39.5401 11.5414 39.3184 12.0767 39.3184 12.6349C39.3184 13.193 39.5401 13.7284 39.9348 14.123C40.3295 14.5177 40.8648 14.7395 41.423 14.7395C41.9812 14.7395 42.5165 14.5177 42.9112 14.123C43.3059 13.7284 43.5276 13.193 43.5276 12.6349Z" stroke="#B7E0EB" stroke-width="0.319122"/>
<path d="M125.784 22.4962C125.456 22.5186 125.142 22.5281 124.842 22.5249C124.062 22.517 123.598 22.5505 123.159 23.1536C122.624 23.8892 122.868 24.8848 123.606 25.3667C123.812 25.5018 124.161 25.572 124.652 25.5773C125.569 25.5848 126.497 25.572 127.435 25.539" stroke="#FACDAB" stroke-width="0.319122"/>
<path d="M127.435 25.5383L127.542 26.4542" stroke="#B7E0EB" stroke-width="0.319122"/>
<path d="M127.542 26.4544C125.696 26.4522 123.856 26.4522 122.021 26.4544C121.488 26.4554 121.082 26.623 120.804 26.957C120.164 27.7261 120.387 28.918 121.276 29.3472C121.521 29.4653 121.949 29.5232 122.56 29.5211C123.916 29.5168 125.288 29.5211 126.679 29.5339" stroke="#FACDAB" stroke-width="0.319122"/>
<path d="M126.679 29.5343C126.462 29.8066 126.247 30.0624 126.034 30.3018C124.868 31.6144 123.413 32.2676 121.667 32.2612C119.546 32.2527 117.472 32.2484 115.444 32.2484C114.999 32.2484 114.396 32.2133 114.018 32.3761C112.961 32.8292 112.92 33.8392 113.175 34.8078C113.449 35.8433 114.19 36.0763 115.179 36.0731C117.711 36.0614 120.151 36.0555 122.498 36.0555C125.094 36.0555 127.271 35.1359 129.029 33.2967C130.031 32.2479 130.721 30.9948 131.097 29.5375" stroke="#B7E0EB" stroke-width="0.319122"/>
<path d="M131.097 29.537C131.419 29.5231 131.752 29.5162 132.096 29.5162C132.563 29.5162 132.89 29.4811 133.079 29.4109C134.378 28.9291 134.429 27.1356 133.222 26.5931C132.736 26.3729 132.005 26.4431 131.438 26.4479C131.391 26.449 131.358 26.433 131.34 26.4" stroke="#FACDAB" stroke-width="0.319122"/>
<path d="M131.34 26.4006L131.18 25.5533" stroke="#B7E0EB" stroke-width="0.319122"/>
<path d="M131.18 25.5528C132.337 25.5709 133.488 25.5783 134.631 25.5752C135.073 25.573 135.406 25.5289 135.632 25.4427C136.477 25.1156 136.769 24.0498 136.316 23.2775C136.008 22.7509 135.525 22.4882 134.867 22.4893C133.344 22.4903 131.837 22.4967 130.345 22.5084" stroke="#FACDAB" stroke-width="0.319122"/>
<path d="M130.345 22.5082C129.138 19.9122 126.794 18.0054 124.04 17.3417C123.318 17.1683 122.394 17.0858 121.266 17.0943C119.521 17.1071 117.796 17.1279 116.095 17.1007C115.704 17.0943 115.42 17.131 115.243 17.2108C114.574 17.5108 114.225 18.1522 114.282 18.875C114.394 20.2871 114.992 20.9062 116.411 20.911C117.894 20.9174 119.345 20.9089 120.764 20.8855C121.908 20.8653 122.784 20.9435 123.392 21.12C124.265 21.3732 125.062 21.8317 125.784 22.4955" stroke="#B7E0EB" stroke-width="0.319122"/>
<path d="M130.345 22.509L125.784 22.4962" stroke="#B2AE97" stroke-width="0.319122"/>
<path d="M131.18 25.5527L127.435 25.5383" stroke="#B2AE97" stroke-width="0.319122"/>
<path d="M131.34 26.4L127.542 26.4543" stroke="#B2AE97" stroke-width="0.319122"/>
<path d="M131.097 29.5375L126.679 29.5343" stroke="#B2AE97" stroke-width="0.319122"/>
<path d="M121.799 23.8983C121.799 23.6156 121.687 23.3445 121.487 23.1446C121.287 22.9447 121.016 22.8324 120.733 22.8324H120.159C119.876 22.8324 119.605 22.9447 119.405 23.1446C119.205 23.3445 119.093 23.6156 119.093 23.8983V24.0833C119.093 24.366 119.205 24.6371 119.405 24.837C119.605 25.0369 119.876 25.1492 120.159 25.1492H120.733C121.016 25.1492 121.287 25.0369 121.487 24.837C121.687 24.6371 121.799 24.366 121.799 24.0833V23.8983Z" stroke="#FACDAB" stroke-width="0.319122"/>
<path d="M118.335 24.1126C118.335 23.8003 118.211 23.5008 117.99 23.28C117.769 23.0591 117.47 22.9351 117.158 22.9351C116.845 22.9351 116.546 23.0591 116.325 23.28C116.104 23.5008 115.98 23.8003 115.98 24.1126C115.98 24.4249 116.104 24.7244 116.325 24.9453C116.546 25.1661 116.845 25.2902 117.158 25.2902C117.47 25.2902 117.769 25.1661 117.99 24.9453C118.211 24.7244 118.335 24.4249 118.335 24.1126Z" stroke="#FACDAB" stroke-width="0.319122"/>
<path d="M119.385 28.138C119.385 27.8261 119.261 27.527 119.041 27.3065C118.82 27.0859 118.521 26.962 118.209 26.962C117.897 26.962 117.598 27.0859 117.378 27.3065C117.157 27.527 117.033 27.8261 117.033 28.138C117.033 28.4499 117.157 28.749 117.378 28.9695C117.598 29.1901 117.897 29.314 118.209 29.314C118.521 29.314 118.82 29.1901 119.041 28.9695C119.261 28.749 119.385 28.4499 119.385 28.138Z" stroke="#FACDAB" stroke-width="0.319122"/>
<path d="M119.1 40.9692C119.1 40.669 119.04 40.3716 118.925 40.0942C118.811 39.8168 118.642 39.5648 118.43 39.3524C118.218 39.1401 117.965 38.9717 117.688 38.8568C117.411 38.7419 117.113 38.6827 116.813 38.6827C116.513 38.6827 116.215 38.7419 115.938 38.8568C115.661 38.9717 115.409 39.1401 115.196 39.3524C114.984 39.5648 114.815 39.8168 114.701 40.0942C114.586 40.3716 114.526 40.669 114.526 40.9692C114.526 41.5757 114.767 42.1572 115.196 42.586C115.625 43.0148 116.207 43.2557 116.813 43.2557C117.419 43.2557 118.001 43.0148 118.43 42.586C118.859 42.1572 119.1 41.5757 119.1 40.9692Z" stroke="#B7E0EB" stroke-width="0.319122"/>
<path d="M126.877 40.9714C126.877 40.365 126.636 39.7834 126.207 39.3546C125.778 38.9258 125.196 38.6849 124.59 38.6849C123.984 38.6849 123.402 38.9258 122.973 39.3546C122.544 39.7834 122.303 40.365 122.303 40.9714C122.303 41.5779 122.544 42.1594 122.973 42.5882C123.402 43.017 123.984 43.2579 124.59 43.2579C125.196 43.2579 125.778 43.017 126.207 42.5882C126.636 42.1594 126.877 41.5779 126.877 40.9714Z" stroke="#B7E0EB" stroke-width="0.319122"/>
<path d="M53.2289 41.7815C53.2289 41.2237 53.0074 40.6888 52.613 40.2944C52.2186 39.9 51.6837 39.6785 51.1259 39.6785C50.5682 39.6785 50.0332 39.9 49.6389 40.2944C49.2445 40.6888 49.0229 41.2237 49.0229 41.7815C49.0229 42.3392 49.2445 42.8741 49.6389 43.2685C50.0332 43.6629 50.5682 43.8845 51.1259 43.8845C51.6837 43.8845 52.2186 43.6629 52.613 43.2685C53.0074 42.8741 53.2289 42.3392 53.2289 41.7815Z" stroke="#B7E0EB" stroke-width="0.319122"/>
<path d="M58.4451 41.9146C58.4451 41.3569 58.2235 40.822 57.8291 40.4276C57.4347 40.0332 56.8998 39.8116 56.342 39.8116C55.7843 39.8116 55.2494 40.0332 54.855 40.4276C54.4606 40.822 54.239 41.3569 54.239 41.9146C54.239 42.1908 54.2934 42.4643 54.3991 42.7194C54.5048 42.9746 54.6597 43.2064 54.855 43.4017C55.0503 43.597 55.2821 43.7519 55.5372 43.8576C55.7924 43.9633 56.0659 44.0176 56.342 44.0176C56.6182 44.0176 56.8917 43.9633 57.1468 43.8576C57.402 43.7519 57.6338 43.597 57.8291 43.4017C58.0244 43.2064 58.1793 42.9746 58.285 42.7194C58.3907 42.4643 58.4451 42.1908 58.4451 41.9146Z" stroke="#B7E0EB" stroke-width="0.319122"/>
<path d="M89.3983 17.2726C92.8933 17.2674 96.4511 17.2695 100.072 17.2788C104.158 17.2882 107.536 19.949 108.631 23.7216C110.048 28.6042 106.853 33.8185 101.763 34.748C101.118 34.8653 100.198 34.9214 99.0029 34.9162C94.6202 34.8975 90.4265 34.8954 86.4216 34.91C86.3578 34.9105 86.2948 34.8955 86.2382 34.8665C86.1816 34.8374 86.1331 34.7952 86.0971 34.7434L85.6537 34.1159C85.6463 34.105 85.6353 34.0971 85.6225 34.0934C85.6097 34.0897 85.5961 34.0905 85.5839 34.0957C85.5716 34.1008 85.5616 34.1101 85.5556 34.1217C85.5496 34.1334 85.5479 34.1467 85.5508 34.1595L85.6743 34.762C85.6778 34.7794 85.6774 34.7972 85.673 34.8144C85.6687 34.8315 85.6606 34.8475 85.6492 34.8611C85.6379 34.8748 85.6236 34.8859 85.6074 34.8935C85.5912 34.9011 85.5735 34.9052 85.5555 34.9053L82.1735 34.9068C82.0986 34.9068 82.0548 34.8705 82.0421 34.7978L77.4504 9.26355C77.4485 9.25267 77.4491 9.24153 77.4521 9.2309C77.4551 9.22026 77.4604 9.21039 77.4676 9.20196C77.4748 9.19352 77.4838 9.18672 77.494 9.18204C77.5041 9.17735 77.5152 9.17488 77.5264 9.17481H80.9385C80.9739 9.17467 81.0082 9.18682 81.0352 9.20908C81.0622 9.23134 81.0801 9.26225 81.0858 9.29625L85.0267 31.2386C85.0326 31.2724 85.0503 31.3031 85.0766 31.3253C85.103 31.3475 85.1363 31.3598 85.1708 31.3601C90.1425 31.3704 95.1501 31.3704 100.194 31.3601C100.948 31.358 101.665 31.1904 102.344 30.8572C105.973 29.0698 106.473 24.279 103.232 21.8594C102.106 21.0187 101.003 20.8023 99.5524 20.8069C94.3674 20.8194 89.5218 20.8209 85.0156 20.8116C85 20.8115 84.985 20.8062 84.9731 20.7965C84.9612 20.7868 84.9533 20.7734 84.9507 20.7587L84.3443 17.366C84.3397 17.3405 84.3432 17.3142 84.3542 17.2908C84.3653 17.2674 84.3834 17.248 84.406 17.2352L98.2762 9.21685C98.287 9.21044 98.2993 9.20674 98.3119 9.20605C98.3246 9.20536 98.3372 9.20771 98.3488 9.21289C98.3605 9.21808 98.3707 9.22595 98.3787 9.23584C98.3868 9.24574 98.3923 9.25738 98.3949 9.26978C98.7274 10.9217 97.5573 12.1175 96.3002 13.0065C94.1072 14.5588 91.7211 15.8324 89.3698 17.1652C89.2421 17.2378 89.2516 17.2736 89.3983 17.2726Z" fill="#F49B57"/>
<path d="M59.873 17.2599C63.1294 17.2796 66.2655 17.2791 69.2813 17.2584C70.6366 17.249 71.6595 17.316 72.3498 17.4592C75.0494 18.0213 77.3516 19.8071 78.5375 22.278C81.0693 27.5484 77.9169 33.6455 72.1614 34.7494C71.5354 34.8687 70.4799 34.9248 68.9947 34.9175C64.8052 34.8968 60.7539 34.8947 56.8409 34.9113C56.7936 34.9118 56.7468 34.901 56.7046 34.8799C56.6624 34.8587 56.626 34.8278 56.5987 34.7898L56.0967 34.1017C56.0323 34.0124 56.0007 34.0228 56.0017 34.1328C56.0028 34.3124 56.0413 34.5065 56.1173 34.7151C56.1249 34.7361 56.1273 34.7585 56.1243 34.7805C56.1212 34.8026 56.1128 34.8236 56.0998 34.8417C56.0867 34.8599 56.0694 34.8747 56.0493 34.8849C56.0292 34.8951 56.0069 34.9004 55.9843 34.9004C53.8067 34.9097 51.5699 34.9087 49.2741 34.8973C49.0851 34.8973 48.8888 34.8713 48.6851 34.8194C48.627 34.8039 48.5822 34.7717 48.5505 34.7229L48.0201 33.9024C48.0147 33.8943 48.0071 33.8878 47.9982 33.8836C47.9894 33.8794 47.9795 33.8778 47.9697 33.8787C47.9599 33.8797 47.9506 33.8833 47.9427 33.8891C47.9348 33.8949 47.9287 33.9027 47.9251 33.9117C46.5254 37.3324 43.5994 39.9185 40.0147 40.9305C36.84 41.8258 33.3266 41.3525 30.5478 39.6803C24.6878 36.1537 22.9224 28.6912 26.553 22.974C27.0924 22.1249 27.7537 21.3423 28.537 20.6261C30.9278 18.438 33.8438 17.371 37.285 17.425C37.4634 17.4281 37.5673 17.5142 37.5969 17.6834C37.7974 18.8491 37.9996 19.9774 38.2033 21.0683C38.2048 21.0759 38.2044 21.0838 38.202 21.0912C38.1996 21.0986 38.1954 21.1053 38.1898 21.1107C38.1841 21.1161 38.1772 21.12 38.1696 21.1221C38.162 21.1242 38.154 21.1245 38.1463 21.1228C36.5165 20.8134 34.9258 20.9925 33.3741 21.6599C28.1633 23.9035 26.6053 30.379 30.1567 34.7245C31.9459 36.9136 34.7975 38.114 37.665 37.7808C41.8798 37.2903 45.1035 33.865 45.2365 29.683C45.2598 28.9678 45.1495 27.9542 44.9056 26.6422C44.3219 23.5023 43.7682 20.4294 43.2447 17.4234C43.2267 17.3206 43.2705 17.2693 43.3761 17.2693L46.7439 17.2708C46.7735 17.2708 46.8022 17.2811 46.8248 17.2999C46.8474 17.3187 46.8625 17.3448 46.8674 17.3736C47.3561 20.2093 47.9061 23.2999 48.5172 26.6453C48.8165 28.2833 48.8925 29.6923 48.6724 31.2649C48.6706 31.2772 48.6715 31.2897 48.6752 31.3016C48.6788 31.3136 48.685 31.3246 48.6934 31.3341C48.7018 31.3435 48.7122 31.3511 48.7238 31.3564C48.7355 31.3616 48.7482 31.3644 48.7611 31.3645L51.8027 31.3661C51.8178 31.3661 51.8328 31.3628 51.8465 31.3565C51.8602 31.3502 51.8723 31.341 51.882 31.3295C51.8917 31.3181 51.8987 31.3047 51.9025 31.2903C51.9063 31.2759 51.9068 31.2608 51.904 31.2462L49.396 17.3518C49.3942 17.342 49.3946 17.3319 49.3972 17.3222C49.3998 17.3125 49.4047 17.3035 49.4113 17.2958C49.4179 17.2881 49.4262 17.2818 49.4356 17.2775C49.445 17.2732 49.4553 17.2709 49.4657 17.2708H52.8414C52.8716 17.2707 52.9009 17.2809 52.9241 17.2997C52.9472 17.3185 52.9628 17.3447 52.968 17.3736L55.4761 31.2851C55.4856 31.337 55.5172 31.363 55.5711 31.363C60.3422 31.363 65.2353 31.3655 70.2503 31.3707C70.9406 31.3718 71.5233 31.3017 71.9983 31.1605C73.3938 30.7464 74.4488 29.9165 75.1634 28.671C77.1458 25.2145 74.5823 20.8223 70.5575 20.8192C65.856 20.814 60.851 20.8129 55.5426 20.816C55.5072 20.8162 55.4729 20.804 55.4459 20.7818C55.4189 20.7595 55.401 20.7286 55.3953 20.6946L54.8158 17.4343C54.8074 17.3886 54.8135 17.3414 54.8334 17.2991C54.8532 17.2568 54.8857 17.2214 54.9266 17.1976L68.6669 9.25554C68.7894 9.18496 68.8601 9.2187 68.8791 9.35675C69.0026 10.2484 68.7788 11.0201 68.2078 11.672C67.0567 12.9845 65.5161 13.9078 63.9074 14.8388C62.4972 15.6557 61.1429 16.4264 59.8445 17.1509C59.7147 17.2236 59.7242 17.2599 59.873 17.2599Z" fill="#F49B57"/>
<path d="M41.2956 14.6053C42.449 14.6053 43.384 13.6859 43.384 12.5517C43.384 11.4175 42.449 10.498 41.2956 10.498C40.1422 10.498 39.2072 11.4175 39.2072 12.5517C39.2072 13.6859 40.1422 14.6053 41.2956 14.6053Z" fill="#6FC1D6"/>
<path d="M129.532 22.1857L125.005 22.1733C124.289 21.5256 123.498 21.0782 122.631 20.8312C122.029 20.6589 121.159 20.5826 120.024 20.6023C118.616 20.6251 117.176 20.6334 115.704 20.6272C114.297 20.6225 113.703 20.0184 113.592 18.6405C113.535 17.9352 113.882 17.3093 114.545 17.0166C114.721 16.9387 115.002 16.9029 115.391 16.9092C117.079 16.9356 118.79 16.9154 120.522 16.9029C121.641 16.8946 122.559 16.9751 123.274 17.1443C126.007 17.792 128.333 19.6525 129.532 22.1857Z" fill="#6FC1D6"/>
<path d="M129.531 22.1876C131.011 22.1762 132.506 22.17 134.018 22.1689C134.67 22.1679 135.149 22.4243 135.455 22.9381C135.905 23.6917 135.615 24.7317 134.776 25.0509C134.552 25.135 134.222 25.1781 133.783 25.1801C132.649 25.1832 131.507 25.176 130.359 25.1583L126.643 25.1443C125.712 25.1765 124.791 25.1889 123.881 25.1817C123.394 25.1765 123.047 25.108 122.843 24.9762C122.111 24.506 121.869 23.5344 122.399 22.8166C122.835 22.2281 123.295 22.1954 124.07 22.2032C124.367 22.2063 124.679 22.197 125.004 22.1752L129.531 22.1876Z" fill="#F49B57"/>
<path d="M119.995 22.5029H119.425C118.841 22.5029 118.367 22.9686 118.367 23.543V23.7236C118.367 24.298 118.841 24.7636 119.425 24.7636H119.995C120.579 24.7636 121.053 24.298 121.053 23.7236V23.543C121.053 22.9686 120.579 22.5029 119.995 22.5029Z" fill="#F49B57"/>
<path d="M116.446 24.8997C117.091 24.8997 117.614 24.3852 117.614 23.7506C117.614 23.116 117.091 22.6016 116.446 22.6016C115.801 22.6016 115.277 23.116 115.277 23.7506C115.277 24.3852 115.801 24.8997 116.446 24.8997Z" fill="#F49B57"/>
<path d="M130.361 25.1565L130.519 25.9832L126.751 26.0362L126.645 25.1425L130.361 25.1565Z" fill="#6FC1D6"/>
<path d="M130.518 25.9844C130.536 26.0166 130.569 26.0321 130.616 26.0311C131.178 26.0264 131.903 25.9579 132.386 26.1728C133.583 26.7021 133.533 28.4522 132.244 28.9224C132.057 28.9909 131.732 29.0251 131.268 29.0251C130.927 29.0251 130.597 29.0319 130.277 29.0454L125.893 29.0423C124.513 29.0298 123.151 29.0257 121.806 29.0298C121.199 29.0319 120.774 28.9753 120.532 28.8601C119.65 28.4413 119.428 27.2782 120.063 26.5278C120.34 26.2018 120.742 26.0383 121.271 26.0373C123.092 26.0352 124.918 26.0352 126.749 26.0373L130.518 25.9844Z" fill="#F49B57"/>
<path d="M117.491 28.8272C118.136 28.8272 118.658 28.3135 118.658 27.6797C118.658 27.046 118.136 26.5322 117.491 26.5322C116.847 26.5322 116.324 27.046 116.324 27.6797C116.324 28.3135 116.847 28.8272 117.491 28.8272Z" fill="#F49B57"/>
<path d="M125.893 29.042L130.277 29.0451C129.903 30.4671 129.219 31.6899 128.225 32.7133C126.48 34.508 124.32 35.4053 121.744 35.4053C119.415 35.4053 116.994 35.411 114.482 35.4224C113.5 35.4256 112.765 35.1982 112.493 34.1878C112.24 33.2427 112.281 32.2571 113.329 31.815C113.704 31.6561 114.303 31.6904 114.744 31.6904C116.756 31.6904 118.815 31.6945 120.919 31.7028C122.652 31.7091 124.096 31.0718 125.253 29.7909C125.464 29.5573 125.677 29.3077 125.893 29.042Z" fill="#6FC1D6"/>
<path d="M116.105 42.432C117.358 42.432 118.374 41.4331 118.374 40.2009C118.374 38.9686 117.358 37.9697 116.105 37.9697C114.852 37.9697 113.836 38.9686 113.836 40.2009C113.836 41.4331 114.852 42.432 116.105 42.432Z" fill="#6FC1D6"/>
<path d="M123.82 42.433C125.073 42.433 126.089 41.4341 126.089 40.2018C126.089 38.9696 125.073 37.9707 123.82 37.9707C122.567 37.9707 121.551 38.9696 121.551 40.2018C121.551 41.4341 122.567 42.433 123.82 42.433Z" fill="#6FC1D6"/>
<path d="M50.9229 43.0456C52.0755 43.0456 53.0098 42.1268 53.0098 40.9935C53.0098 39.8602 52.0755 38.9414 50.9229 38.9414C49.7704 38.9414 48.8361 39.8602 48.8361 40.9935C48.8361 42.1268 49.7704 43.0456 50.9229 43.0456Z" fill="#6FC1D6"/>
<path d="M56.0987 43.1745C57.2512 43.1745 58.1855 42.2557 58.1855 41.1224C58.1855 39.9891 57.2512 39.0703 56.0987 39.0703C54.9462 39.0703 54.0118 39.9891 54.0118 41.1224C54.0118 42.2557 54.9462 43.1745 56.0987 43.1745Z" fill="#6FC1D6"/>
</svg>
