<svg width="166" height="53" viewBox="0 0 166 53" fill="none" xmlns="http://www.w3.org/2000/svg">
<path fill-rule="evenodd" clip-rule="evenodd" d="M9.36716 0.092041H156.079C159.339 0.092041 160.519 0.457257 161.711 1.13551C162.888 1.80281 163.85 2.83453 164.473 4.09637C165.105 5.37463 165.446 6.63984 165.446 10.1224V42.2353C165.446 45.7179 165.105 46.9831 164.473 48.2614C163.85 49.5232 162.888 50.555 161.711 51.2222C160.519 51.9005 159.339 52.2657 156.091 52.2657H9.355C6.1069 52.2657 4.92689 51.9005 3.7347 51.2222C2.55783 50.555 1.59558 49.5232 0.973212 48.2614C0.340624 46.9831 0 45.7179 0 42.2353V10.1224C0 6.63984 0.340624 5.37463 0.973212 4.09637C1.59558 2.83453 2.55783 1.80281 3.7347 1.13551C4.92689 0.457257 6.1069 0.092041 9.355 0.092041H9.36716Z" fill="black"/>
<path fill-rule="evenodd" clip-rule="evenodd" d="M19.1719 38.9222L19.3179 38.9614C19.2685 38.9516 19.2198 38.9385 19.1719 38.9222ZM39.9743 24.0527C40.5217 24.3788 40.8624 24.8093 40.9719 25.2527L40.9962 25.4223C40.9475 25.9179 40.5947 26.4136 39.9621 26.7919L20.7412 38.4918C20.3519 38.7396 19.9748 38.844 19.6464 38.844C19.3057 38.844 19.0138 38.7266 18.7705 38.5048L18.6975 38.4266C18.3786 38.0142 18.2177 37.4874 18.2474 36.9527V13.8919C18.2474 13.1876 18.442 12.6528 18.7705 12.3267C19.0138 12.105 19.3057 11.9876 19.6464 11.9876C19.9748 11.9876 20.3519 12.105 20.7412 12.3397L39.9621 24.0527H39.9743ZM19.6342 11.8311H19.8045H19.6342ZM131.31 38.3875H133.573V22.0832H131.31V38.3875ZM151.748 27.9527L149.144 35.0223H149.071L146.371 27.9527H143.925L147.976 37.8396L145.665 43.3309H148.037L154.278 27.9527H151.748ZM138.877 36.5353C138.135 36.5353 137.101 36.144 137.101 35.1527C137.101 33.8875 138.39 33.4049 139.497 33.4049C140.507 33.4049 140.969 33.6397 141.578 33.9527C141.495 34.6607 141.176 35.3126 140.679 35.7876C140.183 36.2625 139.542 36.5282 138.877 36.5353ZM139.157 27.6005C137.502 27.6005 135.811 28.3832 135.106 30.0918L137.113 31.0049C137.551 30.0918 138.354 29.8049 139.181 29.8049C140.361 29.8049 141.553 30.5484 141.578 31.8918V32.0614C140.847 31.6466 140.032 31.4316 139.205 31.4353C137.04 31.4353 134.826 32.7136 134.826 35.1005C134.826 37.2918 136.614 38.7005 138.597 38.7005C140.13 38.7005 140.969 37.957 141.505 37.0962H141.578V38.3614H143.767V32.1005C143.767 29.2179 141.748 27.6005 139.145 27.6005H139.157ZM125.118 29.9484H121.894V24.3397H125.118C126.821 24.3397 127.795 25.8527 127.795 27.144C127.795 28.4092 126.821 29.9353 125.118 29.9353V29.9484ZM125.07 22.0832H119.62V38.3875H121.894V32.2049H125.057C127.576 32.2049 130.045 30.2484 130.045 27.144C130.045 24.0397 127.576 22.0832 125.057 22.0832H125.07ZM95.3987 36.5353C93.8416 36.5353 92.5277 35.1266 92.5277 33.1962C92.5277 31.2397 93.8416 29.8049 95.3987 29.8049C96.9558 29.8049 98.1724 31.2397 98.1724 33.1962C98.1724 35.1266 96.9558 36.5353 95.3987 36.5353ZM98.0142 28.8658H97.9291C97.5832 28.4633 97.1612 28.1446 96.6913 27.9309C96.2214 27.7173 95.7143 27.6135 95.2041 27.6266C93.8649 27.6809 92.5982 28.2932 91.6736 29.3334C90.7489 30.3735 90.2392 31.7593 90.2529 33.1962C90.2426 34.6282 90.7545 36.0079 91.6795 37.041C92.6044 38.0742 93.8692 38.679 95.2041 38.7266C95.7168 38.7407 96.2262 38.6349 96.6968 38.4164C97.1674 38.1979 97.5879 37.872 97.9291 37.4614H98.0142V38.257C98.0142 40.3831 96.9559 41.5179 95.2527 41.5179C94.6834 41.5062 94.1303 41.3125 93.6643 40.9616C93.1983 40.6107 92.8407 40.1186 92.6372 39.5483L90.6665 40.4222C91.0378 41.3982 91.673 42.2327 92.4903 42.8184C93.3076 43.4042 94.2697 43.7144 95.2527 43.7092C97.9169 43.7092 100.167 42.0135 100.167 37.9309V27.9658H98.0142V28.8788V28.8658ZM101.737 38.3875H104.012V22.0832H101.737V38.3875ZM107.357 33.0005C107.332 32.5971 107.383 32.1924 107.506 31.8102C107.629 31.428 107.822 31.076 108.074 30.7748C108.325 30.4735 108.63 30.2291 108.971 30.0559C109.311 29.8826 109.681 29.784 110.058 29.7658C110.97 29.7658 111.737 30.2484 111.98 30.9397L107.357 33.0136V33.0005ZM114.413 31.1614C113.987 29.9223 112.673 27.6397 109.985 27.6397C107.321 27.6397 105.107 29.8701 105.107 33.1701C105.107 36.2875 107.296 38.7266 110.24 38.7266C112.612 38.7266 113.987 37.1614 114.559 36.2614L112.795 35.0092C112.529 35.4793 112.154 35.8671 111.706 36.1347C111.258 36.4022 110.753 36.5403 110.24 36.5353C109.085 36.5353 108.257 35.9744 107.734 34.8527L114.656 31.7875L114.413 31.1614ZM59.3047 29.3353V31.6831H64.5479C64.4722 32.7857 64.0523 33.8288 63.3557 34.644C62.8286 35.2199 62.1945 35.6707 61.4946 35.9673C60.7947 36.2639 60.0445 36.3996 59.2926 36.3657C58.5302 36.3641 57.7757 36.2003 57.0727 35.884C56.3697 35.5676 55.7322 35.1049 55.1971 34.5227C54.6619 33.9404 54.2398 33.2502 53.9551 32.4919C53.6704 31.7336 53.5288 30.9223 53.5385 30.1049C53.5241 28.8912 53.8433 27.6998 54.4562 26.6794C55.0691 25.6589 55.9486 24.8544 56.9851 24.3662C58.0215 23.878 59.1691 23.7277 60.2846 23.9341C61.4002 24.1404 62.4344 24.6943 63.2584 25.5266L64.8034 23.8701C64.0783 23.1012 63.2174 22.4952 62.2711 22.0876C61.3249 21.68 60.3122 21.4789 59.2926 21.4962C57.1518 21.496 55.0969 22.3988 53.5718 24.0096C52.0467 25.6204 51.1739 27.8098 51.1419 30.1049C51.1739 32.4 52.0467 34.5894 53.5718 36.2002C55.0969 37.811 57.1518 38.7138 59.2926 38.7135C61.6891 38.7135 63.4895 37.8788 64.9007 36.3005C66.1797 34.802 66.8609 32.8263 66.7985 30.7962C66.7985 30.2484 66.762 29.7527 66.6768 29.3353H59.2926H59.3047ZM72.7715 36.5353C71.2022 36.5353 69.8519 35.1527 69.8519 33.1701C69.8519 31.1744 71.2022 29.8179 72.7715 29.8179C74.353 29.8179 75.6912 31.1744 75.6912 33.1701C75.6912 35.1527 74.353 36.5353 72.7715 36.5353ZM72.7715 27.6266C72.0883 27.6144 71.4097 27.7492 70.7759 28.0231C70.1421 28.297 69.566 28.7045 69.0816 29.2213C68.5973 29.7382 68.2146 30.354 67.9562 31.0322C67.6977 31.7105 67.5688 32.4375 67.577 33.1701C67.5672 33.9038 67.6949 34.6322 67.9526 35.312C68.2103 35.9917 68.5927 36.6091 69.0772 37.1274C69.5617 37.6456 70.1384 38.0542 70.773 38.329C71.4076 38.6037 72.0873 38.7389 72.7715 38.7266C73.4558 38.7389 74.1355 38.6037 74.7701 38.329C75.4047 38.0542 75.9814 37.6456 76.4659 37.1274C76.9504 36.6091 77.3328 35.9917 77.5905 35.312C77.8482 34.6322 77.9759 33.9038 77.9661 33.1701C77.9743 32.4375 77.8454 31.7105 77.5869 31.0322C77.3285 30.354 76.9458 29.7382 76.4614 29.2213C75.9771 28.7045 75.401 28.297 74.7672 28.0231C74.1334 27.7492 73.4548 27.6144 72.7715 27.6266ZM84.1095 36.5353C82.528 36.5353 81.1898 35.1527 81.1898 33.1701C81.1898 31.1744 82.528 29.8179 84.1095 29.8179C85.6666 29.8179 87.0291 31.1744 87.0291 33.1701C87.0291 35.1527 85.6666 36.5353 84.1095 36.5353ZM84.1095 27.6266C83.4262 27.6144 82.7476 27.7492 82.1138 28.0231C81.48 28.297 80.9039 28.7045 80.4196 29.2213C79.9352 29.7382 79.5525 30.354 79.2941 31.0322C79.0356 31.7105 78.9067 32.4375 78.9149 33.1701C78.9051 33.9038 79.0328 34.6322 79.2905 35.312C79.5482 35.9917 79.9306 36.6091 80.4151 37.1274C80.8996 37.6456 81.4763 38.0542 82.1109 38.329C82.7456 38.6037 83.4252 38.7389 84.1095 38.7266C84.7937 38.7389 85.4734 38.6037 86.108 38.329C86.7426 38.0542 87.3193 37.6456 87.8038 37.1274C88.2883 36.6091 88.6707 35.9917 88.9284 35.312C89.1861 34.6322 89.3139 33.9038 89.304 33.1701C89.3122 32.4375 89.1833 31.7105 88.9248 31.0322C88.6664 30.354 88.2837 29.7382 87.7994 29.2213C87.315 28.7045 86.7389 28.297 86.1051 28.0231C85.4713 27.7492 84.7927 27.6144 84.1095 27.6266Z" fill="white"/>
<path fill-rule="evenodd" clip-rule="evenodd" d="M57.8452 13.305C57.8452 14.2833 57.5776 15.0659 57.0301 15.6529C56.4219 16.3442 55.6068 16.6963 54.6214 16.6963C53.6726 16.6963 52.8575 16.3442 52.1884 15.6398C51.8669 15.3001 51.6136 14.8934 51.4441 14.4447C51.2747 13.9961 51.1926 13.515 51.203 13.0311C51.203 11.9877 51.5315 11.1007 52.2006 10.3964C52.8575 9.69202 53.6604 9.33984 54.6214 9.33984C55.0837 9.33984 55.5338 9.44419 55.9596 9.63984C56.3975 9.83549 56.7382 10.0964 56.9936 10.4224L56.4097 11.0355C56.1903 10.7599 55.9152 10.5416 55.6054 10.3969C55.2955 10.2523 54.9591 10.1852 54.6214 10.2007C53.928 10.2007 53.3319 10.4616 52.821 10.9833C52.3222 11.5051 52.0668 12.1833 52.0668 13.0181C52.0668 13.8529 52.3101 14.5311 52.821 15.0529C53.3319 15.5746 53.9159 15.8355 54.6214 15.8355C55.3513 15.8355 55.9596 15.5746 56.4462 15.0529C56.7625 14.7007 56.9571 14.2311 57.0058 13.6181H54.6214V12.7703H57.7965C57.833 12.9529 57.8452 13.1355 57.8452 13.292" fill="white"/>
<path fill-rule="evenodd" clip-rule="evenodd" d="M57.845 13.305H57.7355C57.7355 14.2702 57.4679 15.0006 56.9569 15.5746C56.3487 16.2398 55.5823 16.5789 54.6212 16.5789C53.6967 16.5789 52.9181 16.2398 52.2733 15.5615C51.9579 15.2318 51.7097 14.8355 51.5442 14.3978C51.3788 13.96 51.2998 13.4902 51.3123 13.018C51.3123 12.0007 51.6286 11.1659 52.2855 10.4746C52.5898 10.1436 52.9539 9.88268 53.3556 9.70775C53.7572 9.53282 54.1878 9.44756 54.6212 9.45719C55.0713 9.45719 55.5093 9.5485 55.9229 9.74415C56.3365 9.9398 56.6528 10.1876 56.9083 10.5007L56.9934 10.4224L56.9083 10.3441L56.3365 10.9572L56.4095 11.0354L56.4946 10.9702C56.0445 10.3833 55.3998 10.0833 54.6212 10.0833C53.8913 10.0833 53.2709 10.3572 52.7478 10.905C52.2247 11.4398 51.957 12.1572 51.957 13.018C51.957 13.8789 52.2247 14.5833 52.7478 15.1311C53.2709 15.6789 53.9035 15.9528 54.6212 15.9528C55.3755 15.9528 56.0202 15.6789 56.5311 15.1311C56.8718 14.7659 57.0664 14.2572 57.1151 13.6311V13.5007H54.7429V12.8876H57.8085V12.7702L57.699 12.7963C57.7355 12.9659 57.7477 13.1354 57.7477 13.305H57.9666C57.9666 13.1224 57.9545 12.9398 57.918 12.7572L57.9058 12.6528H54.4996V13.7354H56.9934V13.618H56.8718C56.8353 14.205 56.6528 14.6485 56.3608 14.9615C55.8864 15.4702 55.3146 15.718 54.6091 15.718C53.94 15.718 53.3682 15.4572 52.8816 14.9615C52.395 14.4659 52.1517 13.8267 52.1517 13.018C52.1517 12.2094 52.395 11.5833 52.8816 11.0615C53.3682 10.5659 53.94 10.3181 54.6091 10.3181C55.339 10.3181 55.8986 10.5789 56.3122 11.1137L56.3973 11.2181L57.0542 10.5007L57.1272 10.4355L57.0664 10.3441C56.775 9.98357 56.4082 9.702 55.9959 9.52241C55.5611 9.32441 55.0936 9.22238 54.6212 9.22241C53.648 9.22241 52.7964 9.58763 52.1274 10.3181C51.7926 10.6662 51.5282 11.0843 51.3503 11.5465C51.1724 12.0087 51.085 12.5051 51.0933 13.005C51.0933 14.0746 51.4339 14.9876 52.1274 15.718C52.4527 16.0706 52.8416 16.3484 53.2704 16.5345C53.6991 16.7207 54.1588 16.8112 54.6212 16.8006C55.6309 16.8006 56.4703 16.4354 57.1029 15.718L57.0299 15.6398L57.1029 15.7311C57.6747 15.118 57.9545 14.2963 57.9545 13.292H57.845V13.305ZM62.8935 10.3572H59.9009V12.6007H62.6016V13.4354H59.9009V15.6789H62.8935V16.5398H59.0615V9.49632H62.8935V10.3572Z" fill="white"/>
<path fill-rule="evenodd" clip-rule="evenodd" d="M62.8935 10.3574V10.24H59.7914V12.7183H62.4921V13.3183H59.7914V15.7965H62.7841V16.4226H59.171V9.61393H62.7841V10.3574H62.8935V10.24V10.3705H63.003V9.37915H58.952V16.6574H63.003V15.5617H60.0104V13.553H62.7111V12.4835H60.0104V10.4748H63.003V10.3574H62.8814H62.8935ZM66.4458 16.54H65.6064V10.3574H63.7816V9.49654H68.2827V10.3574H66.4579V16.54" fill="white"/>
<path fill-rule="evenodd" clip-rule="evenodd" d="M66.446 16.54V16.4226H65.7161V10.24H63.8913V9.61393H68.1734V10.24H66.3487V16.54H66.446V16.4226V16.553H66.5676V10.4748H68.3924V9.37915H63.6602V10.4748H65.4971V16.6574H66.5555V16.54H66.446ZM71.5553 16.54H72.4069V9.49654H71.5553V16.54Z" fill="white"/>
<path fill-rule="evenodd" clip-rule="evenodd" d="M71.5552 16.54H71.6647V9.62698H72.2851V16.4226H71.5552V16.553H71.6647H71.543V16.6574H72.5162V9.37915H71.4457V16.6574H71.5552V16.54ZM76.1414 16.54H75.2899V10.3574H73.4651V9.49654H77.9662V10.3574H76.1414V16.54Z" fill="white"/>
<path fill-rule="evenodd" clip-rule="evenodd" d="M76.1412 16.5399V16.4225H75.4113V10.2399H73.5744V9.61386H77.8565V10.2399H76.0317V16.5399H76.1412V16.4225V16.553H76.2507V10.4747H78.0755V9.37907H73.3554V10.4747H75.1802V16.6573H76.2507V16.5399H76.1291H76.1412ZM82.3211 15.0399C82.8077 15.5617 83.416 15.8225 84.1094 15.8225C84.815 15.8225 85.4111 15.5617 85.8977 15.0399C86.3843 14.5182 86.6276 13.8399 86.6276 13.0182C86.6276 12.1965 86.3843 11.5312 85.8977 10.9965C85.4111 10.4747 84.815 10.2139 84.1094 10.2139C83.4038 10.2139 82.8077 10.4747 82.3211 10.9965C81.8345 11.5182 81.5912 12.1965 81.5912 13.0182C81.5912 13.8399 81.8345 14.5182 82.3211 15.0399ZM86.5181 15.6269C85.8734 16.3443 85.0705 16.6964 84.1094 16.6964C83.1484 16.6964 82.3455 16.3443 81.7007 15.6269C81.3837 15.2842 81.1341 14.8767 80.9669 14.4285C80.7998 13.9804 80.7183 13.5008 80.7275 13.0182C80.7177 12.5367 80.7981 12.058 80.964 11.6104C81.1299 11.1628 81.3779 10.7555 81.6932 10.4125C82.0086 10.0695 82.3849 9.79787 82.7999 9.61364C83.2149 9.42941 83.6602 9.33634 84.1094 9.33994C84.5586 9.33634 85.0039 9.42941 85.4189 9.61364C85.8339 9.79787 86.2103 10.0695 86.5256 10.4125C86.841 10.7555 87.0889 11.1628 87.2548 11.6104C87.4207 12.058 87.5011 12.5367 87.4913 13.0182C87.4913 14.0486 87.1629 14.9225 86.5181 15.6269Z" fill="white"/>
<path fill-rule="evenodd" clip-rule="evenodd" d="M82.3213 15.0399L82.2483 15.1181C82.7593 15.666 83.3797 15.9529 84.1096 15.9529C84.8395 15.9529 85.4721 15.666 85.9709 15.1181C86.4818 14.5703 86.7373 13.866 86.7373 13.0312C86.7373 12.1703 86.4818 11.466 85.9709 10.9182C85.731 10.649 85.4419 10.4358 85.1216 10.2922C84.8013 10.1485 84.4567 10.0774 84.1096 10.0834C83.3797 10.0834 82.7593 10.3703 82.2483 10.9182C81.9949 11.1946 81.7964 11.5231 81.6647 11.884C81.5329 12.245 81.4708 12.6308 81.4819 13.0181C81.4819 13.866 81.7374 14.5834 82.2483 15.1181L82.4065 14.9616C82.1717 14.7062 81.988 14.4021 81.8667 14.0679C81.7454 13.7337 81.689 13.3765 81.7009 13.0181C81.7009 12.2355 81.9442 11.5834 82.4065 11.0747C82.6267 10.83 82.8916 10.6366 83.1846 10.5065C83.4776 10.3763 83.7925 10.3122 84.1096 10.3182C84.7908 10.3182 85.3504 10.579 85.8127 11.0747C86.2872 11.5964 86.5183 12.2225 86.5183 13.0312C86.5183 13.8138 86.275 14.4529 85.8127 14.9616C85.3504 15.4703 84.7908 15.7181 84.1096 15.7181C83.7925 15.7241 83.4776 15.66 83.1846 15.5298C82.8916 15.3997 82.6267 15.2062 82.4065 14.9616L82.3213 15.0399ZM86.5183 15.6268L86.4453 15.5486C85.8127 16.2399 85.0463 16.579 84.1096 16.592C83.6758 16.5939 83.2461 16.5026 82.8457 16.3235C82.4454 16.1444 82.0826 15.8811 81.7787 15.5492C81.4748 15.2173 81.236 14.8235 81.0764 14.391C80.9168 13.9585 80.8396 13.4962 80.8493 13.0312C80.8379 12.5651 80.9139 12.1013 81.0728 11.6674C81.2317 11.2334 81.4702 10.838 81.7743 10.5047C82.0783 10.1714 82.4417 9.90695 82.8428 9.72703C83.244 9.54711 83.6748 9.45538 84.1096 9.45729C85.0463 9.45729 85.8127 9.79642 86.4331 10.5008C87.0657 11.1921 87.382 12.0268 87.382 13.0181C87.382 14.0225 87.0657 14.8573 86.4453 15.5486L86.6034 15.7181C87.2604 14.9877 87.601 14.0747 87.601 13.0181C87.6108 12.5212 87.5275 12.0272 87.3561 11.5654C87.1847 11.1036 86.9287 10.6833 86.6032 10.3295C86.2777 9.97558 85.8893 9.69529 85.461 9.50515C85.0327 9.31502 84.5731 9.21891 84.1096 9.22251C83.6471 9.22066 83.1888 9.31806 82.762 9.50897C82.3351 9.69989 81.9481 9.98045 81.6239 10.3342C81.2997 10.6879 81.0448 11.1075 80.8741 11.5685C80.7035 12.0294 80.6206 12.5223 80.6303 13.0181C80.6303 14.0747 80.9588 14.9747 81.6279 15.7181C82.2848 16.4486 83.1242 16.8138 84.1096 16.8138C85.095 16.8138 85.9344 16.4486 86.6034 15.7181L86.5183 15.6268ZM88.6837 16.5399V9.49642H89.7056L92.8928 14.9747H92.9293L92.8928 13.6181V9.49642H93.7444V16.5399H92.8563L89.5109 10.8008H89.4744L89.5109 12.1573V16.5399H88.6715" fill="white"/>
<path fill-rule="evenodd" clip-rule="evenodd" d="M88.6835 16.54H88.7808V9.62698H89.6324L92.8318 15.1052H93.0386L93.0021 13.6183V9.61393H93.6225V16.4226H92.9169L89.5715 10.6835H89.3647L89.4012 12.1574V16.4226H88.6713V16.553H88.793H88.6713V16.6574H89.6202V12.1574L89.5837 10.7878H89.4742V10.9183H89.5107V10.7878L89.4256 10.8531L92.7953 16.6574H93.8415V9.37915H92.7831V13.6183L92.8196 14.9748H92.9291V14.8574H92.8926V14.9878L92.9899 14.9096L89.7662 9.37915H88.5618V16.6574H88.6835V16.54Z" fill="white"/>
</svg>
