<svg width="150" height="48" viewBox="0 0 150 48" fill="none" xmlns="http://www.w3.org/2000/svg">
<path d="M87.3082 11.9798C87.1126 11.9813 87.0999 11.9327 87.2702 11.8342C90.4053 10.0271 93.5867 8.30019 96.5107 6.19542C98.1869 4.98998 99.747 3.36866 99.3037 1.12878C99.3002 1.11196 99.2928 1.09618 99.2821 1.08276C99.2714 1.06934 99.2577 1.05867 99.2422 1.05165C99.2267 1.04462 99.2098 1.04144 99.193 1.04237C99.1761 1.0433 99.1598 1.04832 99.1453 1.05701L80.6518 11.9292C80.6216 11.9464 80.5975 11.9727 80.5828 12.0045C80.568 12.0362 80.5634 12.0718 80.5695 12.1065L81.378 16.7066C81.3815 16.7266 81.3921 16.7448 81.4079 16.7579C81.4237 16.771 81.4438 16.7783 81.4646 16.7784C87.4729 16.791 93.9337 16.7889 100.847 16.7721C102.781 16.7657 104.252 17.0592 105.753 18.1992C110.075 21.4798 109.408 27.9757 104.569 30.3992C103.664 30.851 102.708 31.0783 101.702 31.0811C94.9773 31.0952 88.3004 31.0952 81.6715 31.0811C81.6255 31.0807 81.5811 31.064 81.546 31.0339C81.5108 31.0038 81.4873 30.9622 81.4794 30.9164L76.2248 1.16467C76.2172 1.11856 76.1933 1.07665 76.1573 1.04647C76.1214 1.01629 76.0757 0.999815 76.0284 1H71.479C71.464 1.00011 71.4492 1.00345 71.4357 1.00981C71.4222 1.01616 71.4102 1.02538 71.4005 1.03681C71.3909 1.04825 71.3839 1.06164 71.3799 1.07606C71.376 1.09048 71.3752 1.10558 71.3776 1.12034L77.4999 35.7424C77.5168 35.8409 77.5752 35.8902 77.6751 35.8902L82.1845 35.8881C82.2084 35.8879 82.232 35.8825 82.2536 35.8721C82.2752 35.8618 82.2943 35.8468 82.3094 35.8282C82.3245 35.8097 82.3354 35.788 82.3411 35.7648C82.3469 35.7416 82.3475 35.7173 82.3428 35.6939L82.1782 34.8769C82.1743 34.8596 82.1765 34.8414 82.1846 34.8256C82.1926 34.8098 82.2059 34.7973 82.2222 34.7903C82.2385 34.7833 82.2568 34.7822 82.2738 34.7872C82.2908 34.7922 82.3055 34.803 82.3154 34.8178L82.9065 35.6685C82.9546 35.7388 83.0192 35.7961 83.0947 35.8355C83.1702 35.8749 83.2542 35.8951 83.3393 35.8944C88.679 35.8747 94.2707 35.8775 100.114 35.9029C101.708 35.9099 102.934 35.8339 103.794 35.6749C110.581 34.4145 114.842 27.3444 112.952 20.724C111.491 15.6088 106.988 12.001 101.539 11.9883C96.7119 11.9756 91.9682 11.9728 87.3082 11.9798Z" stroke="#FACDAB" stroke-width="0.422224"/>
<path d="M47.9399 11.9633C47.7415 11.9633 47.7288 11.914 47.9019 11.8155C49.633 10.8331 51.4388 9.78813 53.3191 8.6805C55.464 7.41806 57.5181 6.16618 59.0529 4.38652C59.8143 3.50267 60.1127 2.45627 59.948 1.24731C59.9227 1.06013 59.8284 1.01439 59.6651 1.11009L41.3447 11.8788C41.2902 11.9111 41.2468 11.9591 41.2204 12.0164C41.1939 12.0738 41.1858 12.1378 41.197 12.1997L41.9696 16.6204C41.9772 16.6665 42.0011 16.7084 42.0371 16.7386C42.073 16.7687 42.1188 16.7852 42.166 16.785C49.2439 16.7808 55.9172 16.7822 62.1858 16.7893C67.5523 16.7935 70.9703 22.7489 68.3271 27.4355C67.3743 29.1244 65.9676 30.2496 64.107 30.8112C63.4736 31.0026 62.6967 31.0976 61.7763 31.0962C55.0896 31.0892 48.5655 31.0856 42.204 31.0856C42.1322 31.0856 42.09 31.0505 42.0773 30.9801L38.7333 12.1174C38.7263 12.0782 38.7055 12.0427 38.6746 12.0172C38.6437 11.9917 38.6047 11.9778 38.5644 11.978H34.0634C34.0496 11.9782 34.0359 11.9813 34.0234 11.9871C34.0109 11.993 33.9998 12.0014 33.9909 12.0119C33.9821 12.0223 33.9757 12.0346 33.9722 12.0477C33.9686 12.0608 33.9681 12.0745 33.9706 12.0878L37.3146 30.9273C37.3183 30.9471 37.3176 30.9676 37.3125 30.9871C37.3075 31.0066 37.2982 31.0248 37.2853 31.0403C37.2723 31.0559 37.2562 31.0684 37.2379 31.0769C37.2196 31.0855 37.1997 31.0899 37.1795 31.0899L33.124 31.0878C33.1068 31.0876 33.0899 31.0838 33.0743 31.0767C33.0588 31.0696 33.0449 31.0593 33.0337 31.0465C33.0225 31.0337 33.0143 31.0187 33.0094 31.0025C33.0046 30.9863 33.0034 30.9693 33.0058 30.9526C33.2992 28.8204 33.1979 26.9099 32.7989 24.689C31.984 20.1529 31.2507 15.9624 30.5991 12.1174C30.5926 12.0784 30.5724 12.043 30.5423 12.0175C30.5121 11.992 30.4739 11.978 30.4344 11.978L25.944 11.9759C25.8033 11.9759 25.7449 12.0456 25.7688 12.1849C26.4669 16.2608 27.2051 20.4274 27.9834 24.6848C28.3085 26.4637 28.4556 27.8381 28.4246 28.8078C28.2473 34.4782 23.949 39.1226 18.3292 39.7876C14.5059 40.2394 10.7038 38.6117 8.31817 35.6435C3.5829 29.7514 5.66026 20.9713 12.608 17.9292C14.6769 17.0243 16.7979 16.7815 18.9709 17.2009C18.9812 17.2032 18.9919 17.2029 19.002 17.2C19.0121 17.1972 19.0214 17.1919 19.0289 17.1845C19.0365 17.1772 19.0421 17.1681 19.0452 17.1581C19.0484 17.148 19.049 17.1374 19.047 17.127C18.7753 15.6478 18.5058 14.118 18.2384 12.5375C18.199 12.3081 18.0603 12.1913 17.8225 12.187C13.2343 12.1139 9.3463 13.5607 6.15849 16.5275C5.11418 17.4986 4.23243 18.5598 3.51324 19.711C-1.32759 27.463 1.02632 37.5815 8.83963 42.3631C12.5447 44.6305 17.2293 45.2723 21.4621 44.0584C26.2417 42.6861 30.1431 39.1796 32.0093 34.5415C32.0142 34.5293 32.0223 34.5187 32.0328 34.5108C32.0433 34.5029 32.0557 34.4981 32.0688 34.4968C32.0819 34.4955 32.095 34.4978 32.1069 34.5034C32.1187 34.5091 32.1288 34.5179 32.136 34.5288L32.8432 35.6414C32.8854 35.7075 32.9452 35.7512 33.0226 35.7723C33.2943 35.8427 33.5561 35.8778 33.808 35.8778C36.8691 35.8933 39.8515 35.8947 42.755 35.8821C42.7851 35.8821 42.8149 35.8749 42.8417 35.8611C42.8685 35.8473 42.8915 35.8272 42.9089 35.8025C42.9263 35.7779 42.9375 35.7494 42.9416 35.7195C42.9457 35.6897 42.9425 35.6592 42.9323 35.6308C42.831 35.348 42.7796 35.0848 42.7782 34.8413C42.7768 34.6921 42.819 34.678 42.9049 34.7991L43.5741 35.7322C43.6106 35.7837 43.6591 35.8256 43.7153 35.8543C43.7716 35.8829 43.834 35.8975 43.8971 35.8968C49.1144 35.8743 54.5161 35.8771 60.1021 35.9053C62.0824 35.9151 63.4898 35.8391 64.3244 35.6773C71.9984 34.1805 76.2017 25.9134 72.826 18.7674C71.2447 15.417 68.1751 12.9956 64.5756 12.2335C63.6552 12.0393 62.2914 11.9485 60.4843 11.9612C56.4633 11.9893 52.2818 11.99 47.9399 11.9633Z" stroke="#FACDAB" stroke-width="0.422224"/>
<path d="M25.9525 5.57849C25.9525 4.83998 25.6591 4.13173 25.1369 3.60952C24.6147 3.08732 23.9064 2.79395 23.1679 2.79395C22.4294 2.79395 21.7211 3.08732 21.1989 3.60952C20.6767 4.13173 20.3833 4.83998 20.3833 5.57849C20.3833 6.317 20.6767 7.02525 21.1989 7.54746C21.7211 8.06966 22.4294 8.36304 23.1679 8.36304C23.9064 8.36304 24.6147 8.06966 25.1369 7.54746C25.6591 7.02525 25.9525 6.317 25.9525 5.57849Z" stroke="#B7E0EB" stroke-width="0.422224"/>
<path d="M134.783 18.626C134.35 18.6555 133.935 18.6682 133.538 18.664C132.506 18.6534 131.891 18.6978 131.311 19.4957C130.603 20.469 130.926 21.7863 131.902 22.4238C132.175 22.6026 132.636 22.6955 133.287 22.7025C134.5 22.7124 135.727 22.6955 136.968 22.6519" stroke="#FACDAB" stroke-width="0.422224"/>
<path d="M136.969 22.6514L137.11 23.8631" stroke="#B7E0EB" stroke-width="0.422224"/>
<path d="M137.11 23.863C134.668 23.8601 132.233 23.8601 129.805 23.863C129.1 23.8644 128.563 24.086 128.195 24.528C127.348 25.5455 127.644 27.1225 128.819 27.6904C129.143 27.8466 129.71 27.9233 130.519 27.9205C132.312 27.9149 134.128 27.9205 135.968 27.9374" stroke="#FACDAB" stroke-width="0.422224"/>
<path d="M135.968 27.938C135.681 28.2983 135.396 28.6368 135.115 28.9534C133.572 30.6902 131.646 31.5543 129.337 31.5459C126.53 31.5346 123.786 31.529 121.103 31.529C120.514 31.529 119.716 31.4825 119.216 31.6979C117.818 32.2974 117.763 33.6337 118.101 34.9152C118.464 36.2853 119.444 36.5935 120.753 36.5893C124.102 36.5738 127.33 36.5661 130.437 36.5661C133.871 36.5661 136.751 35.3494 139.077 32.916C140.403 31.5283 141.315 29.8703 141.813 27.9422" stroke="#B7E0EB" stroke-width="0.422224"/>
<path d="M141.813 27.9419C142.24 27.9236 142.68 27.9145 143.135 27.9145C143.753 27.9145 144.186 27.868 144.435 27.7752C146.154 27.1376 146.222 24.7647 144.626 24.0469C143.982 23.7556 143.015 23.8485 142.265 23.8548C142.202 23.8562 142.158 23.8351 142.134 23.7915" stroke="#FACDAB" stroke-width="0.422224"/>
<path d="M142.134 23.7919L141.923 22.6709" stroke="#B7E0EB" stroke-width="0.422224"/>
<path d="M141.923 22.6705C143.454 22.6944 144.977 22.7043 146.49 22.7001C147.074 22.6973 147.515 22.6388 147.813 22.5248C148.932 22.0921 149.319 20.6819 148.719 19.6601C148.311 18.9634 147.672 18.6158 146.802 18.6172C144.787 18.6186 142.792 18.627 140.819 18.6425" stroke="#FACDAB" stroke-width="0.422224"/>
<path d="M140.819 18.6423C139.221 15.2075 136.12 12.6847 132.476 11.8065C131.522 11.5771 130.299 11.468 128.807 11.4793C126.497 11.4962 124.215 11.5236 121.965 11.4877C121.447 11.4793 121.071 11.5279 120.837 11.6334C119.953 12.0303 119.49 12.879 119.566 13.8353C119.714 15.7036 120.506 16.5227 122.383 16.5291C124.345 16.5375 126.264 16.5263 128.142 16.4953C129.656 16.4685 130.815 16.572 131.619 16.8056C132.774 17.1406 133.829 17.7472 134.783 18.6254" stroke="#B7E0EB" stroke-width="0.422224"/>
<path d="M140.819 18.6429L134.783 18.626" stroke="#B2AE97" stroke-width="0.422224"/>
<path d="M141.923 22.6704L136.969 22.6514" stroke="#B2AE97" stroke-width="0.422224"/>
<path d="M142.134 23.7915L137.11 23.8633" stroke="#B2AE97" stroke-width="0.422224"/>
<path d="M141.814 27.9422L135.968 27.938" stroke="#B2AE97" stroke-width="0.422224"/>
<path d="M129.512 20.4815C129.512 20.1075 129.363 19.7488 129.099 19.4843C128.834 19.2199 128.476 19.0713 128.102 19.0713H127.342C126.968 19.0713 126.609 19.2199 126.345 19.4843C126.08 19.7488 125.932 20.1075 125.932 20.4815V20.7264C125.932 21.1004 126.08 21.4591 126.345 21.7236C126.609 21.988 126.968 22.1366 127.342 22.1366H128.102C128.476 22.1366 128.834 21.988 129.099 21.7236C129.363 21.4591 129.512 21.1004 129.512 20.7264V20.4815Z" stroke="#FACDAB" stroke-width="0.422224"/>
<path d="M124.929 20.765C124.929 20.3518 124.765 19.9555 124.472 19.6634C124.18 19.3712 123.784 19.207 123.371 19.207C122.957 19.207 122.561 19.3712 122.269 19.6634C121.977 19.9555 121.813 20.3518 121.813 20.765C121.813 21.1782 121.977 21.5745 122.269 21.8667C122.561 22.1589 122.957 22.323 123.371 22.323C123.784 22.323 124.18 22.1589 124.472 21.8667C124.765 21.5745 124.929 21.1782 124.929 20.765Z" stroke="#FACDAB" stroke-width="0.422224"/>
<path d="M126.318 26.0906C126.318 25.6779 126.154 25.2822 125.862 24.9904C125.57 24.6986 125.174 24.5347 124.762 24.5347C124.349 24.5347 123.953 24.6986 123.662 24.9904C123.37 25.2822 123.206 25.6779 123.206 26.0906C123.206 26.5032 123.37 26.899 123.662 27.1907C123.953 27.4825 124.349 27.6464 124.762 27.6464C125.174 27.6464 125.57 27.4825 125.862 27.1907C126.154 26.899 126.318 26.5032 126.318 26.0906Z" stroke="#FACDAB" stroke-width="0.422224"/>
<path d="M125.94 43.0677C125.94 42.6704 125.862 42.277 125.71 41.91C125.558 41.543 125.335 41.2095 125.054 40.9285C124.773 40.6476 124.439 40.4248 124.072 40.2728C123.705 40.1207 123.312 40.0425 122.915 40.0425C122.517 40.0425 122.124 40.1207 121.757 40.2728C121.39 40.4248 121.056 40.6476 120.775 40.9285C120.495 41.2095 120.272 41.543 120.12 41.91C119.968 42.277 119.889 42.6704 119.889 43.0677C119.889 43.87 120.208 44.6395 120.775 45.2068C121.343 45.7742 122.112 46.0929 122.915 46.0929C123.717 46.0929 124.486 45.7742 125.054 45.2068C125.621 44.6395 125.94 43.87 125.94 43.0677Z" stroke="#B7E0EB" stroke-width="0.422224"/>
<path d="M136.23 43.0706C136.23 42.2683 135.911 41.4988 135.344 40.9315C134.776 40.3641 134.007 40.0454 133.204 40.0454C132.402 40.0454 131.632 40.3641 131.065 40.9315C130.498 41.4988 130.179 42.2683 130.179 43.0706C130.179 43.873 130.498 44.6424 131.065 45.2098C131.632 45.7771 132.402 46.0958 133.204 46.0958C134.007 46.0958 134.776 45.7771 135.344 45.2098C135.911 44.6424 136.23 43.873 136.23 43.0706Z" stroke="#B7E0EB" stroke-width="0.422224"/>
<path d="M38.7882 44.1423C38.7882 43.4043 38.4951 42.6966 37.9732 42.1748C37.4514 41.653 36.7437 41.3599 36.0057 41.3599C35.2678 41.3599 34.56 41.653 34.0382 42.1748C33.5164 42.6966 33.2233 43.4043 33.2233 44.1423C33.2233 44.8802 33.5164 45.588 34.0382 46.1098C34.56 46.6316 35.2678 46.9247 36.0057 46.9247C36.7437 46.9247 37.4514 46.6316 37.9732 46.1098C38.4951 45.588 38.7882 44.8802 38.7882 44.1423Z" stroke="#B7E0EB" stroke-width="0.422224"/>
<path d="M45.6895 44.3186C45.6895 43.5806 45.3963 42.8729 44.8745 42.3511C44.3527 41.8293 43.6449 41.5361 42.907 41.5361C42.169 41.5361 41.4613 41.8293 40.9395 42.3511C40.4177 42.8729 40.1245 43.5806 40.1245 44.3186C40.1245 44.684 40.1965 45.0458 40.3363 45.3834C40.4761 45.7209 40.6811 46.0277 40.9395 46.286C41.1979 46.5444 41.5046 46.7494 41.8422 46.8892C42.1798 47.029 42.5416 47.101 42.907 47.101C43.2724 47.101 43.6342 47.029 43.9718 46.8892C44.3094 46.7494 44.6161 46.5444 44.8745 46.286C45.1329 46.0277 45.3378 45.7209 45.4777 45.3834C45.6175 45.0458 45.6895 44.684 45.6895 44.3186Z" stroke="#B7E0EB" stroke-width="0.422224"/>
<path d="M87.307 11.9558C91.967 11.9488 96.7107 11.9516 101.538 11.9643C106.987 11.9769 111.49 15.5769 112.951 20.6809C114.84 27.2869 110.58 34.3415 103.793 35.5991C102.933 35.7577 101.706 35.8336 100.113 35.8266C94.2695 35.8013 88.6778 35.7985 83.3381 35.8181C83.2529 35.8188 83.169 35.7986 83.0935 35.7593C83.018 35.72 82.9534 35.6628 82.9053 35.5927L82.3142 34.7438C82.3043 34.7291 82.2896 34.7184 82.2725 34.7134C82.2555 34.7084 82.2373 34.7095 82.221 34.7165C82.2047 34.7235 82.1914 34.7359 82.1834 34.7517C82.1753 34.7675 82.173 34.7856 82.1769 34.8028L82.3416 35.618C82.3463 35.6415 82.3457 35.6656 82.3399 35.6888C82.3341 35.712 82.3233 35.7336 82.3082 35.7521C82.293 35.7706 82.274 35.7856 82.2524 35.7959C82.2308 35.8062 82.2072 35.8117 82.1833 35.8118L77.6739 35.8139C77.574 35.8139 77.5156 35.7648 77.4987 35.6665L71.3764 1.12007C71.3739 1.10535 71.3747 1.09028 71.3787 1.07589C71.3827 1.0615 71.3897 1.04815 71.3993 1.03673C71.409 1.02532 71.421 1.01613 71.4345 1.00979C71.448 1.00344 71.4628 1.00011 71.4777 1H76.0272C76.0744 0.999815 76.1201 1.01626 76.1561 1.04637C76.1921 1.07649 76.216 1.1183 76.2236 1.16431L81.4782 30.851C81.4861 30.8968 81.5096 30.9382 81.5447 30.9683C81.5798 30.9983 81.6243 31.015 81.6703 31.0153C88.2992 31.0294 94.976 31.0294 101.701 31.0153C102.707 31.0125 103.663 30.7857 104.568 30.3349C109.406 27.9167 110.073 21.435 105.752 18.1616C104.251 17.0241 102.779 16.7313 100.846 16.7376C93.9324 16.7544 87.4717 16.7565 81.4634 16.7439C81.4426 16.7438 81.4225 16.7365 81.4067 16.7234C81.3909 16.7104 81.3803 16.6922 81.3768 16.6723L80.5683 12.0822C80.5622 12.0476 80.5668 12.0121 80.5815 11.9804C80.5963 11.9487 80.6204 11.9225 80.6506 11.9053L99.1441 1.05688C99.1586 1.04822 99.1749 1.04321 99.1918 1.04228C99.2086 1.04135 99.2255 1.04452 99.241 1.05153C99.2565 1.05854 99.2702 1.06919 99.2809 1.08258C99.2916 1.09597 99.299 1.11172 99.3025 1.1285C99.7458 3.36348 98.1857 4.98126 96.5094 6.18406C93.5855 8.28423 90.404 10.0073 87.269 11.8105C87.0987 11.9088 87.1114 11.9572 87.307 11.9558Z" fill="#F49B57"/>
<path d="M47.9399 11.9404C52.2818 11.9671 56.4633 11.9664 60.4843 11.9383C62.2914 11.9257 63.6552 12.0162 64.5756 12.21C68.1751 12.9705 71.2447 15.3866 72.826 18.7296C76.2017 25.8601 71.9984 34.1091 64.3244 35.6026C63.4898 35.7641 62.0824 35.8399 60.1021 35.8301C54.5161 35.802 49.1144 35.7992 43.8971 35.8217C43.834 35.8224 43.7716 35.8078 43.7153 35.7792C43.6591 35.7506 43.6106 35.7088 43.5741 35.6574L42.9049 34.7263C42.819 34.6055 42.7768 34.6196 42.7782 34.7684C42.7796 35.0114 42.831 35.274 42.9323 35.5563C42.9425 35.5846 42.9457 35.6149 42.9416 35.6448C42.9375 35.6746 42.9263 35.703 42.9089 35.7276C42.8915 35.7521 42.8685 35.7722 42.8417 35.786C42.8149 35.7998 42.7851 35.807 42.755 35.8069C39.8515 35.8196 36.8691 35.8182 33.808 35.8027C33.5561 35.8027 33.2943 35.7676 33.0226 35.6974C32.9452 35.6763 32.8854 35.6328 32.8432 35.5668L32.136 34.4567C32.1288 34.4457 32.1187 34.4369 32.1069 34.4313C32.095 34.4257 32.0819 34.4234 32.0688 34.4247C32.0557 34.426 32.0433 34.4308 32.0328 34.4387C32.0223 34.4466 32.0142 34.4571 32.0093 34.4693C30.1431 39.0973 26.2417 42.5961 21.4621 43.9654C17.2293 45.1766 12.5447 44.5362 8.83962 42.2738C1.02632 37.5026 -1.32759 27.4062 3.51324 19.6712C4.23243 18.5225 5.11418 17.4636 6.15849 16.4946C9.3463 13.5343 13.2343 12.0907 17.8225 12.1637C18.0603 12.1679 18.199 12.2845 18.2384 12.5134C18.5058 14.0904 18.7753 15.6169 19.047 17.0929C19.049 17.1032 19.0484 17.1138 19.0452 17.1238C19.0421 17.1339 19.0365 17.1429 19.0289 17.1503C19.0214 17.1576 19.0121 17.1629 19.002 17.1657C18.9919 17.1686 18.9812 17.1689 18.9709 17.1666C16.7979 16.7481 14.6769 16.9904 12.608 17.8933C5.66026 20.9288 3.5829 29.6897 8.31817 35.5689C10.7038 38.5306 14.5059 40.1547 18.3292 39.7039C23.949 39.0404 28.2473 34.4061 28.4246 28.7481C28.4556 27.7805 28.3085 26.4092 27.9834 24.6341C27.2051 20.386 26.4669 16.2285 25.7688 12.1616C25.7449 12.0226 25.8033 11.953 25.944 11.953L30.4344 11.9552C30.4739 11.9551 30.5121 11.9691 30.5423 11.9945C30.5724 12.02 30.5926 12.0553 30.5991 12.0942C31.2507 15.9308 31.984 20.1122 32.7989 24.6383C33.1979 26.8544 33.2992 28.7607 33.0058 30.8883C33.0034 30.9049 33.0046 30.9219 33.0094 30.938C33.0143 30.9542 33.0225 30.9691 33.0337 30.9819C33.0449 30.9947 33.0588 31.005 33.0743 31.0121C33.0899 31.0192 33.1068 31.0229 33.124 31.0231L37.1795 31.0252C37.1997 31.0252 37.2196 31.0208 37.2379 31.0123C37.2562 31.0037 37.2723 30.9913 37.2853 30.9758C37.2982 30.9603 37.3075 30.9422 37.3125 30.9227C37.3176 30.9032 37.3183 30.8828 37.3146 30.863L33.9706 12.0647C33.9681 12.0514 33.9686 12.0377 33.9722 12.0246C33.9757 12.0115 33.9821 11.9994 33.9909 11.9889C33.9998 11.9785 34.0109 11.9701 34.0234 11.9642C34.0359 11.9584 34.0496 11.9553 34.0634 11.9552H38.5644C38.6047 11.955 38.6437 11.9688 38.6746 11.9942C38.7055 12.0197 38.7263 12.0551 38.7333 12.0942L42.0773 30.9157C42.09 30.9859 42.1322 31.021 42.204 31.021C48.5655 31.021 55.0896 31.0245 61.7763 31.0315C62.6967 31.0329 63.4736 30.9381 64.107 30.7471C65.9676 30.1868 67.3743 29.0641 68.3271 27.3789C70.9703 22.7025 67.5523 16.7601 62.1858 16.7559C55.9172 16.7488 49.2439 16.7474 42.166 16.7516C42.1188 16.7518 42.073 16.7354 42.0371 16.7053C42.0011 16.6751 41.9772 16.6333 41.9696 16.5873L41.197 12.1763C41.1858 12.1145 41.1939 12.0507 41.2204 11.9935C41.2468 11.9362 41.2902 11.8883 41.3447 11.8562L59.6651 1.11096C59.8284 1.01547 59.9227 1.06111 59.948 1.24788C60.1127 2.4542 59.8143 3.49831 59.0529 4.38023C57.5181 6.156 55.464 7.40514 53.3191 8.66482C51.4388 9.77003 49.633 10.8127 47.9019 11.793C47.7288 11.8913 47.7415 11.9404 47.9399 11.9404Z" fill="#F49B57"/>
<path d="M23.1674 8.34793C24.7053 8.34793 25.952 7.10397 25.952 5.56947C25.952 4.03497 24.7053 2.79102 23.1674 2.79102C21.6295 2.79102 20.3828 4.03497 20.3828 5.56947C20.3828 7.10397 21.6295 8.34793 23.1674 8.34793Z" fill="#6FC1D6"/>
<path d="M140.819 18.6051L134.784 18.5883C133.829 17.712 132.775 17.1067 131.619 16.7725C130.816 16.5394 129.656 16.4362 128.142 16.4628C126.265 16.4937 124.345 16.505 122.383 16.4965C120.506 16.4902 119.714 15.6729 119.567 13.8087C119.491 12.8544 119.953 12.0076 120.838 11.6116C121.071 11.5063 121.447 11.4578 121.965 11.4662C124.215 11.5021 126.498 11.4747 128.807 11.4578C130.299 11.4466 131.522 11.5554 132.476 11.7843C136.12 12.6606 139.221 15.1779 140.819 18.6051Z" fill="#6FC1D6"/>
<path d="M140.819 18.6073C142.792 18.5919 144.787 18.5834 146.802 18.582C147.672 18.5806 148.311 18.9275 148.719 19.6226C149.319 20.6422 148.932 22.0493 147.813 22.4811C147.515 22.5949 147.074 22.6532 146.49 22.656C144.977 22.6602 143.455 22.6504 141.923 22.6265L136.969 22.6075C135.727 22.6511 134.5 22.6679 133.287 22.6581C132.637 22.6511 132.175 22.5584 131.902 22.38C130.927 21.7439 130.604 20.4294 131.311 19.4583C131.891 18.6621 132.506 18.6178 133.538 18.6284C133.935 18.6326 134.35 18.6199 134.784 18.5905L140.819 18.6073Z" fill="#F49B57"/>
<path d="M128.1 19.0332H127.34C126.561 19.0332 125.93 19.6632 125.93 20.4403V20.6847C125.93 21.4618 126.561 22.0918 127.34 22.0918H128.1C128.879 22.0918 129.51 21.4618 129.51 20.6847V20.4403C129.51 19.6632 128.879 19.0332 128.1 19.0332Z" fill="#F49B57"/>
<path d="M123.371 22.2771C124.231 22.2771 124.929 21.5811 124.929 20.7226C124.929 19.864 124.231 19.168 123.371 19.168C122.51 19.168 121.812 19.864 121.812 20.7226C121.812 21.5811 122.51 22.2771 123.371 22.2771Z" fill="#F49B57"/>
<path d="M141.924 22.6244L142.135 23.743L137.11 23.8146L136.969 22.6055L141.924 22.6244Z" fill="#6FC1D6"/>
<path d="M142.136 23.7422C142.16 23.7857 142.203 23.8068 142.267 23.8054C143.016 23.7991 143.983 23.7064 144.627 23.9971C146.223 24.7133 146.155 27.081 144.437 27.7171C144.188 27.8098 143.754 27.8562 143.136 27.8562C142.682 27.8562 142.241 27.8653 141.815 27.8835L135.969 27.8793C134.129 27.8625 132.313 27.8569 130.52 27.8625C129.711 27.8653 129.144 27.7887 128.821 27.6329C127.645 27.0662 127.349 25.4927 128.196 24.4773C128.565 24.0364 129.101 23.8152 129.807 23.8138C132.234 23.811 134.669 23.811 137.111 23.8138L142.136 23.7422Z" fill="#F49B57"/>
<path d="M124.763 27.5893C125.622 27.5893 126.319 26.8943 126.319 26.0369C126.319 25.1795 125.622 24.4844 124.763 24.4844C123.904 24.4844 123.207 25.1795 123.207 26.0369C123.207 26.8943 123.904 27.5893 124.763 27.5893Z" fill="#F49B57"/>
<path d="M135.969 27.8789L141.815 27.8831C141.316 29.807 140.404 31.4613 139.079 32.846C136.752 35.2741 133.872 36.4881 130.438 36.4881C127.331 36.4881 124.104 36.4958 120.754 36.5113C119.445 36.5155 118.465 36.208 118.102 34.8408C117.765 33.5622 117.819 32.2288 119.217 31.6306C119.717 31.4157 120.515 31.462 121.104 31.462C123.787 31.462 126.531 31.4677 129.338 31.4789C131.647 31.4873 133.573 30.6251 135.116 28.8921C135.397 28.5762 135.682 28.2384 135.969 27.8789Z" fill="#6FC1D6"/>
<path d="M122.916 45.9962C124.587 45.9962 125.941 44.6447 125.941 42.9776C125.941 41.3105 124.587 39.959 122.916 39.959C121.245 39.959 119.891 41.3105 119.891 42.9776C119.891 44.6447 121.245 45.9962 122.916 45.9962Z" fill="#6FC1D6"/>
<path d="M133.205 45.9981C134.876 45.9981 136.23 44.6467 136.23 42.9795C136.23 41.3124 134.876 39.9609 133.205 39.9609C131.534 39.9609 130.18 41.3124 130.18 42.9795C130.18 44.6467 131.534 45.9981 133.205 45.9981Z" fill="#6FC1D6"/>
<path d="M36.0051 46.8261C37.5418 46.8261 38.7876 45.5831 38.7876 44.0498C38.7876 42.5165 37.5418 41.2734 36.0051 41.2734C34.4684 41.2734 33.2227 42.5165 33.2227 44.0498C33.2227 45.5831 34.4684 46.8261 36.0051 46.8261Z" fill="#6FC1D6"/>
<path d="M42.9075 47.0019C44.4442 47.0019 45.6899 45.7589 45.6899 44.2256C45.6899 42.6922 44.4442 41.4492 42.9075 41.4492C41.3708 41.4492 40.125 42.6922 40.125 44.2256C40.125 45.7589 41.3708 47.0019 42.9075 47.0019Z" fill="#6FC1D6"/>
</svg>
