<svg width="24" height="24" viewBox="0 0 24 24" fill="none" xmlns="http://www.w3.org/2000/svg">
<path d="M12.0098 3.05176C8.70258 3.05176 6.01487 5.65985 6.01487 8.86906V11.6711C6.01487 12.2625 5.75509 13.1642 5.44535 13.6683L4.29633 15.5202C3.58694 16.6642 4.07652 17.9344 5.37541 18.361C9.68175 19.7571 14.3278 19.7571 18.6341 18.361C19.8431 17.9731 20.3727 16.5867 19.7132 15.5202L18.5642 13.6683C18.2644 13.1642 18.0047 12.2625 18.0047 11.6711V8.86906C18.0047 5.66954 15.307 3.05176 12.0098 3.05176Z" stroke="#A1A1AA" stroke-width="1.5" stroke-miterlimit="10" stroke-linecap="round"/>
<path d="M13.8582 3.33296C13.5485 3.2457 13.2288 3.17783 12.899 3.13905C11.9399 3.02271 11.0206 3.09057 10.1614 3.33296C10.4511 2.61549 11.1705 2.11133 12.0098 2.11133C12.8491 2.11133 13.5685 2.61549 13.8582 3.33296Z" stroke="#A1A1AA" stroke-width="1.5" stroke-miterlimit="10" stroke-linecap="round" stroke-linejoin="round"/>
<path opacity="0.4" d="M15.0072 18.71C15.0072 20.3097 13.6584 21.6186 12.0098 21.6186C11.1905 21.6186 10.4311 21.289 9.89158 20.7654C9.35204 20.2419 9.01233 19.505 9.01233 18.71" stroke="#A1A1AA" stroke-width="1.5" stroke-miterlimit="10"/>
</svg>
