<svg width="25" height="24" viewBox="0 0 25 24" fill="none" xmlns="http://www.w3.org/2000/svg">
<path d="M22.0525 18.33C22.0525 18.69 21.9725 19.06 21.8025 19.42C21.6325 19.78 21.4125 20.12 21.1225 20.44C20.6325 20.98 20.0925 21.37 19.4825 21.62C18.8825 21.87 18.2325 22 17.5325 22C16.5125 22 15.4225 21.76 14.2725 21.27C13.1225 20.78 11.9725 20.12 10.8325 19.29C9.68252 18.45 8.59252 17.52 7.55252 16.49C6.52252 15.45 5.59252 14.36 4.76252 13.22C3.94252 12.08 3.28252 10.94 2.80252 9.81C2.32252 8.67 2.08252 7.58 2.08252 6.54C2.08252 5.86 2.20252 5.21 2.44252 4.61C2.68252 4 3.06252 3.44 3.59252 2.94C4.23252 2.31 4.93252 2 5.67252 2C5.95252 2 6.23252 2.06 6.48252 2.18C6.74252 2.3 6.97252 2.48 7.15252 2.74L9.47252 6.01C9.65252 6.26 9.78252 6.49 9.87252 6.71C9.96252 6.92 10.0125 7.13 10.0125 7.32C10.0125 7.56 9.94252 7.8 9.80252 8.03C9.67252 8.26 9.48252 8.5 9.24252 8.74L8.48252 9.53C8.37252 9.64 8.32252 9.77 8.32252 9.93C8.32252 10.01 8.33252 10.08 8.35252 10.16C8.38252 10.24 8.41252 10.3 8.43252 10.36C8.61252 10.69 8.92252 11.12 9.36252 11.64C9.81252 12.16 10.2925 12.69 10.8125 13.22C11.3525 13.75 11.8725 14.24 12.4025 14.69C12.9225 15.13 13.3525 15.43 13.6925 15.61C13.7425 15.63 13.8025 15.66 13.8725 15.69C13.9525 15.72 14.0325 15.73 14.1225 15.73C14.2925 15.73 14.4225 15.67 14.5325 15.56L15.2925 14.81C15.5425 14.56 15.7825 14.37 16.0125 14.25C16.2425 14.11 16.4725 14.04 16.7225 14.04C16.9125 14.04 17.1125 14.08 17.3325 14.17C17.5525 14.26 17.7825 14.39 18.0325 14.56L21.3425 16.91C21.6025 17.09 21.7825 17.3 21.8925 17.55C21.9925 17.8 22.0525 18.05 22.0525 18.33Z" stroke="white" stroke-width="1.5" stroke-miterlimit="10"/>
<path opacity="0.4" d="M18.5825 9C18.5825 8.4 18.1125 7.48 17.4125 6.73C16.7725 6.04 15.9225 5.5 15.0825 5.5" stroke="white" stroke-width="1.5" stroke-linecap="round" stroke-linejoin="round"/>
<path opacity="0.4" d="M22.0825 9C22.0825 5.13 18.9525 2 15.0825 2" stroke="white" stroke-width="1.5" stroke-linecap="round" stroke-linejoin="round"/>
</svg>
