<svg width="24" height="24" viewBox="0 0 24 24" fill="none" xmlns="http://www.w3.org/2000/svg">
<path d="M2 1.99902H3.74001C4.82001 1.99902 5.67 2.92902 5.58 3.99902L4.75 13.959C4.61 15.589 5.89999 16.989 7.53999 16.989H18.19C19.63 16.989 20.89 15.809 21 14.379L21.54 6.87903C21.66 5.21903 20.4 3.86902 18.73 3.86902H5.82001" stroke="#A1A1AA" stroke-width="1.5" stroke-miterlimit="10" stroke-linecap="round" stroke-linejoin="round"/>
<path opacity="0.4" d="M16.25 21.999C16.9404 21.999 17.5 21.4394 17.5 20.749C17.5 20.0587 16.9404 19.499 16.25 19.499C15.5596 19.499 15 20.0587 15 20.749C15 21.4394 15.5596 21.999 16.25 21.999Z" stroke="#A1A1AA" stroke-width="1.5" stroke-miterlimit="10" stroke-linecap="round" stroke-linejoin="round"/>
<path opacity="0.4" d="M8.25 21.999C8.94036 21.999 9.5 21.4394 9.5 20.749C9.5 20.0587 8.94036 19.499 8.25 19.499C7.55964 19.499 7 20.0587 7 20.749C7 21.4394 7.55964 21.999 8.25 21.999Z" stroke="#A1A1AA" stroke-width="1.5" stroke-miterlimit="10" stroke-linecap="round" stroke-linejoin="round"/>
<path opacity="0.4" d="M9 7.99902H21" stroke="#A1A1AA" stroke-width="1.5" stroke-miterlimit="10" stroke-linecap="round" stroke-linejoin="round"/>
</svg>
