<svg width="16" height="15" viewBox="0 0 16 15" fill="none" xmlns="http://www.w3.org/2000/svg">
<path d="M7.5789 0.760637C7.75115 0.413121 8.24885 0.413121 8.4211 0.760638L10.3749 4.70242C10.4433 4.84042 10.5756 4.93607 10.7285 4.9582L15.0974 5.59029C15.4826 5.64602 15.6364 6.11731 15.3577 6.38781L12.1963 9.45606C12.0856 9.56348 12.0351 9.71824 12.0613 9.86992L12.8075 14.2024C12.8733 14.5843 12.4707 14.8756 12.1262 14.6953L8.21852 12.6498C8.08172 12.5781 7.91828 12.5781 7.78148 12.6498L3.87381 14.6953C3.5293 14.8756 3.12666 14.5843 3.19245 14.2024L3.93875 9.86992C3.96488 9.71824 3.91437 9.56348 3.80369 9.45606L0.642326 6.38781C0.363612 6.11731 0.51741 5.64602 0.902583 5.59029L5.27149 4.9582C5.42444 4.93607 5.55666 4.84042 5.62506 4.70242L7.5789 0.760637Z" fill="#FFB31A"/>
</svg>
