<svg width="25" height="25" viewBox="0 0 25 25" fill="none" xmlns="http://www.w3.org/2000/svg">
<path opacity="0.4" d="M15.6107 2.5V12.5C15.6107 13.6 14.7107 14.5 13.6107 14.5H2.61072V6.5C2.61072 4.29 4.40072 2.5 6.61072 2.5H15.6107Z" stroke="white" stroke-width="1.5" stroke-linecap="round" stroke-linejoin="round"/>
<path d="M22.6107 14.5V17.5C22.6107 19.16 21.2707 20.5 19.6107 20.5H18.6107C18.6107 19.4 17.7107 18.5 16.6107 18.5C15.5107 18.5 14.6107 19.4 14.6107 20.5H10.6107C10.6107 19.4 9.71072 18.5 8.61072 18.5C7.51072 18.5 6.61072 19.4 6.61072 20.5H5.61072C3.95072 20.5 2.61072 19.16 2.61072 17.5V14.5H13.6107C14.7107 14.5 15.6107 13.6 15.6107 12.5V5.5H17.4507C18.1707 5.5 18.8307 5.89001 19.1907 6.51001L20.9007 9.5H19.6107C19.0607 9.5 18.6107 9.95 18.6107 10.5V13.5C18.6107 14.05 19.0607 14.5 19.6107 14.5H22.6107Z" stroke="white" stroke-width="1.5" stroke-linecap="round" stroke-linejoin="round"/>
<path d="M8.61072 22.5C9.71529 22.5 10.6107 21.6046 10.6107 20.5C10.6107 19.3954 9.71529 18.5 8.61072 18.5C7.50615 18.5 6.61072 19.3954 6.61072 20.5C6.61072 21.6046 7.50615 22.5 8.61072 22.5Z" stroke="white" stroke-width="1.5" stroke-linecap="round" stroke-linejoin="round"/>
<path d="M16.6107 22.5C17.7153 22.5 18.6107 21.6046 18.6107 20.5C18.6107 19.3954 17.7153 18.5 16.6107 18.5C15.5061 18.5 14.6107 19.3954 14.6107 20.5C14.6107 21.6046 15.5061 22.5 16.6107 22.5Z" stroke="white" stroke-width="1.5" stroke-linecap="round" stroke-linejoin="round"/>
<path d="M22.6107 12.5V14.5H19.6107C19.0607 14.5 18.6107 14.05 18.6107 13.5V10.5C18.6107 9.95 19.0607 9.5 19.6107 9.5H20.9007L22.6107 12.5Z" stroke="white" stroke-width="1.5" stroke-linecap="round" stroke-linejoin="round"/>
</svg>
