<svg width="350" height="350" viewBox="0 0 350 350" fill="none" xmlns="http://www.w3.org/2000/svg">
<path d="M381.36 -97.4399H-82.3198V366.24H381.36V-97.4399Z" fill="white"/>
<path d="M255.929 127.575V145.043C255.929 147.311 254.07 149.17 251.801 149.17H96.0287C93.7601 149.17 91.9009 147.311 91.9009 145.043V127.575C91.9009 125.289 93.7601 123.447 96.0287 123.447H251.801C254.07 123.447 255.929 125.289 255.929 127.575Z" fill="#FDC8AC"/>
<path d="M245.882 149.17V238.025C245.882 242.289 242.42 245.752 238.155 245.752H109.675C105.411 245.752 101.948 242.289 101.948 238.025V149.17H245.882Z" fill="#FDC8AC"/>
<path d="M245.882 156.231H101.948V149.169H245.882V156.231Z" fill="#EE9B84"/>
<path d="M193.685 168.07V171.891C193.685 173.153 192.661 174.177 191.399 174.177H156.43C155.168 174.177 154.145 173.153 154.145 171.891V168.07C154.145 166.808 155.168 165.784 156.43 165.784H191.399C192.661 165.784 193.685 166.808 193.685 168.07Z" fill="#EE9B84"/>
<path d="M144.817 214.724V230.093C144.817 231.304 143.828 232.293 142.616 232.293H113.582C112.371 232.293 111.399 231.304 111.399 230.093V214.724C111.399 213.513 112.371 212.523 113.582 212.523H142.616C143.828 212.523 144.817 213.513 144.817 214.724Z" fill="white"/>
<path d="M231.694 221.027H226.696V230.557C226.696 230.984 226.349 231.33 225.922 231.33H222.693C222.266 231.33 221.92 230.984 221.92 230.557V221.027H216.925C216.426 221.027 216.177 220.424 216.529 220.072L223.915 212.686C224.132 212.469 224.483 212.469 224.7 212.686L232.088 220.074C232.44 220.426 232.191 221.027 231.694 221.027Z" fill="#495257"/>
<path d="M214.059 221.027H209.061V230.557C209.061 230.984 208.715 231.33 208.287 231.33H205.058C204.631 231.33 204.285 230.984 204.285 230.557V221.027H199.29C198.792 221.027 198.542 220.424 198.894 220.072L206.281 212.686C206.497 212.469 206.849 212.469 207.065 212.686L214.454 220.074C214.805 220.426 214.556 221.027 214.059 221.027Z" fill="#495257"/>
<path d="M279.991 264.287V357.359H80.0796V264.287H279.991Z" fill="white"/>
<path d="M209.855 103.302C209.855 122.683 194.144 138.394 174.763 138.394C155.383 138.394 139.671 122.683 139.671 103.302C139.671 83.9211 155.383 68.21 174.763 68.21C194.144 68.21 209.855 83.9211 209.855 103.302Z" fill="#FD7A73"/>
<path d="M190.788 114.473C192.153 115.838 192.153 118.055 190.788 119.42C189.422 120.766 187.206 120.766 185.86 119.42L174.718 108.278L163.556 119.42C162.21 120.766 159.994 120.766 158.628 119.4C157.263 118.055 157.263 115.838 158.628 114.473L169.77 103.331L158.628 92.1886C157.263 90.8232 157.263 88.6065 158.628 87.261C159.994 85.8955 162.21 85.8955 163.556 87.2411L174.718 98.4029L185.86 87.2411C187.206 85.8955 189.422 85.8955 190.788 87.2411C192.153 88.6065 192.153 90.8232 190.788 92.1886L179.646 103.331L190.788 114.473Z" fill="white"/>
</svg>
