<svg width="236" height="32" viewBox="0 0 236 32" fill="none" xmlns="http://www.w3.org/2000/svg">
<rect x="0.5" y="0.5" width="49" height="31" rx="2.5" stroke="#E7EAEE"/>
<path d="M29.3635 23.8644H20.6143V8.14062H29.3635V23.8644Z" fill="#FF5F00"/>
<path d="M21.1748 16.0015C21.1748 12.8118 22.6682 9.97057 24.9938 8.13955C23.2931 6.80063 21.1468 6.00147 18.8142 6.00147C13.2919 6.00147 8.81543 10.4785 8.81543 16.0015C8.81543 21.5244 13.2919 26.0015 18.8142 26.0015C21.1468 26.0015 23.2931 25.2023 24.9938 23.8634C22.6682 22.0324 21.1748 19.1911 21.1748 16.0015Z" fill="#EB001B"/>
<path d="M41.1634 16.0015C41.1634 21.5244 36.687 26.0015 31.1647 26.0015C28.832 26.0015 26.6857 25.2023 24.9844 23.8634C27.3107 22.0324 28.8041 19.1911 28.8041 16.0015C28.8041 12.8118 27.3107 9.97057 24.9844 8.13955C26.6857 6.80063 28.832 6.00147 31.1647 6.00147C36.687 6.00147 41.1634 10.4785 41.1634 16.0015Z" fill="#F79E1B"/>
<path d="M16.3393 16.0646C16.3393 15.6278 16.6256 15.269 17.0933 15.269C17.5402 15.269 17.8419 15.6123 17.8419 16.0646C17.8419 16.5169 17.5402 16.8602 17.0933 16.8602C16.6256 16.8602 16.3393 16.5014 16.3393 16.0646ZM18.3513 16.0646V14.822H17.811V15.1238C17.6396 14.9 17.3796 14.7596 17.0261 14.7596C16.3292 14.7596 15.7829 15.3059 15.7829 16.0646C15.7829 16.8239 16.3292 17.3696 17.0261 17.3696C17.3796 17.3696 17.6396 17.2292 17.811 17.0054V17.3071H18.3513V16.0646ZM36.6111 16.0646C36.6111 15.6278 36.8974 15.269 37.3651 15.269C37.8126 15.269 38.1137 15.6123 38.1137 16.0646C38.1137 16.5169 37.8126 16.8602 37.3651 16.8602C36.8974 16.8602 36.6111 16.5014 36.6111 16.0646ZM38.6237 16.0646V13.8241H38.0828V15.1238C37.9114 14.9 37.6513 14.7596 37.2979 14.7596C36.601 14.7596 36.0547 15.3059 36.0547 16.0646C36.0547 16.8239 36.601 17.3696 37.2979 17.3696C37.6513 17.3696 37.9114 17.2292 38.0828 17.0054V17.3071H38.6237V16.0646ZM25.0586 15.2434C25.4067 15.2434 25.6305 15.4618 25.6876 15.8462H24.3981C24.4558 15.4874 24.6736 15.2434 25.0586 15.2434ZM25.0693 14.7596C24.3409 14.7596 23.8315 15.2898 23.8315 16.0646C23.8315 16.8549 24.3618 17.3696 25.1056 17.3696C25.4799 17.3696 25.8227 17.2762 26.1244 17.0215L25.8596 16.621C25.6513 16.787 25.3859 16.8811 25.1366 16.8811C24.7884 16.8811 24.4713 16.7198 24.3933 16.2723H26.2387C26.244 16.205 26.2494 16.1372 26.2494 16.0646C26.244 15.2898 25.7656 14.7596 25.0693 14.7596ZM31.5939 16.0646C31.5939 15.6278 31.8802 15.269 32.3479 15.269C32.7948 15.269 33.0965 15.6123 33.0965 16.0646C33.0965 16.5169 32.7948 16.8602 32.3479 16.8602C31.8802 16.8602 31.5939 16.5014 31.5939 16.0646ZM33.6059 16.0646V14.822H33.0656V15.1238C32.8936 14.9 32.6341 14.7596 32.2806 14.7596C31.5838 14.7596 31.0375 15.3059 31.0375 16.0646C31.0375 16.8239 31.5838 17.3696 32.2806 17.3696C32.6341 17.3696 32.8936 17.2292 33.0656 17.0054V17.3071H33.6059V16.0646ZM28.5423 16.0646C28.5423 16.8186 29.0672 17.3696 29.8681 17.3696C30.2425 17.3696 30.4918 17.2863 30.762 17.0733L30.5025 16.6365C30.2996 16.7823 30.0865 16.8602 29.8521 16.8602C29.4206 16.8549 29.1035 16.543 29.1035 16.0646C29.1035 15.5861 29.4206 15.2743 29.8521 15.269C30.0865 15.269 30.2996 15.3469 30.5025 15.4927L30.762 15.0559C30.4918 14.8429 30.2425 14.7596 29.8681 14.7596C29.0672 14.7596 28.5423 15.3106 28.5423 16.0646ZM35.509 14.7596C35.1972 14.7596 34.9943 14.9054 34.8538 15.1238V14.822H34.3182V17.3071H34.8592V15.914C34.8592 15.5028 35.0359 15.2743 35.3894 15.2743C35.4989 15.2743 35.6132 15.2898 35.7274 15.3368L35.894 14.8274C35.7744 14.7804 35.6185 14.7596 35.509 14.7596ZM21.0239 15.0196C20.7638 14.8482 20.4056 14.7596 20.0105 14.7596C19.3808 14.7596 18.9756 15.0613 18.9756 15.5552C18.9756 15.9605 19.2773 16.2104 19.8331 16.2883L20.0884 16.3246C20.3848 16.3663 20.5246 16.4443 20.5246 16.5847C20.5246 16.7769 20.327 16.8864 19.9581 16.8864C19.5838 16.8864 19.3136 16.7668 19.1315 16.6264L18.8768 17.0471C19.1732 17.2655 19.5475 17.3696 19.9527 17.3696C20.6704 17.3696 21.0864 17.0316 21.0864 16.5585C21.0864 16.1217 20.7591 15.8932 20.2181 15.8152L19.9634 15.7784C19.7296 15.7474 19.5421 15.701 19.5421 15.5344C19.5421 15.3523 19.7189 15.2434 20.0152 15.2434C20.3324 15.2434 20.6395 15.363 20.79 15.4564L21.0239 15.0196ZM27.996 14.7596C27.6842 14.7596 27.4812 14.9054 27.3414 15.1238V14.822H26.8058V17.3071H27.3461V15.914C27.3461 15.5028 27.5229 15.2743 27.8764 15.2743C27.9859 15.2743 28.1001 15.2898 28.2144 15.3368L28.381 14.8274C28.2614 14.7804 28.1055 14.7596 27.996 14.7596ZM23.3846 14.822H22.5009V14.0681H21.9546V14.822H21.4506V15.316H21.9546V16.4496C21.9546 17.0263 22.1784 17.3696 22.8175 17.3696C23.052 17.3696 23.3221 17.297 23.4935 17.1774L23.3376 16.7144C23.1763 16.8079 22.9996 16.8549 22.8592 16.8549C22.589 16.8549 22.5009 16.6882 22.5009 16.4389V15.316H23.3846V14.822ZM15.3051 17.3071V15.7474C15.3051 15.1601 14.9307 14.7649 14.3273 14.7596C14.0101 14.7542 13.6828 14.853 13.4537 15.2017C13.2823 14.9262 13.0122 14.7596 12.6325 14.7596C12.3671 14.7596 12.1076 14.8375 11.9047 15.1285V14.822H11.3638V17.3071H11.9095V15.9295C11.9095 15.4981 12.1487 15.269 12.5182 15.269C12.8771 15.269 13.0586 15.5028 13.0586 15.9242V17.3071H13.6049V15.9295C13.6049 15.4981 13.8542 15.269 14.2131 15.269C14.582 15.269 14.7588 15.5028 14.7588 15.9242V17.3071H15.3051Z" fill="white"/>
<g clip-path="url(#clip0_135_14852)">
<rect x="62.5" y="0.5" width="49" height="31" rx="2.5" fill="white" stroke="#E7EAEE"/>
<path d="M91.3742 23.863H82.625V8.13916H91.3742V23.863Z" fill="#6C6BBD"/>
<path d="M83.1855 16C83.1855 12.8104 84.6789 9.9691 87.0046 8.13809C85.3039 6.79916 83.1575 6 80.8249 6C75.3026 6 70.8262 10.4771 70.8262 16C70.8262 21.5229 75.3026 26 80.8249 26C83.1575 26 85.3039 25.2008 87.0046 23.8619C84.6789 22.0309 83.1855 19.1896 83.1855 16Z" fill="#EB001B"/>
<path d="M103.174 16C103.174 21.5229 98.6977 26 93.1754 26C90.8428 26 88.6964 25.2008 86.9951 23.8619C89.3214 22.0309 90.8148 19.1896 90.8148 16C90.8148 12.8104 89.3214 9.9691 86.9951 8.13809C88.6964 6.79916 90.8428 6 93.1754 6C98.6977 6 103.174 10.4771 103.174 16Z" fill="#0099DF"/>
<path d="M96.0156 14.2903C96.1587 14.2903 96.3645 14.3176 96.5218 14.3795L96.3027 15.0492C96.1525 14.9874 96.0023 14.967 95.8583 14.967C95.3936 14.967 95.1612 15.2674 95.1612 15.8073V17.6396H94.45V14.3724H95.1542V14.7691C95.3388 14.4819 95.6056 14.2903 96.0156 14.2903ZM93.3884 15.0218H92.2265V16.4981C92.2265 16.8259 92.3423 17.045 92.6983 17.045C92.8829 17.045 93.1153 16.9832 93.3265 16.8604L93.5315 17.4683C93.3062 17.6255 92.951 17.7217 92.6435 17.7217C91.8025 17.7217 91.5091 17.2703 91.5091 16.5114V15.0218H90.8456V14.3724H91.5091V13.3811H92.2265V14.3724H93.3884V15.0218ZM84.2901 15.7189C84.366 15.2471 84.6524 14.9255 85.1586 14.9255C85.6163 14.9255 85.9104 15.2127 85.9855 15.7189H84.2901ZM86.7241 16.006C86.7171 14.9874 86.088 14.2903 85.1719 14.2903C84.215 14.2903 83.5453 14.9874 83.5453 16.006C83.5453 17.0442 84.2424 17.721 85.2204 17.721C85.7125 17.721 86.1631 17.5981 86.5598 17.2633L86.2109 16.7367C85.9378 16.9558 85.5889 17.0786 85.2611 17.0786C84.8034 17.0786 84.3864 16.8666 84.2839 16.2791H86.71C86.7171 16.1899 86.7241 16.1015 86.7241 16.006ZM89.8473 15.2064C89.6494 15.0828 89.2465 14.9255 88.8295 14.9255C88.4398 14.9255 88.2075 15.0695 88.2075 15.3089C88.2075 15.5272 88.4531 15.589 88.7606 15.6297L89.0955 15.6774C89.8067 15.7807 90.237 16.0811 90.237 16.6554C90.237 17.2774 89.6901 17.7217 88.7473 17.7217C88.2137 17.7217 87.7216 17.5848 87.332 17.2977L87.6669 16.7438C87.9063 16.9284 88.2622 17.0857 88.7544 17.0857C89.2394 17.0857 89.4992 16.9425 89.4992 16.689C89.4992 16.5052 89.3145 16.4019 88.9249 16.3479L88.5901 16.3002C87.8585 16.1969 87.4619 15.8691 87.4619 15.3363C87.4619 14.6869 87.9955 14.2903 88.8224 14.2903C89.3419 14.2903 89.8137 14.4068 90.1548 14.6322L89.8473 15.2064ZM98.6138 14.9654C98.4675 14.9654 98.3322 14.9913 98.2062 15.0421C98.081 15.0938 97.9723 15.1657 97.8807 15.2581C97.7892 15.3504 97.7172 15.4615 97.6648 15.5906C97.6124 15.7197 97.5866 15.862 97.5866 16.017C97.5866 16.1726 97.6124 16.3143 97.6648 16.4433C97.7172 16.5724 97.7892 16.6835 97.8807 16.7759C97.9723 16.8682 98.081 16.9402 98.2062 16.9918C98.3322 17.0434 98.4675 17.0685 98.6138 17.0685C98.7601 17.0685 98.8963 17.0434 99.0214 16.9918C99.1474 16.9402 99.2569 16.8682 99.3485 16.7759C99.4416 16.6835 99.5135 16.5724 99.5667 16.4433C99.6192 16.3143 99.645 16.1726 99.645 16.017C99.645 15.862 99.6192 15.7197 99.5667 15.5906C99.5135 15.4615 99.4416 15.3504 99.3485 15.2581C99.2569 15.1657 99.1474 15.0938 99.0214 15.0421C98.8963 14.9913 98.7601 14.9654 98.6138 14.9654ZM98.6138 14.2903C98.8673 14.2903 99.102 14.3341 99.3179 14.4225C99.5339 14.5101 99.7209 14.6314 99.8781 14.7855C100.036 14.9396 100.159 15.1219 100.248 15.3316C100.337 15.5421 100.382 15.7705 100.382 16.017C100.382 16.2634 100.337 16.4919 100.248 16.7023C100.159 16.912 100.036 17.0951 99.8781 17.2492C99.7209 17.4033 99.5339 17.5238 99.3179 17.6122C99.102 17.6998 98.8673 17.7437 98.6138 17.7437C98.3603 17.7437 98.1256 17.6998 97.9097 17.6122C97.6937 17.5238 97.5083 17.4033 97.3519 17.2492C97.1954 17.0951 97.0725 16.912 96.9834 16.7023C96.8942 16.4919 96.8496 16.2634 96.8496 16.017C96.8496 15.7705 96.8942 15.5421 96.9834 15.3316C97.0725 15.1219 97.1954 14.9396 97.3519 14.7855C97.5083 14.6314 97.6937 14.5101 97.9097 14.4225C98.1256 14.3341 98.3603 14.2903 98.6138 14.2903ZM80.1373 16.006C80.1373 15.4317 80.5136 14.96 81.1286 14.96C81.7161 14.96 82.1128 15.4114 82.1128 16.006C82.1128 16.6006 81.7161 17.0513 81.1286 17.0513C80.5136 17.0513 80.1373 16.5803 80.1373 16.006ZM82.7825 16.006V14.3724H82.0721V14.7691C81.846 14.4749 81.5049 14.2903 81.0402 14.2903C80.124 14.2903 79.4066 15.0077 79.4066 16.006C79.4066 17.0035 80.124 17.7217 81.0402 17.7217C81.5049 17.7217 81.846 17.5371 82.0721 17.2429V17.6396H82.7825V16.006ZM78.7775 17.6396V15.589C78.7775 14.8168 78.2854 14.2973 77.4929 14.2903C77.0759 14.2832 76.6448 14.4131 76.3444 14.8716C76.119 14.5093 75.7631 14.2903 75.2639 14.2903C74.9158 14.2903 74.5739 14.3928 74.3071 14.7753V14.3724H73.5967V17.6396H74.3141V15.8284C74.3141 15.2612 74.6286 14.96 75.1137 14.96C75.5855 14.96 75.8249 15.2674 75.8249 15.8214V17.6396H76.5423V15.8284C76.5423 15.2612 76.8709 14.96 77.3419 14.96C77.8277 14.96 78.0601 15.2674 78.0601 15.8214V17.6396H78.7775Z" fill="white"/>
</g>
<g clip-path="url(#clip1_135_14852)">
<rect x="124.5" y="0.5" width="49" height="31" rx="2.5" fill="white" stroke="#E7EAEE"/>
<path d="M146.466 21.535H143.388L145.314 10.4995H148.392L146.466 21.535Z" fill="#00579F"/>
<path d="M157.626 10.7696C157.018 10.5463 156.055 10.2998 154.865 10.2998C151.825 10.2998 149.684 11.8024 149.671 13.9507C149.646 15.5358 151.204 16.4161 152.369 16.9446C153.56 17.4846 153.965 17.8371 153.965 18.3185C153.952 19.0578 153.002 19.3986 152.116 19.3986C150.887 19.3986 150.228 19.2229 149.228 18.8116L148.822 18.6353L148.392 21.1125C149.114 21.4174 150.444 21.6879 151.825 21.6998C155.055 21.6998 157.157 20.2204 157.182 17.9311C157.195 16.6748 156.372 15.7122 154.598 14.9257C153.522 14.4207 152.862 14.0802 152.862 13.5636C152.875 13.0939 153.42 12.6129 154.635 12.6129C155.636 12.5893 156.371 12.8123 156.928 13.0354L157.207 13.1526L157.626 10.7696Z" fill="#00579F"/>
<path d="M161.717 17.6255C161.97 16.9916 162.946 14.5379 162.946 14.5379C162.933 14.5614 163.199 13.8922 163.351 13.4814L163.566 14.4322C163.566 14.4322 164.149 17.0738 164.275 17.6255C163.794 17.6255 162.325 17.6255 161.717 17.6255ZM165.516 10.4995H163.135C162.401 10.4995 161.843 10.6989 161.526 11.4151L156.954 21.5349H160.184C160.184 21.5349 160.716 20.1728 160.83 19.8795C161.184 19.8795 164.326 19.8795 164.782 19.8795C164.871 20.2669 165.15 21.5349 165.15 21.5349H168L165.516 10.4995Z" fill="#00579F"/>
<path d="M140.817 10.4995L137.803 18.0247L137.473 16.4985C136.916 14.7375 135.168 12.8241 133.217 11.8728L135.979 21.5233H139.234L144.072 10.4995H140.817Z" fill="#00579F"/>
<path d="M135.003 10.4995H130.051L130 10.7225C133.863 11.6383 136.422 13.8457 137.473 16.4989L136.397 11.4271C136.219 10.7223 135.675 10.5228 135.003 10.4995Z" fill="#FAA61A"/>
</g>
<g clip-path="url(#clip2_135_14852)">
<rect x="186.5" y="0.5" width="49" height="31" rx="2.5" fill="white" stroke="#E7EAEE"/>
<mask id="mask0_135_14852" style="mask-type:alpha" maskUnits="userSpaceOnUse" x="186" y="0" width="50" height="32">
<rect x="186.5" y="0.5" width="49" height="31" rx="2.5" fill="white" stroke="#D2D2D6"/>
</mask>
<g mask="url(#mask0_135_14852)">
<path d="M200.453 32H234.359C235.258 32 236 31.2578 236 30.3594V18.875C232.758 20.9453 220.492 28.0547 200.453 32Z" fill="#F58220"/>
</g>
<path d="M193.722 12.9727H192V18.9858H193.713C194.623 18.9858 195.281 18.771 195.858 18.2916C196.544 17.724 196.95 16.8684 196.95 15.9834C196.95 14.209 195.624 12.9727 193.722 12.9727ZM195.092 17.4899C194.723 17.8226 194.245 17.9678 193.487 17.9678H193.172V13.9916H193.487C194.245 13.9916 194.705 14.1271 195.092 14.4778C195.498 14.8389 195.742 15.3988 195.742 15.9746C195.742 16.552 195.498 17.1288 195.092 17.4899Z" fill="#231F20"/>
<path d="M198.663 12.9727H197.49V18.9858H198.663V12.9727Z" fill="#231F20"/>
<path d="M201.531 15.2799C200.827 15.0196 200.62 14.8478 200.62 14.5229C200.62 14.1441 200.988 13.8564 201.494 13.8564C201.845 13.8564 202.134 14.0008 202.44 14.3433L203.053 13.5398C202.549 13.0986 201.946 12.873 201.286 12.873C200.222 12.873 199.411 13.6119 199.411 14.596C199.411 15.4245 199.789 15.8486 200.89 16.245C201.35 16.4069 201.583 16.5147 201.701 16.5873C201.936 16.7403 202.053 16.9571 202.053 17.2095C202.053 17.6967 201.666 18.0576 201.142 18.0576C200.583 18.0576 200.132 17.7779 199.862 17.2557L199.104 17.9854C199.645 18.7786 200.294 19.1302 201.186 19.1302C202.405 19.1302 203.26 18.3198 203.26 17.1558C203.26 16.2004 202.865 15.7678 201.531 15.2799Z" fill="#231F20"/>
<path d="M203.63 15.9833C203.63 17.7508 205.018 19.1213 206.804 19.1213C207.309 19.1213 207.741 19.022 208.274 18.7709V17.3902C207.805 17.8596 207.39 18.0488 206.859 18.0488C205.677 18.0488 204.839 17.1923 204.839 15.9746C204.839 14.8202 205.704 13.9093 206.804 13.9093C207.363 13.9093 207.787 14.109 208.275 14.5859V13.2058C207.76 12.9446 207.337 12.8364 206.832 12.8364C205.054 12.8367 203.63 14.2351 203.63 15.9833Z" fill="#231F20"/>
<path d="M217.574 17.0117L215.971 12.9727H214.689L217.241 19.1401H217.873L220.47 12.9727H219.199L217.574 17.0117Z" fill="#231F20"/>
<path d="M221 18.9858H224.327V17.968H222.172V16.3449H224.247V15.3262H222.172V13.9916H224.327V12.9727H221V18.9858Z" fill="#231F20"/>
<path d="M228.971 14.7479C228.971 13.6221 228.196 12.9727 226.843 12.9727H225.104V18.9858H226.276V16.5703H226.429L228.052 18.9859H229.494L227.601 16.4525C228.485 16.2729 228.971 15.6686 228.971 14.7479ZM226.618 15.741H226.276V13.9198H226.637C227.367 13.9198 227.764 14.2259 227.764 14.8111C227.764 15.4157 227.367 15.741 226.618 15.741Z" fill="#231F20"/>
<path d="M211.857 19.199C213.623 19.199 215.055 17.7668 215.055 16.0001C215.055 14.2334 213.623 12.8013 211.857 12.8013C210.09 12.8013 208.658 14.2334 208.658 16.0001C208.658 17.7668 210.09 19.199 211.857 19.199Z" fill="url(#paint0_linear_135_14852)"/>
<path opacity="0.65" d="M211.857 19.199C213.623 19.199 215.055 17.7668 215.055 16.0001C215.055 14.2334 213.623 12.8013 211.857 12.8013C210.09 12.8013 208.658 14.2334 208.658 16.0001C208.658 17.7668 210.09 19.199 211.857 19.199Z" fill="url(#paint1_linear_135_14852)"/>
<path d="M229.72 13.1987C229.72 13.0933 229.647 13.0356 229.52 13.0356H229.35V13.5642H229.476V13.3591L229.624 13.5642H229.778L229.604 13.3462C229.679 13.3263 229.72 13.2721 229.72 13.1987ZM229.498 13.2709H229.476V13.1327H229.499C229.561 13.1327 229.594 13.1552 229.594 13.2007C229.594 13.2473 229.561 13.2709 229.498 13.2709Z" fill="#231F20"/>
<path d="M229.545 12.8384C229.289 12.8384 229.085 13.0431 229.085 13.2991C229.085 13.5549 229.291 13.76 229.545 13.76C229.795 13.76 230 13.5526 230 13.2991C230 13.0466 229.795 12.8384 229.545 12.8384ZM229.543 13.6776C229.341 13.6776 229.176 13.5095 229.176 13.2998C229.176 13.0893 229.339 12.9214 229.543 12.9214C229.744 12.9214 229.908 13.0932 229.908 13.2998C229.908 13.5077 229.744 13.6776 229.543 13.6776Z" fill="#231F20"/>
</g>
<defs>
<linearGradient id="paint0_linear_135_14852" x1="213.494" y1="18.5638" x2="211.279" y2="15.0959" gradientUnits="userSpaceOnUse">
<stop stop-color="#F89F21"/>
<stop offset="0.2502" stop-color="#F79A23"/>
<stop offset="0.5331" stop-color="#F78E22"/>
<stop offset="0.6196" stop-color="#F68721"/>
<stop offset="0.7232" stop-color="#F48220"/>
<stop offset="1" stop-color="#F27623"/>
</linearGradient>
<linearGradient id="paint1_linear_135_14852" x1="213.144" y1="18.5166" x2="209.907" y2="12.1896" gradientUnits="userSpaceOnUse">
<stop stop-color="#F68721" stop-opacity="0"/>
<stop offset="0.3587" stop-color="#E27027" stop-opacity="0.2704"/>
<stop offset="0.703" stop-color="#D4612C" stop-opacity="0.5299"/>
<stop offset="0.9816" stop-color="#D15D2D" stop-opacity="0.74"/>
</linearGradient>
<clipPath id="clip0_135_14852">
<rect width="50" height="32" fill="white" transform="translate(62)"/>
</clipPath>
<clipPath id="clip1_135_14852">
<rect width="50" height="32" fill="white" transform="translate(124)"/>
</clipPath>
<clipPath id="clip2_135_14852">
<rect width="50" height="32" fill="white" transform="translate(186)"/>
</clipPath>
</defs>
</svg>
