<svg width="201" height="202" viewBox="0 0 201 202"
                        fill="none" xmlns="http://www.w3.org/2000/svg">
                        <path
                            d="M200.822 101.122C200.822 156.457 155.964 201.316 100.628 201.316C45.2916 201.316 0.433594 156.457 0.433594 101.122C0.433594 45.7872 45.2916 0.928223 100.628 0.928223C155.964 0.928223 200.822 45.7872 200.822 101.122Z"
                            fill="#B5DBE0" />
                        <path
                            d="M154.726 158.406H97.1867C94.3557 158.406 92.0527 156.102 92.0527 153.27C92.0527 151.967 92.5427 150.722 93.4317 149.769L98.6627 144.16C99.2497 143.531 100.236 143.496 100.864 144.083C101.493 144.67 101.527 145.655 100.941 146.283L95.7097 151.892C95.3597 152.267 95.1667 152.758 95.1667 153.27C95.1667 154.385 96.0737 155.292 97.1867 155.292H154.726C155.586 155.292 156.283 155.989 156.283 156.848C156.283 157.709 155.586 158.406 154.726 158.406Z"
                            fill="#989898" />
                        <path
                            d="M107.538 165.943C107.538 169.554 104.611 172.482 100.999 172.482C97.388 172.482 94.46 169.554 94.46 165.943C94.46 162.332 97.388 159.404 100.999 159.404C104.611 159.404 107.538 162.332 107.538 165.943Z"
                            fill="#0D1235" />
                        <path
                            d="M104.486 165.944C104.486 167.869 102.925 169.43 101.001 169.43C99.0747 169.43 97.5137 167.869 97.5137 165.944C97.5137 164.018 99.0747 162.458 101.001 162.458C102.925 162.458 104.486 164.018 104.486 165.944Z"
                            fill="#989898" />
                        <path
                            d="M103.464 165.944C103.464 167.305 102.36 168.409 100.999 168.409C99.6382 168.409 98.5342 167.305 98.5342 165.944C98.5342 164.583 99.6382 163.479 100.999 163.479C102.36 163.479 103.464 164.583 103.464 165.944Z"
                            fill="#0D1235" />
                        <path
                            d="M101.001 158.405H97.7686V160.243L100.355 165.717H101.001H101.647L104.233 160.243V158.405H101.001Z"
                            fill="#C2391C" />
                        <path
                            d="M97.7686 160.243H104.233V158.405H97.7686V160.243Z"
                            fill="#908881" />
                        <path
                            d="M156.854 165.943C156.854 169.554 153.926 172.482 150.315 172.482C146.703 172.482 143.776 169.554 143.776 165.943C143.776 162.332 146.703 159.404 150.315 159.404C153.926 159.404 156.854 162.332 156.854 165.943Z"
                            fill="#0D1235" />
                        <path
                            d="M153.801 165.944C153.801 167.869 152.24 169.43 150.316 169.43C148.39 169.43 146.829 167.869 146.829 165.944C146.829 164.018 148.39 162.458 150.316 162.458C152.24 162.458 153.801 164.018 153.801 165.944Z"
                            fill="#989898" />
                        <path
                            d="M152.781 165.944C152.781 167.305 151.677 168.409 150.316 168.409C148.955 168.409 147.851 167.305 147.851 165.944C147.851 164.583 148.955 163.479 150.316 163.479C151.677 163.479 152.781 164.583 152.781 165.944Z"
                            fill="#0D1235" />
                        <path
                            d="M150.316 158.405H147.084V160.243L149.67 165.717H150.316H150.962L153.548 160.243V158.405H150.316Z"
                            fill="#C2391C" />
                        <path
                            d="M147.085 160.243H153.549V158.405H147.085V160.243Z"
                            fill="#908881" />
                        <path
                            d="M165.524 108.939C165.27 108.598 164.885 108.375 164.462 108.324L80.3408 98.1926L63.3278 57.5156C62.3538 54.0026 59.3858 51.4516 55.7668 51.0156L43.4758 49.5366C42.6288 49.4346 41.8468 50.0426 41.7438 50.8966C41.6408 51.7496 42.2498 52.5246 43.1038 52.6276L55.3948 54.1086C57.7558 54.3926 59.6918 56.0576 60.3288 58.3556L77.6348 100.07L89.1178 141.06C90.0998 144.537 93.3098 146.966 96.9238 146.966C96.9568 146.966 96.9898 146.964 97.0238 146.962L153.353 143.324C157.294 143.299 160.631 140.47 161.295 136.578L165.81 110.132C165.881 109.712 165.779 109.28 165.524 108.939ZM161.844 114.866H155.569L155.988 110.439L162.466 111.22L161.844 114.866ZM159.385 129.266H154.202L155.274 117.981H161.312L159.385 129.266ZM113.728 142.762L112.547 132.38H119.238L119.963 142.36L113.728 142.762ZM105.928 143.267L104.188 132.38H110.981L112.172 142.863L105.928 143.267ZM98.9408 143.719L96.2968 132.38H102.611L104.367 143.367L98.9408 143.719ZM89.1038 129.266L85.9218 117.981H91.3408L93.9718 129.266H89.1038ZM92.9398 117.981H100.309L102.113 129.266H95.5708L92.9398 117.981ZM97.9868 103.455L99.8108 114.866H92.2138L89.3088 102.409L97.9868 103.455ZM107.826 104.639L108.989 114.866H101.388L99.5948 103.648L107.826 104.639ZM145.204 114.866H137.526V108.216L145.448 109.169L145.204 114.866ZM146.999 109.357L154.443 110.254L154.004 114.866H146.763L146.999 109.357ZM110.91 117.981H118.195L119.013 129.266H112.194L110.91 117.981ZM110.626 129.266H103.69L101.886 117.981H109.343L110.626 129.266ZM119.756 117.981H127.217L127.639 129.266H120.573L119.756 117.981ZM128.775 117.981H135.968V129.266H129.196L128.775 117.981ZM137.526 117.981H145.071L144.588 129.266H137.526V117.981ZM135.968 114.866H128.657L128.368 107.113L135.968 108.027V114.866ZM127.1 114.866H119.529L118.885 105.971L126.803 106.925L127.1 114.866ZM117.969 114.866H110.556L109.415 104.831L117.31 105.781L117.969 114.866ZM120.8 132.38H127.754L128.109 141.833L121.517 142.259L120.8 132.38ZM129.313 132.38H135.968V141.326L129.663 141.733L129.313 132.38ZM137.526 132.38H144.454L144.094 140.802L137.526 141.225V132.38ZM146.013 132.38H152.343L151.59 140.317L145.657 140.699L146.013 132.38ZM146.147 129.266L146.629 117.981H153.709L152.639 129.266H146.147ZM87.6638 102.21L90.6138 114.866H85.0428L81.2568 101.439L87.6638 102.21ZM96.8768 143.852C94.6698 143.83 92.7158 142.34 92.1158 140.216L89.9208 132.38H94.6978L97.3658 143.819L96.8768 143.852ZM153.3 140.21C153.267 140.21 153.234 140.21 153.2 140.212L153.163 140.216L153.907 132.38H158.853L158.226 136.055C157.815 138.462 155.743 140.21 153.3 140.21Z"
                            fill="#989898" />
                        <path
                            d="M165.818 109.976L165.438 112.261H154.167C153.239 112.261 152.487 111.51 152.487 110.582V106.909L164.69 108.31C165.502 108.409 165.971 109.173 165.818 109.976Z"
                            fill="#C2391C" />
                        <path
                            d="M35.9954 46.8674C34.1304 46.6484 32.4334 47.9734 32.2084 49.8404C31.9834 51.7064 33.3144 53.4014 35.1814 53.6264L51.9724 55.6484L52.7204 48.8814L35.9954 46.8674Z"
                            fill="#C2391C" />
                        <path
                            d="M52.7196 48.8804L34.6006 53.5004L51.9706 55.6474L52.7196 48.8804Z"
                            fill="#908881" />
                        <path
                            d="M85.9214 117.979L85.4824 116.422H161.577L161.311 117.979H85.9214Z"
                            fill="#908881" />
                        <path
                            d="M89.8775 132.377L89.4385 130.82H159.116L158.849 132.377H89.8775Z"
                            fill="#908881" />
                        <mask id="mask0_140_6089" style="mask-type:luminance"
                            maskUnits="userSpaceOnUse" x="63" y="53" width="114"
                            height="114">
                            <path d="M63 53H177V167H63V53Z" fill="white" />
                        </mask>
                        <g mask="url(#mask0_140_6089)">
                            <path
                                d="M118.587 78.4937C134.957 78.4937 148.249 91.7851 148.249 108.156C148.249 124.526 134.957 137.817 118.587 137.817C102.216 137.817 88.9248 124.526 88.9248 108.156C88.9248 91.7851 102.216 78.4937 118.587 78.4937Z"
                                fill="#CEE2E3" />
                            <mask id="mask1_140_6089"
                                style="mask-type:luminance"
                                maskUnits="userSpaceOnUse" x="62" y="52"
                                width="115" height="115">
                                <path
                                    d="M62.4297 52.2402H176.43V166.24H62.4297V52.2402Z"
                                    fill="white" />
                            </mask>
                            <g mask="url(#mask1_140_6089)">
                                <mask id="mask2_140_6089"
                                    style="mask-type:luminance"
                                    maskUnits="userSpaceOnUse" x="90" y="72"
                                    width="80" height="79">
                                    <path
                                        d="M90.3594 72H169.019V150.66H90.3594V72Z"
                                        fill="white" />
                                </mask>
                                <g mask="url(#mask2_140_6089)">
                                    <path
                                        d="M110.81 98.6597C112.256 98.6597 113.43 99.8339 113.43 101.28C113.43 102.726 112.256 103.901 110.81 103.901C109.364 103.901 108.189 102.726 108.189 101.28C108.189 99.8339 109.364 98.6597 110.81 98.6597Z"
                                        fill="#D63737" />
                                    <path
                                        d="M127.198 98.6597C128.644 98.6597 129.818 99.8339 129.818 101.28C129.818 102.726 128.644 103.901 127.198 103.901C125.751 103.901 124.577 102.726 124.577 101.28C124.577 99.8339 125.751 98.6597 127.198 98.6597Z"
                                        fill="#D63737" />
                                    <path
                                        d="M106.223 117.23C106.223 117.23 119.202 104.513 131.918 116.968"
                                        stroke="#D63737" stroke-width="3.4086"
                                        stroke-linecap="round" />
                                </g>
                            </g>
                        </g>
                    </svg>