<svg  viewBox="0 0 134 134" fill="none" xmlns="http://www.w3.org/2000/svg">
<path d="M79.1392 104.4H54.8608C51.624 104.4 49 101.776 49 98.5396V62.4004H85V98.5396C85 101.776 82.3764 104.4 79.1392 104.4Z" fill="#EF305E"/>
<path d="M75.1249 28.6946L77.2891 31.2753C77.7569 31.8331 77.6841 32.6614 77.1263 33.1292L46.9616 58.4261C46.4038 58.8939 45.5755 58.8212 45.1077 58.2634L42.9435 55.6827C42.4757 55.1249 42.5484 54.2965 43.1062 53.8287L51.4121 46.8632C51.3987 46.8536 51.3884 46.8413 51.3782 46.829C51.0157 46.3969 50.8614 45.8581 50.9074 45.334C50.9529 44.8156 51.1962 44.3088 51.6314 43.9438L62.052 35.2048C62.9194 34.4774 64.2124 34.5937 64.9373 35.458C64.9475 35.4703 64.9578 35.4826 64.965 35.4974L73.2709 28.5319C73.8287 28.0641 74.6571 28.1368 75.1249 28.6946Z" fill="#EF305E"/>
<path d="M63.6209 75.2002C69.2429 75.2002 73.8001 79.7578 73.8001 85.3794C73.8001 87.2686 72.2685 88.8002 70.3793 88.8002H67.1737C63.3225 88.8002 60.2001 85.6778 60.2001 81.8266V78.621C60.2001 76.7318 61.7317 75.2002 63.6209 75.2002Z" fill="#EF305E"/>
<path d="M67.0001 2.36719C102.696 2.36719 131.632 31.3044 131.632 67.0004C131.632 102.696 102.696 131.634 67.0001 131.634C31.3045 131.634 2.36688 102.696 2.36688 67.0004C2.36688 31.3044 31.3045 2.36719 67.0001 2.36719Z" stroke="#EF305E" stroke-width="4" stroke-miterlimit="10"/>
</svg>
