<svg width="211" height="335" viewBox="0 0 211 335" fill="none" xmlns="http://www.w3.org/2000/svg">
<path d="M205.19 102.613L161.334 297.95C159.133 307.751 149.39 313.921 139.589 311.721L19.3813 284.733C9.5807 282.532 3.4099 272.789 5.61027 262.988L49.4662 67.6505C51.6666 57.8499 61.4105 51.6791 71.2111 53.8795L191.419 80.8678C201.219 83.0681 207.39 92.812 205.19 102.613Z" fill="#FF2E61"/>
<path d="M205.19 102.613L161.334 297.95C159.133 307.751 149.39 313.921 139.589 311.721L19.3813 284.733C9.5807 282.532 3.4099 272.789 5.61027 262.988L49.4662 67.6505C51.6666 57.8499 61.4105 51.6791 71.2111 53.8795L191.419 80.8678C201.219 83.0681 207.39 92.812 205.19 102.613Z" stroke="#311C42" stroke-width="9.45"/>
<path d="M60.0951 9.64663C82.6368 14.7075 96.8083 37.0842 91.7473 59.6262C86.6863 82.1678 64.3093 96.3392 41.7677 91.2783C19.2257 86.2173 5.05467 63.8404 10.1156 41.2988C15.1766 18.7567 37.5531 4.58564 60.0951 9.64663Z" fill="#FF2D60"/>
<path d="M60.0951 9.64663C82.6368 14.7075 96.8082 37.0842 91.7473 59.6262C86.6863 82.1678 64.3093 96.3392 41.7677 91.2783C19.2257 86.2173 5.05467 63.8404 10.1156 41.2988C15.1766 18.7567 37.5531 4.58564 60.0951 9.64663Z" stroke="#311D42" stroke-width="10.0845" stroke-linecap="round" stroke-linejoin="round"/>
<path d="M66.1438 34.9931C61.1267 33.8667 56.138 35.9423 53.3106 39.8654C52.4317 35.1102 48.8091 31.1012 43.792 29.9748C37.0832 28.4686 30.4235 32.6859 28.9173 39.395C24.3354 59.8029 45.4769 74.7575 45.4769 74.7575C45.4769 74.7575 70.9821 70.2758 75.5639 49.8678C77.0702 43.1587 72.8525 36.4993 66.1438 34.9931Z" fill="white"/>
<path d="M162.175 275.937C175.613 281.64 181.884 297.156 176.181 310.594C170.479 324.032 154.962 330.303 141.524 324.6C128.086 318.898 121.816 303.381 127.518 289.943C133.221 276.505 148.737 270.235 162.175 275.937Z" fill="#FF2D60"/>
<path d="M162.175 275.937C175.613 281.64 181.884 297.156 176.181 310.594C170.479 324.032 154.962 330.303 141.524 324.6C128.086 318.898 121.816 303.381 127.518 289.943C133.221 276.505 148.737 270.235 162.175 275.937Z" stroke="#311D42" stroke-width="6.37195" stroke-linecap="round" stroke-linejoin="round"/>
<path d="M145.088 288.025L159.654 311.024" stroke="white" stroke-width="6.3" stroke-linecap="round"/>
<path d="M163.871 292.242L140.871 306.807" stroke="white" stroke-width="6.3" stroke-linecap="round"/>
<path d="M120.229 116.741C120.229 116.741 121.938 117.142 124.726 117.797L120.229 116.741Z" fill="#FF2E61"/>
<path d="M120.229 116.741C120.229 116.741 121.938 117.142 124.726 117.797" stroke="#311C42" stroke-width="9.45" stroke-linecap="round"/>
<path d="M112.835 150.951C112.835 150.951 113.985 151.221 115.936 151.679L112.835 150.951Z" fill="#FF2E61"/>
<path d="M112.835 150.951C112.835 150.951 113.985 151.221 115.936 151.679" stroke="#311C42" stroke-width="9.45" stroke-linecap="round"/>
<path d="M106.477 180.372C106.477 180.372 107.469 180.605 109.175 181.005L106.477 180.372Z" fill="#FF2E61"/>
<path d="M106.477 180.372C106.477 180.372 107.469 180.605 109.175 181.005" stroke="#311C42" stroke-width="9.45" stroke-linecap="round"/>
<path d="M100.119 209.793C100.119 209.793 101.394 210.093 103.538 210.596L100.119 209.793Z" fill="#FF2E61"/>
<path d="M100.119 209.793C100.119 209.793 101.394 210.093 103.538 210.596" stroke="#311C42" stroke-width="9.45" stroke-linecap="round"/>
<path d="M101.527 104.986C105.579 105.896 108.13 109.925 107.221 113.977C106.311 118.029 102.282 120.581 98.2299 119.671C94.1778 118.761 91.6264 114.732 92.5361 110.68C93.4459 106.628 97.4746 104.077 101.527 104.986Z" fill="white"/>
<path d="M94.0898 138.112C98.142 139.022 100.693 143.05 99.7836 147.102C98.8738 151.155 94.8451 153.706 90.7929 152.796C86.7407 151.887 84.1894 147.858 85.0991 143.806C86.0089 139.753 90.0376 137.202 94.0898 138.112Z" fill="white"/>
<path d="M87.3813 167.993C91.4335 168.903 93.9849 172.932 93.0751 176.984C92.1653 181.036 88.1366 183.587 84.0844 182.678C80.0323 181.768 77.4809 177.739 78.3906 173.687C79.3004 169.635 83.3291 167.083 87.3813 167.993Z" fill="white"/>
<path d="M80.9409 196.679C84.9931 197.589 87.5445 201.618 86.6347 205.67C85.7249 209.722 81.6962 212.273 77.644 211.364C73.5918 210.454 71.0404 206.425 71.9502 202.373C72.86 198.321 76.8887 195.769 80.9409 196.679Z" fill="white"/>
</svg>
